{
.appVersion = "1356";
classes = (
{
automatic = 1;
code = "";
name = xxxx;
}
);
copyright = "Copyright © GitHub 2022. All rights reserved.";
customParameters = (
{
name = Axes;
value = (
{
Name = Weight;
Tag = wght;
},
{
Name = Width;
Tag = wdth;
},
{
Name = Italic;
Tag = ital;
}
);
},
{
name = variableStyleName;
value = Variable;
},
{
name = "Use Typo Metrics";
value = 1;
},
{
name = fsType;
value = (
);
},
{
name = "Variable Font Origin";
value = master01;
}
);
date = "2017-05-31 15:56:58 +0000";
designer = "Deni Anggara";
designerURL = www.degarism.com;
familyName = "Mona Sans";
featurePrefixes = (
{
automatic = 1;
code = "languagesystem DFLT dflt;\012";
name = Languagesystems;
}
);
features = (
{
automatic = 1;
code = "feature subs;\012feature sinf;\012feature sups;\012feature numr;\012feature dnom;\012feature frac;\012feature ordn;\012feature pnum;\012feature tnum;\012feature case;\012feature salt;\012feature ss01;\012feature ss03;\012";
name = aalt;
},
{
automatic = 1;
code = "lookup ccmp_Other_1 {\012	@CombiningTopAccents = [acutecomb circumflexcomb dieresiscomb dotaccentcomb gravecomb ringcomb tildecomb];\012	@CombiningNonTopAccents = [cedillacomb slashlongcomb slashshortcomb];\012	sub [i]' @CombiningTopAccents by [idotless];\012	sub [i]' @CombiningNonTopAccents @CombiningTopAccents by [idotless];\012} ccmp_Other_1;\012";
name = ccmp;
},
{
automatic = 1;
code = "sub zero by zeroinferior;\012sub one by oneinferior;\012sub two by twoinferior;\012sub three by threeinferior;\012sub four by fourinferior;\012sub five by fiveinferior;\012sub six by sixinferior;\012sub seven by seveninferior;\012sub eight by eightinferior;\012sub nine by nineinferior;\012";
name = subs;
},
{
automatic = 1;

glyphs = (
{
glyphname = A;
lastChange = "2022-08-11 20:49:26 +0000";
layers = (
{
anchors = (
{
name = bottom;
position = "{250, 0}";
},
{
name = ogonek;
position = "{450, 10}";
},
{
name = top;
position = "{250, 729}";
}
);
layerId = "E787E54A-EE3E-475A-BF02-8501A6DA5144";
paths = (
{
closed = 1;
nodes = (
"186 0 LINE",
"200 120 LINE",
"298 120 LINE",
"313 0 LINE",
"488 0 LINE",
"374 729 LINE",
"123 729 LINE",
"11 0 LINE"
);
},
{
closed = 1;
nodes = (
"232 413 LINE",
"245 563 LINE",
"252 563 LINE",
"267 414 LINE",
"283 260 LINE",
"214 260 LINE"
);
}
);
width = 500;
},
{
anchors = (
{
name = bottom;
position = "{195, 0}";
},
{
name = ogonek;
position = "{351, 10}";
},
{
name = top;
position = "{195, 729}";
}
);
layerId = "5713303B-ED49-44A7-8230-B5CAE56DEB7E";
paths = (
{
closed = 1;
nodes = (
"44 0 LINE",
"88 205 LINE",
"303 205 LINE",
"346 0 LINE",
"378 0 LINE",
"215 729 LINE",
"175 729 LINE",
"12 0 LINE"
);
},
{
closed = 1;
nodes = (
"164 556 LINE",
"194 694 LINE",
"198 694 LINE",
"228 557 LINE",
"295 231 LINE",
"96 231 LINE"
);
}
);
width = 390;
},
{
anchors = (
{
name = bottom;
position = "{315, 0}";
},
{
name = ogonek;
position = "{590, 10}";
},
{
name = top;
position = "{315, 729}";
}
);
layerId = master01;
paths = (
{
closed = 1;
nodes = (
"48 0 LINE",
"124 200 LINE",
"506 200 LINE",
"583 0 LINE",
"623 0 LINE",
"340 729 LINE",
"290 729 LINE",
"7 0 LINE"
);
},
{
closed = 1;
nodes = (
"247 516 LINE",
"314 690 LINE",
"318 690 LINE",
"384 516 LINE",
"493 233 LINE",
"137 233 LINE"
);
}
);
userData = {
com.schriftgestaltung.hints = (
{
horizontal = 1;
options = 0;
origin = (
0,
7
);
stem = -2;
target = (
u,
p
);
type = BottomGhost;
},
{
horizontal = 1;
options = 0;
origin = (
1,
3
);
stem = -2;
target = (
0,
1
);
type = Stem;
},
{
horizontal = 1;
options = 0;
origin = (
0,
6
);
stem = -2;
target = (
1,
0
);
type = Stem;
}
);
};
width = 629;
},
{
anchors = (
{
name = bottom;
position = "{370, 0}";
},
{
name = ogonek;
position = "{679, 10}";
},
{
name = top;
position = "{370, 729}";
}
);
layerId = "1EDCBF6C-9964-4A28-BC87-E86B534B8BE7";
paths = (
{
closed = 1;
nodes = (
"209 0 LINE",
"247 130 LINE",
"492 130 LINE",
"530 0 LINE",
"741 0 LINE",
"514 729 LINE",
"225 729 LINE",
"-2 0 LINE"
);
},
{
closed = 1;
nodes = (
"335 431 LINE",
"366 547 LINE",
"373 547 LINE",
"404 431 LINE",
"447 284 LINE",
"292 284 LINE"
);
}
);
width = 739;
},
{
anchors = (
{
name = bottom;
position = "{401, 0}";
},
{
name = ogonek;
position = "{705, 10}";
},
{
name = top;
position = "{401, 729}";
}
);
layerId = "28A8A76A-23B4-40F5-83B9-DC51E48BF161";
paths = (
{
closed = 1;
nodes = (
"56 0 LINE",
"155 200 LINE",
"646 200 LINE",
"745 0 LINE",
"786 0 LINE",
"424 729 LINE",
"377 729 LINE",
"15 0 LINE"
);
},
{
closed = 1;
nodes = (
"354 595 LINE",
"400 690 LINE",
"403 690 LINE",
"447 598 LINE",
"630 233 LINE",
"173 233 LINE"
);
}
);
width = 802;
},
{
anchors = (
{
name = bottom;
position = "{437, 0}";
},
{
name = ogonek;
position = "{786, 10}";
},
{
name = top;
position = "{437, 729}";
}
);
layerId = "D2144554-01B8-4B9B-B16A-E0E5B5794DFC";
paths = (
{
closed = 1;
nodes = (
"242 0 LINE",
"285 124 LINE",
"586 124 LINE",
"630 0 LINE",
"879 0 LINE",
"585 729 LINE",
"287 729 LINE",
"-5 0 LINE"
);
},
{
closed = 1;
nodes = (
"406 466 LINE",
"432 547 LINE",
"439 547 LINE",
"467 464 LINE",
"526 293 LINE",
"346 293 LINE"
);
}
);
width = 874;
},
{
anchors = (
{
name = bottom;
position = "{140, 0}";
},
{
name = ogonek;
position = "{296, 10}";
},
{
name = top;
position = "{280, 729}";
}
);
layerId = "23BA42C1-D468-4A44-9BE5-E18AE60B7926";
paths = (
{
closed = 1;
nodes = (
"-21 0 LINE",
"66 205 LINE",
"278 205 LINE",
"278 0 LINE",
"310 0 LINE",
"300 729 LINE",
"260 729 LINE",
"-52 0 LINE"
);
},
{
closed = 1;
nodes = (
"214 556 LINE",
"272 694 LINE",
"276 694 LINE",
"277 557 LINE",
"275 231 LINE",
"78 231 LINE"
);
}
);
width = 386;
},
{
anchors = (
{
name = bottom;
position = "{189, 0}";
},
{
name = ogonek;
position = "{387, 10}";
},
{
name = top;
position = "{330, 729}";
}
);
layerId = "2D4E69BA-A319-45D0-84B7-5297BCF4B7A0";
paths = (
{
closed = 1;
nodes = (
"117 0 LINE",
"155 120 LINE",
"254 120 LINE",
"243 0 LINE",
"416 0 LINE",
"454 729 LINE",
"206 729 LINE",
"-56 0 LINE"
);
},
{
closed = 1;
nodes = (
"250 425 LINE",
"293 563 LINE",
"300 563 LINE",
"285 423 LINE",
"266 260 LINE",
"199 260 LINE"
);
}
);
width = 490;
},
{
anchors = (
{
name = bottom;
position = "{254, 0}";
},
{
name = ogonek;
position = "{503, 10}";
},
{
name = top;
position = "{394, 729}";
}
);
layerId = "095FE76F-1953-440B-9108-AA0678D151F9";
paths = (
{
closed = 1;
nodes = (
"-16 0 LINE",
"101 200 LINE",
"472 200 LINE",
"505 0 LINE",
"543 0 LINE",
"417 729 LINE",
"369 729 LINE",
"-58 0 LINE"
);
},
{
closed = 1;
nodes = (
"328 588 LINE",
"385 690 LINE",
"388 690 LINE",
"408 583 LINE",
"466 233 LINE",
"120 233 LINE"
);
}
);
width = 615;
},
{
anchors = (
{
name = bottom;
position = "{293, 0}";
},
{
name = ogonek;
position = "{574, 10}";
},
{
name = top;
position = "{429, 729}";
}
);
layerId = "63AAE8D6-1DFF-4DD4-BD9A-49272FE52904";
paths = (
{
closed = 1;
nodes = (
"133 0 LINE",
"197 130 LINE",
"429 130 LINE",
"441 0 LINE",
"633 0 LINE",
"550 729 LINE",
"308 729 LINE",
"-69 0 LINE"
);
},
{
closed = 1;
nodes = (
"351 449 LINE",
"387 527 LINE",
"394 527 LINE",
"401 449 LINE",
"415 284 LINE",
"271 284 LINE"
);
}
);
width = 698;
},
{
anchors = (
{
name = bottom;
position = "{343, 0}";
},
{
name = ogonek;
position = "{664, 10}";
},
{
name = top;
position = "{482, 729}";
}
);
layerId = "C17B1F32-8075-45B4-AA59-7DAFF0D7E404";
paths = (
{
closed = 1;
nodes = (
"-8 0 LINE",
"132 200 LINE",
"615 200 LINE",
"671 0 LINE",
"712 0 LINE",
"505 729 LINE",
"459 729 LINE",
"-50 0 LINE"
);
},
{
closed = 1;
nodes = (
"426 620 LINE",
"475 691 LINE",
"478 691 LINE",
"497 620 LINE",
"605 233 LINE",
"155 233 LINE"
);
}
);
width = 794;
},
{
anchors = (
{
name = bottom;
position = "{374, 0}";
},
{
name = ogonek;
position = "{720, 10}";
},
{
name = top;
position = "{512, 729}";
}
);
layerId = "377EF8AC-8B0D-46C2-96BB-3B5B69A8F571";
paths = (
{
closed = 1;
nodes = (
"171 0 LINE",
"239 124 LINE",
"536 124 LINE",
"554 0 LINE",
"798 0 LINE",
"656 729 LINE",
"368 729 LINE",
"-72 0 LINE"
);
},
{
closed = 1;
nodes = (
"430 469 LINE",
"471 544 LINE",
"478 544 LINE",
"489 467 LINE",
"511 293 LINE",
"335 293 LINE"
);
}
);
width = 860;
}
);
leftKerningGroup = A;
rightKerningGroup = A;
unicode = 0041;
},
{
glyphname = AE;
lastChange = "2022-08-11 16:47:25 +0000";
layers = (
{
layerId = "5713303B-ED49-44A7-8230-B5CAE56DEB7E";
paths = (
{
closed = 1;
nodes = (
"44 0 LINE",
"88 205 LINE",
"204 205 LINE",
"204 0 LINE",
"440 0 LINE",
"440 28 LINE",
"234 28 LINE",
"234 361 LINE",
"409 361 LINE",
"409 389 LINE",
"234 389 LINE",
"234 701 LINE",
"440 701 LINE",
"440 729 LINE",
"175 729 LINE",
"12 0 LINE"
);
},
{
closed = 1;
nodes = (
"164 556 LINE",
"194 694 LINE",
"204 694 LINE",
"204 231 LINE",
"96 231 LINE"
);
}
);
width = 460;
},
{
layerId = "E787E54A-EE3E-475A-BF02-8501A6DA5144";
paths = (
{
closed = 1;
nodes = (
"186 0 LINE",
"200 120 LINE",
"256 120 LINE",
"256 0 LINE",
"580 0 LINE",
"580 157 LINE",
"425 157 LINE",
"425 299 LINE",
"566 299 LINE",
"566 445 LINE",
"425 445 LINE",
"425 572 LINE",
"580 572 LINE",
"580 729 LINE",
"123 729 LINE",
"11 0 LINE"
);
},
{
closed = 1;
nodes = (
"232 413 LINE",
"245 563 LINE",
"256 563 LINE",
"256 260 LINE",
"214 260 LINE"
);
}
);
width = 598;
},
{
layerId = master01;
paths = (
{
closed = 1;
nodes = (
"48 0 LINE",
"124 200 LINE",
"319 200 LINE",
"319 0 LINE",
"799 0 LINE",
"799 37 LINE",
"356 37 LINE",
"356 358 LINE",
"751 358 LINE",
"751 392 LINE",
"356 392 LINE",
"356 693 LINE",
"799 693 LINE",
"799 729 LINE",
"290 729 LINE",
"7 0 LINE"
);
},
{
closed = 1;
nodes = (
"247 516 LINE",
"314 690 LINE",
"319 690 LINE",
"319 233 LINE",
"137 233 LINE"
);
}
);
width = 853;
},
{
layerId = "1EDCBF6C-9964-4A28-BC87-E86B534B8BE7";
paths = (
{
closed = 1;
nodes = (
"209 0 LINE",
"247 130 LINE",
"417 130 LINE",
"417 0 LINE",
"964 0 LINE",
"964 172 LINE",
"614 172 LINE",
"614 288 LINE",
"911 288 LINE",
"911 449 LINE",
"614 449 LINE",
"614 557 LINE",
"961 557 LINE",
"961 729 LINE",
"225 729 LINE",
"-2 0 LINE"
);
},
{
closed = 1;
nodes = (
"335 431 LINE",
"366 547 LINE",
"417 547 LINE",
"417 284 LINE",
"292 284 LINE"
);
}
);
width = 1009;
},
{
layerId = "28A8A76A-23B4-40F5-83B9-DC51E48BF161";
paths = (
{
closed = 1;
nodes = (
"56 0 LINE",
"156 200 LINE",
"406 200 LINE",
"406 0 LINE",
"972 0 LINE",
"972 37 LINE",
"444 37 LINE",
"444 358 LINE",
"924 358 LINE",
"924 392 LINE",
"444 392 LINE",
"444 693 LINE",
"972 693 LINE",
"972 729 LINE",
"382 729 LINE",
"15 0 LINE"
);
},
{
closed = 1;
nodes = (
"354 595 LINE",
"400 690 LINE",
"406 690 LINE",
"406 233 LINE",
"173 233 LINE"
);
}
);
width = 1004;
},
{
layerId = "D2144554-01B8-4B9B-B16A-E0E5B5794DFC";
paths = (
{
closed = 1;
nodes = (
"242 0 LINE",
"285 124 LINE",
"441 124 LINE",
"441 0 LINE",
"1076 0 LINE",
"1076 179 LINE",
"664 179 LINE",
"664 282 LINE",
"1023 282 LINE",
"1023 449 LINE",
"664 449 LINE",
"664 550 LINE",
"1073 550 LINE",
"1073 729 LINE",
"287 729 LINE",
"-5 0 LINE"
);
},
{
closed = 1;
nodes = (
"406 466 LINE",
"432 547 LINE",
"441 547 LINE",
"441 293 LINE",
"346 293 LINE"
);
}
);
width = 1103;
},
{
layerId = "23BA42C1-D468-4A44-9BE5-E18AE60B7926";
paths = (
{
closed = 1;
nodes = (
"-21 0 LINE",
"66 205 LINE",
"178 205 LINE",
"136 0 LINE",
"369 0 LINE",
"375 28 LINE",
"172 28 LINE",
"242 361 LINE",
"415 361 LINE",
"419 389 LINE",
"247 389 LINE",
"313 701 LINE",
"516 701 LINE",
"520 729 LINE",
"260 729 LINE",
"-52 0 LINE"
);
},
{
closed = 1;
nodes = (
"214 556 LINE",
"273 694 LINE",
"280 694 LINE",
"183 231 LINE",
"78 231 LINE"
);
}
);
width = 455;
},
{
layerId = "2D4E69BA-A319-45D0-84B7-5297BCF4B7A0";
paths = (
{
closed = 1;
nodes = (
"117 0 LINE",
"155 120 LINE",
"211 120 LINE",
"186 0 LINE",
"509 0 LINE",
"541 157 LINE",
"387 157 LINE",
"416 299 LINE",
"556 299 LINE",
"587 445 LINE",
"447 445 LINE",
"472 572 LINE",
"629 572 LINE",
"660 729 LINE",
"206 729 LINE",
"-56 0 LINE"
);
},
{
closed = 1;
nodes = (
"249 413 LINE",
"293 563 LINE",
"303 563 LINE",
"240 260 LINE",
"199 260 LINE"
);
}
);
width = 592;
},
{
layerId = "095FE76F-1953-440B-9108-AA0678D151F9";
paths = (
{
closed = 1;
nodes = (
"-19 0 LINE",
"98 200 LINE",
"290 200 LINE",
"248 0 LINE",
"715 0 LINE",
"722 36 LINE",
"292 36 LINE",
"361 358 LINE",
"744 358 LINE",
"751 393 LINE",
"368 393 LINE",
"430 693 LINE",
"859 693 LINE",
"866 729 LINE",
"369 729 LINE",
"-58 0 LINE"
);
},
{
closed = 1;
nodes = (
"325 588 LINE",
"384 690 LINE",
"391 690 LINE",
"297 233 LINE",
"118 233 LINE"
);
}
);
width = 834;
},
{
layerId = "63AAE8D6-1DFF-4DD4-BD9A-49272FE52904";
paths = (
{
closed = 1;
nodes = (
"133 0 LINE",
"197 130 LINE",
"342 130 LINE",
"315 0 LINE",
"847 0 LINE",
"882 172 LINE",
"546 172 LINE",
"570 285 LINE",
"855 285 LINE",
"888 446 LINE",
"602 446 LINE",
"626 557 LINE",
"959 557 LINE",
"995 729 LINE",
"308 729 LINE",
"-69 0 LINE"
);
},
{
closed = 1;
nodes = (
"351 449 LINE",
"387 527 LINE",
"425 527 LINE",
"374 284 LINE",
"271 284 LINE"
);
}
);
width = 958;
},
{
layerId = "C17B1F32-8075-45B4-AA59-7DAFF0D7E404";
paths = (
{
closed = 1;
nodes = (
"-10 0 LINE",
"130 200 LINE",
"377 200 LINE",
"336 0 LINE",
"894 0 LINE",
"901 37 LINE",
"380 37 LINE",
"448 358 LINE",
"922 358 LINE",
"929 392 LINE",
"454 392 LINE",
"517 693 LINE",
"1038 693 LINE",
"1045 729 LINE",
"459 729 LINE",
"-50 0 LINE"
);
},
{
closed = 1;
nodes = (
"415 606 LINE",
"474 690 LINE",
"479 690 LINE",
"384 233 LINE",
"154 233 LINE"
);
}
);
width = 991;
},
{
layerId = "377EF8AC-8B0D-46C2-96BB-3B5B69A8F571";
paths = (
{
closed = 1;
nodes = (
"171 0 LINE",
"239 124 LINE",
"392 124 LINE",
"366 0 LINE",
"992 0 LINE",
"1029 179 LINE",
"622 179 LINE",
"644 282 LINE",
"998 282 LINE",
"1033 449 LINE",
"679 449 LINE",
"700 550 LINE",
"1103 550 LINE",
"1140 729 LINE",
"368 729 LINE",
"-72 0 LINE"
);
},
{
closed = 1;
nodes = (
"432 469 LINE",
"471 544 LINE",
"479 544 LINE",
"427 293 LINE",
"335 293 LINE"
);
}
);
width = 1086;
}
);
leftKerningGroup = A;
leftMetricsKey = A;
rightKerningGroup = AE;
rightMetricsKey = E;
unicode = 00C6;
},
{
glyphname = B;
lastChange = "2022-08-11 16:53:00 +0000";
layers = (
{
layerId = "E787E54A-EE3E-475A-BF02-8501A6DA5144";
paths = (
{
closed = 1;
nodes = (
"225 0 LINE SMOOTH",
"369 0 OFFCURVE",
"452 70 OFFCURVE",
"452 206 CURVE SMOOTH",
"452 296 OFFCURVE",
"419 360 OFFCURVE",
"356 381 CURVE",
"356 387 LINE",
"405 404 OFFCURVE",
"437 465 OFFCURVE",
"437 537 CURVE SMOOTH",
"437 654 OFFCURVE",
"385 729 OFFCURVE",
"243 729 CURVE SMOOTH",
"28 729 LINE",
"28 0 LINE"
);
},
{
closed = 1;
nodes = (
"207 309 LINE",
"224 309 LINE SMOOTH",
"255 309 OFFCURVE",
"275 285 OFFCURVE",
"275 225 CURVE SMOOTH",
"275 172 OFFCURVE",
"262 141 OFFCURVE",
"223 141 CURVE SMOOTH",
"207 141 LINE"
);
},
{
closed = 1;
nodes = (
"207 591 LINE",
"224 591 LINE SMOOTH",
"254 591 OFFCURVE",
"270 568 OFFCURVE",
"270 513 CURVE SMOOTH",
"270 465 OFFCURVE",
"259 433 OFFCURVE",
"224 433 CURVE SMOOTH",
"207 433 LINE"
);
}
);
width = 462;
},
{
layerId = "5713303B-ED49-44A7-8230-B5CAE56DEB7E";
paths = (
{
closed = 1;
nodes = (
"171 0 LINE SMOOTH",
"290 0 OFFCURVE",
"335 81 OFFCURVE",
"335 200 CURVE SMOOTH",
"335 279 OFFCURVE",
"305 355 OFFCURVE",
"240 374 CURVE",
"240 376 LINE",
"286 392 OFFCURVE",
"322 456 OFFCURVE",
"322 543 CURVE SMOOTH",
"322 670 OFFCURVE",
"270 729 OFFCURVE",
"172 729 CURVE SMOOTH",
"65 729 LINE",
"65 0 LINE"
);
},
{
closed = 1;
nodes = (
"96 359 LINE",
"182 359 LINE SMOOTH",
"257 359 OFFCURVE",
"301 299 OFFCURVE",
"301 201 CURVE SMOOTH",
"301 77 OFFCURVE",
"257 29 OFFCURVE",
"171 29 CURVE SMOOTH",
"96 29 LINE"
);
},
{
closed = 1;
nodes = (
"96 700 LINE",
"171 700 LINE SMOOTH",
"259 700 OFFCURVE",
"291 635 OFFCURVE",
"291 539 CURVE SMOOTH",
"291 449 OFFCURVE",
"251 389 OFFCURVE",
"181 389 CURVE SMOOTH",
"96 389 LINE"
);
}
);
width = 357;
},
{
layerId = master01;
paths = (
{
closed = 1;
nodes = (
"407 0 LINE SMOOTH",
"550 0 OFFCURVE",
"641 78 OFFCURVE",
"641 200 CURVE SMOOTH",
"641 285 OFFCURVE",
"592 356 OFFCURVE",
"495 374 CURVE",
"495 377 LINE",
"583 397 OFFCURVE",
"622 464 OFFCURVE",
"622 543 CURVE SMOOTH",
"622 654 OFFCURVE",
"543 729 OFFCURVE",
"408 729 CURVE SMOOTH",
"103 729 LINE",
"103 0 LINE"
);
},
{
closed = 1;
nodes = (
"141 356 LINE",
"425 356 LINE SMOOTH",
"537 356 OFFCURVE",
"601 298 OFFCURVE",
"601 202 CURVE SMOOTH",
"601 104 OFFCURVE",
"535 36 OFFCURVE",
"407 36 CURVE SMOOTH",
"141 36 LINE"
);
},
{
closed = 1;
nodes = (
"141 694 LINE",
"407 694 LINE SMOOTH",
"514 694 OFFCURVE",
"584 635 OFFCURVE",
"584 538 CURVE SMOOTH",
"584 450 OFFCURVE",
"528 391 OFFCURVE",
"423 391 CURVE SMOOTH",
"141 391 LINE"
);
}
);
userData = {
com.schriftgestaltung.Glyphs.glyph.leftMetricsKey = H;
com.schriftgestaltung.hints = (
{
horizontal = 1;
options = 0;
origin = (
1,
8
);
stem = -2;
target = (
0,
15
);
type = Stem;
},
{
horizontal = 1;
options = 0;
origin = (
2,
8
);
stem = -2;
target = (
1,
0
);
type = Stem;
},
{
horizontal = 1;
options = 0;
origin = (
0,
14
);
stem = -2;
target = (
2,
0
);
type = Stem;
},
{
horizontal = 0;
options = 0;
origin = (
0,
15
);
stem = -2;
target = (
1,
8
);
type = Stem;
},
{
horizontal = 0;
options = 0;
origin = (
1,
4
);
stem = -2;
target = (
0,
3
);
type = Stem;
},
{
horizontal = 0;
options = 0;
origin = (
2,
4
);
stem = -2;
target = (
0,
10
);
type = Stem;
}
);
};
width = 690;
},
{
background = {
paths = (
{
closed = 1;
nodes = (
"424 0 LINE SMOOTH",
"612 0 OFFCURVE",
"701 85 OFFCURVE",
"701 212 CURVE SMOOTH",
"701 293 OFFCURVE",
"657 359 OFFCURVE",
"578 376 CURVE",
"578 385 LINE",
"640 405 OFFCURVE",
"681 467 OFFCURVE",
"681 541 CURVE SMOOTH",
"681 654 OFFCURVE",
"608 729 OFFCURVE",
"453 729 CURVE SMOOTH",
"69 729 LINE",
"69 0 LINE"
);
},
{
closed = 1;
nodes = (
"266 299 LINE",
"400 299 LINE SMOOTH",
"459 299 OFFCURVE",
"485 273 OFFCURVE",
"485 226 CURVE SMOOTH",
"485 179 OFFCURVE",
"459 153 OFFCURVE",
"400 153 CURVE SMOOTH",
"266 153 LINE"
);
},
{
closed = 1;
nodes = (
"266 576 LINE",
"391 576 LINE SMOOTH",
"437 576 OFFCURVE",
"467 555 OFFCURVE",
"467 511 CURVE SMOOTH",
"467 472 OFFCURVE",
"443 446 OFFCURVE",
"391 446 CURVE SMOOTH",
"266 446 LINE"
);
}
);
};
layerId = "1EDCBF6C-9964-4A28-BC87-E86B534B8BE7";
paths = (
{
closed = 1;
nodes = (
"422 0 LINE SMOOTH",
"597 0 OFFCURVE",
"695 68 OFFCURVE",
"695 212 CURVE SMOOTH",
"695 293 OFFCURVE",
"651 359 OFFCURVE",
"572 376 CURVE",
"572 385 LINE",
"636 405 OFFCURVE",
"675 468 OFFCURVE",
"675 541 CURVE SMOOTH",
"675 654 OFFCURVE",
"602 729 OFFCURVE",
"449 729 CURVE SMOOTH",
"69 729 LINE",
"69 0 LINE"
);
},
{
closed = 1;
nodes = (
"266 299 LINE",
"400 299 LINE SMOOTH",
"453 299 OFFCURVE",
"489 278 OFFCURVE",
"489 224 CURVE SMOOTH",
"489 181 OFFCURVE",
"464 153 OFFCURVE",
"398 153 CURVE SMOOTH",
"266 153 LINE"
);
},
{
closed = 1;
nodes = (
"266 576 LINE",
"390 576 LINE SMOOTH",
"439 576 OFFCURVE",
"471 558 OFFCURVE",
"471 513 CURVE SMOOTH",
"471 473 OFFCURVE",
"449 446 OFFCURVE",
"391 446 CURVE SMOOTH",
"266 446 LINE"
);
}
);
userData = {
com.schriftgestaltung.Glyphs.glyph.leftMetricsKey = H;
};
width = 724;
},
{
layerId = "28A8A76A-23B4-40F5-83B9-DC51E48BF161";
paths = (
{
closed = 1;
nodes = (
"460 0 LINE SMOOTH",
"603 0 OFFCURVE",
"694 78 OFFCURVE",
"694 200 CURVE SMOOTH",
"694 285 OFFCURVE",
"645 356 OFFCURVE",
"548 374 CURVE",
"548 377 LINE",
"636 397 OFFCURVE",
"675 464 OFFCURVE",
"675 543 CURVE SMOOTH",
"675 654 OFFCURVE",
"596 729 OFFCURVE",
"461 729 CURVE SMOOTH",
"71 729 LINE",
"71 0 LINE"
);
},
{
closed = 1;
nodes = (
"109 356 LINE",
"478 356 LINE SMOOTH",
"590 356 OFFCURVE",
"654 298 OFFCURVE",
"654 202 CURVE SMOOTH",
"654 104 OFFCURVE",
"588 36 OFFCURVE",
"460 36 CURVE SMOOTH",
"109 36 LINE"
);
},
{
closed = 1;
nodes = (
"109 694 LINE",
"460 694 LINE SMOOTH",
"567 694 OFFCURVE",
"637 635 OFFCURVE",
"637 538 CURVE SMOOTH",
"637 450 OFFCURVE",
"581 391 OFFCURVE",
"476 391 CURVE SMOOTH",
"109 391 LINE"
);
}
);
width = 719;
},
{
background = {
paths = (
{
closed = 1;
nodes = (
"473 0 LINE SMOOTH",
"684 0 OFFCURVE",
"768 86 OFFCURVE",
"768 206 CURVE SMOOTH",
"768 291 OFFCURVE",
"718 356 OFFCURVE",
"628 376 CURVE",
"628 385 LINE",
"701 406 OFFCURVE",
"745 465 OFFCURVE",
"745 538 CURVE SMOOTH",
"745 667 OFFCURVE",
"653 729 OFFCURVE",
"486 729 CURVE SMOOTH",
"54 729 LINE",
"54 0 LINE"
);
},
{
closed = 1;
nodes = (
"282 298 LINE",
"427 298 LINE SMOOTH",
"492 298 OFFCURVE",
"525 279 OFFCURVE",
"525 228 CURVE SMOOTH",
"525 184 OFFCURVE",
"501 155 OFFCURVE",
"428 155 CURVE SMOOTH",
"282 155 LINE"
);
},
{
closed = 1;
nodes = (
"282 573 LINE",
"418 573 LINE SMOOTH",
"485 573 OFFCURVE",
"504 549 OFFCURVE",
"504 511 CURVE SMOOTH",
"504 472 OFFCURVE",
"481 447 OFFCURVE",
"417 447 CURVE SMOOTH",
"282 447 LINE"
);
}
);
};
layerId = "D2144554-01B8-4B9B-B16A-E0E5B5794DFC";
paths = (
{
closed = 1;
nodes = (
"471 0 LINE SMOOTH",
"657 0 OFFCURVE",
"762 66 OFFCURVE",
"762 206 CURVE SMOOTH",
"762 301 OFFCURVE",
"711 362 OFFCURVE",
"621 376 CURVE",
"621 385 LINE",
"692 399 OFFCURVE",
"739 460 OFFCURVE",
"739 541 CURVE SMOOTH",
"739 660 OFFCURVE",
"670 729 OFFCURVE",
"483 729 CURVE SMOOTH",
"54 729 LINE",
"54 0 LINE"
);
},
{
closed = 1;
nodes = (
"282 298 LINE",
"429 298 LINE SMOOTH",
"500 298 OFFCURVE",
"533 277 OFFCURVE",
"533 227 CURVE SMOOTH",
"533 184 OFFCURVE",
"509 155 OFFCURVE",
"429 155 CURVE SMOOTH",
"282 155 LINE"
);
},
{
closed = 1;
nodes = (
"282 573 LINE",
"419 573 LINE SMOOTH",
"475 573 OFFCURVE",
"513 559 OFFCURVE",
"513 513 CURVE SMOOTH",
"513 473 OFFCURVE",
"491 447 OFFCURVE",
"420 447 CURVE SMOOTH",
"282 447 LINE"
);
}
);
width = 778;
},
{
layerId = "23BA42C1-D468-4A44-9BE5-E18AE60B7926";
paths = (
{
closed = 1;
nodes = (
"106 0 LINE SMOOTH",
"238 0 OFFCURVE",
"308 89 OFFCURVE",
"313 240 CURVE SMOOTH",
"315 301 OFFCURVE",
"291 351 OFFCURVE",
"248 369 CURVE",
"248 372 LINE",
"321 397 OFFCURVE",
"370 485 OFFCURVE",
"374 587 CURVE SMOOTH",
"377 672 OFFCURVE",
"336 729 OFFCURVE",
"247 729 CURVE SMOOTH",
"152 729 LINE",
"0 0 LINE"
);
},
{
closed = 1;
nodes = (
"105 359 LINE",
"180 359 LINE SMOOTH",
"249 359 OFFCURVE",
"283 315 OFFCURVE",
"281 242 CURVE SMOOTH",
"276 106 OFFCURVE",
"215 29 OFFCURVE",
"112 29 CURVE SMOOTH",
"37 29 LINE"
);
},
{
closed = 1;
nodes = (
"176 700 LINE",
"241 700 LINE SMOOTH",
"305 700 OFFCURVE",
"345 668 OFFCURVE",
"342 588 CURVE SMOOTH",
"338 479 OFFCURVE",
"285 389 OFFCURVE",
"197 389 CURVE SMOOTH",
"113 389 LINE"
);
}
);
width = 356;
},
{
layerId = "2D4E69BA-A319-45D0-84B7-5297BCF4B7A0";
paths = (
{
closed = 1;
nodes = (
"164 0 LINE SMOOTH",
"333 0 OFFCURVE",
"429 95 OFFCURVE",
"434 247 CURVE SMOOTH",
"436 303 OFFCURVE",
"417 353 OFFCURVE",
"371 375 CURVE",
"373 380 LINE",
"437 401 OFFCURVE",
"486 474 OFFCURVE",
"489 569 CURVE SMOOTH",
"492 661 OFFCURVE",
"447 729 OFFCURVE",
"315 729 CURVE SMOOTH",
"115 729 LINE",
"-37 0 LINE"
);
},
{
closed = 1;
nodes = (
"207 309 LINE",
"221 309 LINE SMOOTH",
"250 309 OFFCURVE",
"263 289 OFFCURVE",
"261 253 CURVE SMOOTH",
"259 189 OFFCURVE",
"230 141 OFFCURVE",
"189 141 CURVE SMOOTH",
"170 141 LINE"
);
},
{
closed = 1;
nodes = (
"265 590 LINE",
"280 590 LINE SMOOTH",
"304 590 OFFCURVE",
"319 572 OFFCURVE",
"318 538 CURVE SMOOTH",
"316 482 OFFCURVE",
"287 433 OFFCURVE",
"248 433 CURVE SMOOTH",
"231 433 LINE"
);
}
);
width = 465;
},
{
layerId = "095FE76F-1953-440B-9108-AA0678D151F9";
paths = (
{
closed = 1;
nodes = (
"334 0 LINE SMOOTH",
"502 0 OFFCURVE",
"601 79 OFFCURVE",
"605 215 CURVE SMOOTH",
"608 291 OFFCURVE",
"568 356 OFFCURVE",
"498 371 CURVE",
"498 374 LINE",
"589 393 OFFCURVE",
"658 468 OFFCURVE",
"661 566 CURVE SMOOTH",
"665 664 OFFCURVE",
"603 729 OFFCURVE",
"488 729 CURVE SMOOTH",
"190 729 LINE",
"39 0 LINE"
);
},
{
closed = 1;
nodes = (
"150 356 LINE",
"424 356 LINE SMOOTH",
"519 356 OFFCURVE",
"569 299 OFFCURVE",
"566 216 CURVE SMOOTH",
"562 102 OFFCURVE",
"480 36 OFFCURVE",
"340 36 CURVE SMOOTH",
"83 36 LINE"
);
},
{
closed = 1;
nodes = (
"220 694 LINE",
"478 694 LINE SMOOTH",
"567 694 OFFCURVE",
"623 650 OFFCURVE",
"619 559 CURVE SMOOTH",
"616 456 OFFCURVE",
"538 391 OFFCURVE",
"431 391 CURVE SMOOTH",
"159 391 LINE"
);
}
);
width = 678;
},
{
layerId = "63AAE8D6-1DFF-4DD4-BD9A-49272FE52904";
paths = (
{
closed = 1;
nodes = (
"368 0 LINE SMOOTH",
"542 0 OFFCURVE",
"660 72 OFFCURVE",
"665 224 CURVE SMOOTH",
"668 296 OFFCURVE",
"632 355 OFFCURVE",
"578 370 CURVE",
"580 379 LINE",
"647 398 OFFCURVE",
"706 464 OFFCURVE",
"709 555 CURVE SMOOTH",
"713 657 OFFCURVE",
"648 729 OFFCURVE",
"494 729 CURVE SMOOTH",
"154 729 LINE",
"3 0 LINE"
);
},
{
closed = 1;
nodes = (
"261 300 LINE",
"393 300 LINE SMOOTH",
"432 300 OFFCURVE",
"462 282 OFFCURVE",
"461 236 CURVE SMOOTH",
"459 182 OFFCURVE",
"424 153 OFFCURVE",
"366 153 CURVE SMOOTH",
"230 153 LINE"
);
},
{
closed = 1;
nodes = (
"319 576 LINE",
"442 576 LINE SMOOTH",
"482 576 OFFCURVE",
"505 557 OFFCURVE",
"503 522 CURVE SMOOTH",
"502 472 OFFCURVE",
"467 445 OFFCURVE",
"413 445 CURVE SMOOTH",
"292 445 LINE"
);
}
);
width = 719;
},
{
layerId = "C17B1F32-8075-45B4-AA59-7DAFF0D7E404";
paths = (
{
closed = 1;
nodes = (
"391 0 LINE SMOOTH",
"562 0 OFFCURVE",
"662 83 OFFCURVE",
"667 221 CURVE SMOOTH",
"670 295 OFFCURVE",
"624 357 OFFCURVE",
"556 372 CURVE",
"556 375 LINE",
"650 395 OFFCURVE",
"717 468 OFFCURVE",
"721 564 CURVE SMOOTH",
"724 669 OFFCURVE",
"662 729 OFFCURVE",
"526 729 CURVE SMOOTH",
"158 729 LINE",
"7 0 LINE"
);
},
{
closed = 1;
nodes = (
"118 356 LINE",
"474 356 LINE SMOOTH",
"579 356 OFFCURVE",
"630 307 OFFCURVE",
"627 219 CURVE SMOOTH",
"623 104 OFFCURVE",
"539 36 OFFCURVE",
"398 36 CURVE SMOOTH",
"52 36 LINE"
);
},
{
closed = 1;
nodes = (
"190 694 LINE",
"519 694 LINE SMOOTH",
"628 694 OFFCURVE",
"684 647 OFFCURVE",
"681 562 CURVE SMOOTH",
"677 456 OFFCURVE",
"602 391 OFFCURVE",
"472 391 CURVE SMOOTH",
"127 391 LINE"
);
}
);
width = 716;
},
{
layerId = "377EF8AC-8B0D-46C2-96BB-3B5B69A8F571";
paths = (
{
closed = 1;
nodes = (
"422 0 LINE SMOOTH",
"620 0 OFFCURVE",
"731 77 OFFCURVE",
"736 223 CURVE SMOOTH",
"739 299 OFFCURVE",
"700 353 OFFCURVE",
"630 372 CURVE",
"631 381 LINE",
"724 397 OFFCURVE",
"780 462 OFFCURVE",
"784 557 CURVE SMOOTH",
"787 663 OFFCURVE",
"721 729 OFFCURVE",
"546 729 CURVE SMOOTH",
"140 729 LINE",
"-12 0 LINE"
);
},
{
closed = 1;
nodes = (
"278 297 LINE",
"421 297 LINE SMOOTH",
"477 297 OFFCURVE",
"510 280 OFFCURVE",
"508 234 CURVE SMOOTH",
"506 180 OFFCURVE",
"469 155 OFFCURVE",
"394 155 CURVE SMOOTH",
"248 155 LINE"
);
},
{
closed = 1;
nodes = (
"335 573 LINE",
"471 573 LINE SMOOTH",
"520 573 OFFCURVE",
"548 557 OFFCURVE",
"547 518 CURVE SMOOTH",
"545 471 OFFCURVE",
"512 446 OFFCURVE",
"449 446 CURVE SMOOTH",
"310 446 LINE"
);
}
);
width = 777;
}
);
leftKerningGroup = B;
leftMetricsKey = H;
rightKerningGroup = B;
unicode = 0042;
},
{
glyphname = C;
lastChange = "2022-08-11 16:47:25 +0000";
layers = (
{
anchors = (
{
name = bottom;
position = "{244, 0}";
},
{
name = top;
position = "{244, 729}";
}
);
background = {
paths = (
{
closed = 1;
nodes = (
"-81 140 OFFCURVE",
"46 -10 OFFCURVE",
"281 -10 CURVE SMOOTH",
"499 -10 OFFCURVE",
"644 121 OFFCURVE",
"644 365 CURVE SMOOTH",
"644 587 OFFCURVE",
"518 738 OFFCURVE",
"281 738 CURVE SMOOTH",
"63 738 OFFCURVE",
"-81 607 OFFCURVE",
"-81 365 CURVE SMOOTH"
);
},
{
closed = 1;
nodes = (
"133 481 OFFCURVE",
"184 562 OFFCURVE",
"281 562 CURVE SMOOTH",
"371 562 OFFCURVE",
"431 491 OFFCURVE",
"431 365 CURVE SMOOTH",
"431 247 OFFCURVE",
"380 166 OFFCURVE",
"281 166 CURVE SMOOTH",
"192 166 OFFCURVE",
"133 235 OFFCURVE",
"133 365 CURVE SMOOTH"
);
}
);
};
layerId = "E787E54A-EE3E-475A-BF02-8501A6DA5144";
paths = (
{
closed = 1;
nodes = (
"393 -9 OFFCURVE",
"470 69 OFFCURVE",
"475 270 CURVE",
"305 270 LINE",
"301 190 OFFCURVE",
"294 147 OFFCURVE",
"256 147 CURVE SMOOTH",
"217 147 OFFCURVE",
"205 203 OFFCURVE",
"205 365 CURVE SMOOTH",
"205 515 OFFCURVE",
"214 583 OFFCURVE",
"256 583 CURVE SMOOTH",
"292 583 OFFCURVE",
"300 546 OFFCURVE",
"305 465 CURVE",
"475 465 LINE",
"466 668 OFFCURVE",
"391 739 OFFCURVE",
"255 739 CURVE SMOOTH",
"75 739 OFFCURVE",
"24 593 OFFCURVE",
"24 365 CURVE SMOOTH",
"24 136 OFFCURVE",
"73 -9 OFFCURVE",
"243 -9 CURVE SMOOTH"
);
}
);
width = 500;
},
{
anchors = (
{
name = bottom;
position = "{201, 0}";
},
{
name = top;
position = "{201, 729}";
}
);
background = {
paths = (
{
closed = 1;
nodes = (
"421 -8 OFFCURVE",
"518 71 OFFCURVE",
"532 238 CURVE",
"492 238 LINE",
"477 87 OFFCURVE",
"395 28 OFFCURVE",
"287 28 CURVE SMOOTH",
"133 28 OFFCURVE",
"69 150 OFFCURVE",
"69 337 CURVE SMOOTH",
"69 394 LINE SMOOTH",
"69 581 OFFCURVE",
"133 703 OFFCURVE",
"287 703 CURVE SMOOTH",
"395 703 OFFCURVE",
"477 644 OFFCURVE",
"492 493 CURVE",
"532 493 LINE",
"518 660 OFFCURVE",
"421 739 OFFCURVE",
"287 739 CURVE SMOOTH",
"100 739 OFFCURVE",
"28 605 OFFCURVE",
"28 366 CURVE SMOOTH",
"28 126 OFFCURVE",
"100 -8 OFFCURVE",
"287 -8 CURVE SMOOTH"
);
}
);
};
layerId = "5713303B-ED49-44A7-8230-B5CAE56DEB7E";
paths = (
{
closed = 1;
nodes = (
"292 -10 OFFCURVE",
"354 39 OFFCURVE",
"365 234 CURVE",
"333 234 LINE",
"323 88 OFFCURVE",
"290 19 OFFCURVE",
"202 19 CURVE SMOOTH",
"98 19 OFFCURVE",
"71 159 OFFCURVE",
"71 364 CURVE SMOOTH",
"71 570 OFFCURVE",
"98 709 OFFCURVE",
"203 709 CURVE SMOOTH",
"286 709 OFFCURVE",
"322 650 OFFCURVE",
"333 495 CURVE",
"365 495 LINE",
"357 642 OFFCURVE",
"324 739 OFFCURVE",
"203 738 CURVE SMOOTH",
"106 737 OFFCURVE",
"38 666 OFFCURVE",
"38 364 CURVE SMOOTH",
"38 65 OFFCURVE",
"106 -10 OFFCURVE",
"203 -10 CURVE SMOOTH"
);
}
);
width = 402;
},
{
anchors = (
{
name = bottom;
position = "{367, 0}";
},
{
name = top;
position = "{367, 729}";
}
);
layerId = master01;
paths = (
{
closed = 1;
nodes = (
"564 -8 OFFCURVE",
"689 87 OFFCURVE",
"710 237 CURVE",
"670 238 LINE",
"650 111 OFFCURVE",
"545 28 OFFCURVE",
"391 28 CURVE SMOOTH",
"202 28 OFFCURVE",
"87 162 OFFCURVE",
"87 364 CURVE SMOOTH",
"87 566 OFFCURVE",
"202 700 OFFCURVE",
"391 700 CURVE SMOOTH",
"544 700 OFFCURVE",
"648 615 OFFCURVE",
"670 494 CURVE",
"710 494 LINE",
"684 643 OFFCURVE",
"560 736 OFFCURVE",
"391 736 CURVE SMOOTH",
"184 736 OFFCURVE",
"46 586 OFFCURVE",
"46 364 CURVE SMOOTH",
"46 143 OFFCURVE",
"183 -8 OFFCURVE",
"391 -8 CURVE SMOOTH"
);
}
);
userData = {
com.schriftgestaltung.hints = (
{
horizontal = 1;
options = 0;
origin = (
0,
6
);
stem = -2;
target = (
0,
25
);
type = Stem;
},
{
horizontal = 1;
options = 0;
origin = (
0,
19
);
stem = -2;
target = (
0,
12
);
type = Stem;
},
{
horizontal = 0;
options = 0;
place = (
0,
0
);
stem = -2;
type = Stem;
}
);
};
width = 756;
},
{
anchors = (
{
name = bottom;
position = "{386, 0}";
},
{
name = top;
position = "{386, 729}";
}
);
background = {
paths = (
{
closed = 1;
nodes = (
"594 -10 OFFCURVE",
"738 98 OFFCURVE",
"755 259 CURVE",
"545 259 LINE",
"531 203 OFFCURVE",
"473 166 OFFCURVE",
"406 166 CURVE SMOOTH",
"308 166 OFFCURVE",
"244 222 OFFCURVE",
"244 365 CURVE SMOOTH",
"244 507 OFFCURVE",
"308 563 OFFCURVE",
"406 563 CURVE SMOOTH",
"478 563 OFFCURVE",
"529 525 OFFCURVE",
"545 471 CURVE",
"755 471 LINE",
"738 631 OFFCURVE",
"600 739 OFFCURVE",
"406 739 CURVE SMOOTH",
"181 739 OFFCURVE",
"31 608 OFFCURVE",
"31 365 CURVE SMOOTH",
"31 121 OFFCURVE",
"181 -10 OFFCURVE",
"406 -10 CURVE SMOOTH"
);
}
);
};
layerId = "1EDCBF6C-9964-4A28-BC87-E86B534B8BE7";
paths = (
{
closed = 1;
nodes = (
"594 -10 OFFCURVE",
"736 98 OFFCURVE",
"753 258 CURVE",
"548 258 LINE",
"534 200 OFFCURVE",
"474 162 OFFCURVE",
"405 162 CURVE SMOOTH",
"305 162 OFFCURVE",
"239 220 OFFCURVE",
"239 365 CURVE SMOOTH",
"239 509 OFFCURVE",
"305 567 OFFCURVE",
"405 567 CURVE SMOOTH",
"478 567 OFFCURVE",
"532 528 OFFCURVE",
"548 472 CURVE",
"753 472 LINE",
"736 631 OFFCURVE",
"599 739 OFFCURVE",
"405 739 CURVE SMOOTH",
"181 739 OFFCURVE",
"31 607 OFFCURVE",
"31 365 CURVE SMOOTH",
"31 122 OFFCURVE",
"181 -10 OFFCURVE",
"405 -10 CURVE SMOOTH"
);
}
);
width = 783;
},
{
anchors = (
{
name = bottom;
position = "{403, 0}";
},
{
name = top;
position = "{403, 729}";
}
);
layerId = "28A8A76A-23B4-40F5-83B9-DC51E48BF161";
paths = (
{
closed = 1;
nodes = (
"612 -8 OFFCURVE",
"750 87 OFFCURVE",
"773 237 CURVE",
"734 238 LINE",
"711 111 OFFCURVE",
"594 28 OFFCURVE",
"422 28 CURVE SMOOTH",
"210 28 OFFCURVE",
"81 162 OFFCURVE",
"81 364 CURVE SMOOTH",
"81 566 OFFCURVE",
"210 700 OFFCURVE",
"422 700 CURVE SMOOTH",
"587 700 OFFCURVE",
"708 620 OFFCURVE",
"734 494 CURVE",
"773 494 LINE",
"744 643 OFFCURVE",
"608 736 OFFCURVE",
"422 736 CURVE SMOOTH",
"193 736 OFFCURVE",
"41 587 OFFCURVE",
"41 364 CURVE SMOOTH",
"41 142 OFFCURVE",
"192 -8 OFFCURVE",
"422 -8 CURVE SMOOTH"
);
}
);
width = 811;
},
{
anchors = (
{
name = bottom;
position = "{430, 0}";
},
{
name = top;
position = "{430, 729}";
}
);
layerId = "D2144554-01B8-4B9B-B16A-E0E5B5794DFC";
paths = (
{
closed = 1;
nodes = (
"659 -10 OFFCURVE",
"823 97 OFFCURVE",
"842 259 CURVE",
"614 259 LINE",
"598 204 OFFCURVE",
"527 170 OFFCURVE",
"447 170 CURVE SMOOTH",
"330 170 OFFCURVE",
"253 230 OFFCURVE",
"253 365 CURVE SMOOTH",
"253 500 OFFCURVE",
"330 560 OFFCURVE",
"447 560 CURVE SMOOTH",
"528 560 OFFCURVE",
"595 524 OFFCURVE",
"612 471 CURVE",
"842 471 LINE",
"823 630 OFFCURVE",
"679 739 OFFCURVE",
"447 739 CURVE SMOOTH",
"176 739 OFFCURVE",
"22 592 OFFCURVE",
"22 365 CURVE SMOOTH",
"22 138 OFFCURVE",
"176 -10 OFFCURVE",
"447 -10 CURVE SMOOTH"
);
}
);
width = 863;
},
{
anchors = (
{
name = bottom;
position = "{149, 0}";
},
{
name = top;
position = "{281, 729}";
}
);
layerId = "23BA42C1-D468-4A44-9BE5-E18AE60B7926";
paths = (
{
closed = 1;
nodes = (
"231 -9 OFFCURVE",
"309 46 OFFCURVE",
"347 234 CURVE",
"316 234 LINE",
"284 100 OFFCURVE",
"239 20 OFFCURVE",
"153 20 CURVE SMOOTH",
"32 20 OFFCURVE",
"45 185 OFFCURVE",
"84 374 CURVE SMOOTH",
"130 593 OFFCURVE",
"187 708 OFFCURVE",
"277 708 CURVE SMOOTH",
"379 708 OFFCURVE",
"385 617 OFFCURVE",
"370 495 CURVE",
"401 495 LINE",
"424 652 OFFCURVE",
"395 738 OFFCURVE",
"281 738 CURVE SMOOTH",
"182 738 OFFCURVE",
"109 645 OFFCURVE",
"52 375 CURVE SMOOTH",
"10 177 OFFCURVE",
"-5 -9 OFFCURVE",
"150 -9 CURVE SMOOTH"
);
}
);
width = 399;
},
{
anchors = (
{
name = bottom;
position = "{191, 0}";
},
{
name = top;
position = "{340, 729}";
}
);
layerId = "2D4E69BA-A319-45D0-84B7-5297BCF4B7A0";
paths = (
{
closed = 1;
nodes = (
"337 -9 OFFCURVE",
"421 73 OFFCURVE",
"462 270 CURVE",
"294 270 LINE",
"273 187 OFFCURVE",
"257 145 OFFCURVE",
"221 147 CURVE SMOOTH",
"181 149 OFFCURVE",
"179 204 OFFCURVE",
"214 370 CURVE SMOOTH",
"245 522 OFFCURVE",
"269 584 OFFCURVE",
"310 582 CURVE SMOOTH",
"346 580 OFFCURVE",
"345 536 OFFCURVE",
"335 464 CURVE",
"501 464 LINE",
"527 641 OFFCURVE",
"482 739 OFFCURVE",
"321 739 CURVE SMOOTH",
"169 739 OFFCURVE",
"87 616 OFFCURVE",
"38 382 CURVE SMOOTH",
"-9 154 OFFCURVE",
"2 -9 OFFCURVE",
"203 -9 CURVE SMOOTH"
);
}
);
width = 489;
},
{
anchors = (
{
name = bottom;
position = "{331, 0}";
},
{
name = top;
position = "{441, 729}";
}
);
layerId = "095FE76F-1953-440B-9108-AA0678D151F9";
paths = (
{
closed = 1;
nodes = (
"493 -10 OFFCURVE",
"633 84 OFFCURVE",
"670 237 CURVE",
"632 237 LINE",
"597 112 OFFCURVE",
"485 27 OFFCURVE",
"337 27 CURVE SMOOTH",
"185 27 OFFCURVE",
"87 127 OFFCURVE",
"93 309 CURVE SMOOTH",
"101 547 OFFCURVE",
"236 703 OFFCURVE",
"436 703 CURVE SMOOTH",
"578 703 OFFCURVE",
"672 615 OFFCURVE",
"676 493 CURVE",
"711 493 LINE",
"710 638 OFFCURVE",
"601 739 OFFCURVE",
"444 739 CURVE SMOOTH",
"219 739 OFFCURVE",
"62 566 OFFCURVE",
"53 309 CURVE SMOOTH",
"47 118 OFFCURVE",
"157 -10 OFFCURVE",
"332 -10 CURVE SMOOTH"
);
}
);
width = 731;
},
{
anchors = (
{
name = bottom;
position = "{343, 0}";
},
{
name = top;
position = "{467, 729}";
}
);
layerId = "63AAE8D6-1DFF-4DD4-BD9A-49272FE52904";
paths = (
{
closed = 1;
nodes = (
"569 -9 OFFCURVE",
"700 93 OFFCURVE",
"728 255 CURVE",
"524 255 LINE",
"503 190 OFFCURVE",
"454 157 OFFCURVE",
"376 159 CURVE SMOOTH",
"299 161 OFFCURVE",
"245 215 OFFCURVE",
"249 329 CURVE SMOOTH",
"254 473 OFFCURVE",
"323 569 OFFCURVE",
"434 569 CURVE SMOOTH",
"507 569 OFFCURVE",
"560 531 OFFCURVE",
"567 469 CURVE",
"769 469 LINE",
"765 628 OFFCURVE",
"633 737 OFFCURVE",
"435 737 CURVE SMOOTH",
"209 737 OFFCURVE",
"51 580 OFFCURVE",
"42 337 CURVE SMOOTH",
"35 129 OFFCURVE",
"157 -9 OFFCURVE",
"386 -9 CURVE SMOOTH"
);
}
);
width = 771;
},
{
anchors = (
{
name = bottom;
position = "{388, 0}";
},
{
name = top;
position = "{472, 729}";
}
);
layerId = "C17B1F32-8075-45B4-AA59-7DAFF0D7E404";
paths = (
{
closed = 1;
nodes = (
"563 -9 OFFCURVE",
"711 80 OFFCURVE",
"759 236 CURVE",
"720 236 LINE",
"674 109 OFFCURVE",
"558 27 OFFCURVE",
"394 27 CURVE SMOOTH",
"208 27 OFFCURVE",
"86 133 OFFCURVE",
"93 330 CURVE SMOOTH",
"101 559 OFFCURVE",
"245 703 OFFCURVE",
"467 703 CURVE SMOOTH",
"620 703 OFFCURVE",
"737 620 OFFCURVE",
"759 497 CURVE",
"797 497 LINE",
"777 642 OFFCURVE",
"646 739 OFFCURVE",
"469 739 CURVE SMOOTH",
"229 739 OFFCURVE",
"62 575 OFFCURVE",
"53 333 CURVE SMOOTH",
"46 121 OFFCURVE",
"179 -9 OFFCURVE",
"389 -9 CURVE SMOOTH"
);
}
);
width = 812;
},
{
anchors = (
{
name = bottom;
position = "{402, 0}";
},
{
name = top;
position = "{507, 729}";
}
);
layerId = "377EF8AC-8B0D-46C2-96BB-3B5B69A8F571";
paths = (
{
closed = 1;
nodes = (
"633 -10 OFFCURVE",
"803 87 OFFCURVE",
"837 255 CURVE",
"606 255 LINE",
"585 199 OFFCURVE",
"515 169 OFFCURVE",
"437 169 CURVE SMOOTH",
"329 169 OFFCURVE",
"258 231 OFFCURVE",
"262 350 CURVE SMOOTH",
"266 470 OFFCURVE",
"337 561 OFFCURVE",
"472 561 CURVE SMOOTH",
"555 561 OFFCURVE",
"622 525 OFFCURVE",
"638 465 CURVE",
"868 465 LINE",
"859 628 OFFCURVE",
"706 738 OFFCURVE",
"480 738 CURVE SMOOTH",
"220 738 OFFCURVE",
"41 580 OFFCURVE",
"33 341 CURVE SMOOTH",
"25 128 OFFCURVE",
"170 -10 OFFCURVE",
"423 -10 CURVE SMOOTH"
);
}
);
width = 871;
}
);
leftKerningGroup = C;
rightKerningGroup = C;
unicode = 0043;
},
{
glyphname = D;
lastChange = "2022-08-11 19:19:33 +0000";
layers = (
{
layerId = "E787E54A-EE3E-475A-BF02-8501A6DA5144";
paths = (
{
closed = 1;
nodes = (
"190 0 LINE SMOOTH",
"424 0 OFFCURVE",
"474 149 OFFCURVE",
"474 364 CURVE SMOOTH",
"474 634 OFFCURVE",
"380 729 OFFCURVE",
"190 729 CURVE SMOOTH",
"28 729 LINE",
"28 0 LINE"
);
},
{
closed = 1;
nodes = (
"207 572 LINE",
"222 572 LINE SMOOTH",
"276 572 OFFCURVE",
"294 524 OFFCURVE",
"294 368 CURVE SMOOTH",
"294 227 OFFCURVE",
"284 157 OFFCURVE",
"222 157 CURVE SMOOTH",
"207 157 LINE"
);
}
);
width = 498;
},
{
layerId = "5713303B-ED49-44A7-8230-B5CAE56DEB7E";
paths = (
{
closed = 1;
nodes = (
"172 0 LINE SMOOTH",
"327 0 OFFCURVE",
"379 150 OFFCURVE",
"379 365 CURVE SMOOTH",
"379 581 OFFCURVE",
"323 729 OFFCURVE",
"172 729 CURVE SMOOTH",
"65 729 LINE",
"65 0 LINE"
);
},
{
closed = 1;
nodes = (
"96 701 LINE",
"173 701 LINE SMOOTH",
"276 701 OFFCURVE",
"346 620 OFFCURVE",
"346 365 CURVE SMOOTH",
"346 109 OFFCURVE",
"276 28 OFFCURVE",
"173 28 CURVE SMOOTH",
"96 28 LINE"
);
}
);
width = 417;
},
{
layerId = master01;
paths = (
{
closed = 1;
nodes = (
"373 0 LINE SMOOTH",
"573 0 OFFCURVE",
"694 144 OFFCURVE",
"694 364 CURVE SMOOTH",
"694 585 OFFCURVE",
"573 729 OFFCURVE",
"373 729 CURVE SMOOTH",
"103 729 LINE",
"103 0 LINE"
);
},
{
closed = 1;
nodes = (
"141 693 LINE",
"372 693 LINE SMOOTH",
"544 693 OFFCURVE",
"654 570 OFFCURVE",
"654 365 CURVE SMOOTH",
"654 167 OFFCURVE",
"549 37 OFFCURVE",
"372 37 CURVE SMOOTH",
"141 37 LINE"
);
}
);
userData = {
com.schriftgestaltung.Glyphs.glyph.leftMetricsKey = H;
com.schriftgestaltung.hints = (
{
horizontal = 1;
options = 0;
origin = (
1,
8
);
stem = -2;
target = (
0,
8
);
type = Stem;
},
{
horizontal = 1;
options = 0;
origin = (
0,
7
);
stem = -2;
target = (
1,
0
);
type = Stem;
},
{
horizontal = 0;
options = 0;
origin = (
0,
8
);
stem = -2;
target = (
1,
8
);
type = Stem;
},
{
horizontal = 0;
options = 0;
origin = (
1,
4
);
stem = -2;
target = (
0,
3
);
type = Stem;
}
);
};
width = 740;
},
{
background = {
paths = (
{
closed = 1;
nodes = (
"398 0 LINE SMOOTH",
"622 0 OFFCURVE",
"740 147 OFFCURVE",
"740 364 CURVE SMOOTH",
"740 581 OFFCURVE",
"623 729 OFFCURVE",
"398 729 CURVE SMOOTH",
"69 729 LINE",
"69 0 LINE"
);
},
{
closed = 1;
nodes = (
"272 557 LINE",
"362 557 LINE SMOOTH",
"457 557 OFFCURVE",
"528 527 OFFCURVE",
"528 368 CURVE SMOOTH",
"528 198 OFFCURVE",
"453 172 OFFCURVE",
"362 172 CURVE SMOOTH",
"272 172 LINE"
);
}
);
};
layerId = "1EDCBF6C-9964-4A28-BC87-E86B534B8BE7";
paths = (
{
closed = 1;
nodes = (
"396 0 LINE SMOOTH",
"619 0 OFFCURVE",
"738 147 OFFCURVE",
"738 364 CURVE SMOOTH",
"738 581 OFFCURVE",
"620 729 OFFCURVE",
"396 729 CURVE SMOOTH",
"69 729 LINE",
"69 0 LINE"
);
},
{
closed = 1;
nodes = (
"272 558 LINE",
"361 558 LINE SMOOTH",
"458 558 OFFCURVE",
"531 526 OFFCURVE",
"531 368 CURVE SMOOTH",
"531 200 OFFCURVE",
"454 171 OFFCURVE",
"361 171 CURVE SMOOTH",
"272 171 LINE"
);
}
);
userData = {
com.schriftgestaltung.Glyphs.glyph.leftMetricsKey = H;
};
width = 769;
},
{
layerId = "28A8A76A-23B4-40F5-83B9-DC51E48BF161";
paths = (
{
closed = 1;
nodes = (
"379 0 LINE SMOOTH",
"607 0 OFFCURVE",
"747 144 OFFCURVE",
"747 364 CURVE SMOOTH",
"747 585 OFFCURVE",
"607 729 OFFCURVE",
"379 729 CURVE SMOOTH",
"71 729 LINE",
"71 0 LINE"
);
},
{
closed = 1;
nodes = (
"109 693 LINE",
"379 693 LINE SMOOTH",
"580 693 OFFCURVE",
"708 570 OFFCURVE",
"708 365 CURVE SMOOTH",
"708 167 OFFCURVE",
"586 37 OFFCURVE",
"379 37 CURVE SMOOTH",
"109 37 LINE"
);
}
);
width = 788;
},
{
layerId = "D2144554-01B8-4B9B-B16A-E0E5B5794DFC";
paths = (
{
closed = 1;
nodes = (
"422 0 LINE SMOOTH",
"659 0 OFFCURVE",
"812 121 OFFCURVE",
"812 364 CURVE SMOOTH",
"812 583 OFFCURVE",
"686 729 OFFCURVE",
"422 729 CURVE SMOOTH",
"54 729 LINE",
"54 0 LINE"
);
},
{
closed = 1;
nodes = (
"282 554 LINE",
"375 554 LINE SMOOTH",
"497 554 OFFCURVE",
"581 513 OFFCURVE",
"581 368 CURVE SMOOTH",
"581 244 OFFCURVE",
"527 175 OFFCURVE",
"375 175 CURVE SMOOTH",
"282 175 LINE"
);
}
);
width = 834;
},
{
layerId = "23BA42C1-D468-4A44-9BE5-E18AE60B7926";
paths = (
{
closed = 1;
nodes = (
"106 0 LINE SMOOTH",
"264 0 OFFCURVE",
"398 221 OFFCURVE",
"408 516 CURVE SMOOTH",
"413 655 OFFCURVE",
"362 729 OFFCURVE",
"258 729 CURVE SMOOTH",
"151 729 LINE",
"0 0 LINE"
);
},
{
closed = 1;
nodes = (
"176 699 LINE",
"253 699 LINE SMOOTH",
"336 699 OFFCURVE",
"381 643 OFFCURVE",
"377 520 CURVE SMOOTH",
"367 248 OFFCURVE",
"250 30 OFFCURVE",
"113 30 CURVE SMOOTH",
"37 30 LINE"
);
}
);
width = 416;
},
{
layerId = "2D4E69BA-A319-45D0-84B7-5297BCF4B7A0";
paths = (
{
closed = 1;
nodes = (
"124 0 LINE SMOOTH",
"370 0 OFFCURVE",
"440 148 OFFCURVE",
"481 360 CURVE SMOOTH",
"529 612 OFFCURVE",
"457 729 OFFCURVE",
"257 729 CURVE SMOOTH",
"114 729 LINE",
"-37 0 LINE"
);
},
{
closed = 1;
nodes = (
"260 572 LINE",
"275 572 LINE SMOOTH",
"327 572 OFFCURVE",
"333 534 OFFCURVE",
"304 371 CURVE SMOOTH",
"277 220 OFFCURVE",
"243 157 OFFCURVE",
"193 157 CURVE SMOOTH",
"174 157 LINE"
);
}
);
width = 491;
},
{
layerId = "095FE76F-1953-440B-9108-AA0678D151F9";
paths = (
{
closed = 1;
nodes = (
"317 0 LINE SMOOTH",
"536 0 OFFCURVE",
"691 169 OFFCURVE",
"700 418 CURVE SMOOTH",
"706 604 OFFCURVE",
"597 729 OFFCURVE",
"418 729 CURVE SMOOTH",
"190 729 LINE",
"39 0 LINE"
);
},
{
closed = 1;
nodes = (
"220 693 LINE",
"417 693 LINE SMOOTH",
"570 693 OFFCURVE",
"665 593 OFFCURVE",
"659 419 CURVE SMOOTH",
"651 189 OFFCURVE",
"516 36 OFFCURVE",
"321 36 CURVE SMOOTH",
"82 36 LINE"
);
}
);
width = 709;
},
{
layerId = "63AAE8D6-1DFF-4DD4-BD9A-49272FE52904";
paths = (
{
closed = 1;
nodes = (
"316 0 LINE SMOOTH",
"563 0 OFFCURVE",
"726 166 OFFCURVE",
"735 428 CURVE SMOOTH",
"741 609 OFFCURVE",
"633 729 OFFCURVE",
"445 729 CURVE SMOOTH",
"154 729 LINE",
"3 0 LINE"
);
},
{
closed = 1;
nodes = (
"320 561 LINE",
"397 561 LINE SMOOTH",
"477 561 OFFCURVE",
"531 518 OFFCURVE",
"527 414 CURVE SMOOTH",
"522 255 OFFCURVE",
"446 168 OFFCURVE",
"316 168 CURVE SMOOTH",
"239 168 LINE"
);
}
);
width = 733;
},
{
layerId = "C17B1F32-8075-45B4-AA59-7DAFF0D7E404";
paths = (
{
closed = 1;
nodes = (
"314 0 LINE SMOOTH",
"583 0 OFFCURVE",
"750 153 OFFCURVE",
"759 410 CURVE SMOOTH",
"766 624 OFFCURVE",
"627 729 OFFCURVE",
"407 729 CURVE SMOOTH",
"158 729 LINE",
"7 0 LINE"
);
},
{
closed = 1;
nodes = (
"189 693 LINE",
"403 693 LINE SMOOTH",
"627 693 OFFCURVE",
"724 582 OFFCURVE",
"718 410 CURVE SMOOTH",
"710 179 OFFCURVE",
"570 37 OFFCURVE",
"329 37 CURVE SMOOTH",
"52 37 LINE"
);
}
);
width = 787;
},
{
layerId = "377EF8AC-8B0D-46C2-96BB-3B5B69A8F571";
paths = (
{
closed = 1;
nodes = (
"359 0 LINE SMOOTH",
"635 0 OFFCURVE",
"811 158 OFFCURVE",
"820 410 CURVE SMOOTH",
"828 623 OFFCURVE",
"687 729 OFFCURVE",
"465 729 CURVE SMOOTH",
"139 729 LINE",
"-12 0 LINE"
);
},
{
closed = 1;
nodes = (
"329 554 LINE",
"426 554 LINE SMOOTH",
"527 554 OFFCURVE",
"593 509 OFFCURVE",
"589 398 CURVE SMOOTH",
"584 260 OFFCURVE",
"500 175 OFFCURVE",
"365 175 CURVE SMOOTH",
"251 175 LINE"
);
}
);
width = 831;
}
);
leftKerningGroup = B;
leftMetricsKey = H;
rightKerningGroup = C;
rightMetricsKey = O;
unicode = 0044;
},
{
glyphname = Eth;
lastChange = "2022-08-11 16:47:25 +0000";
layers = (
{
components = (
{
name = D;
}
);
layerId = "5713303B-ED49-44A7-8230-B5CAE56DEB7E";
paths = (
{
closed = 1;
nodes = (
"220.776 351 LINE",
"220.776 378 LINE",
"5.054 378 LINE",
"5.054 351 LINE"
);
}
);
width = 416;
},
{
components = (
{
name = D;
}
);
layerId = "E787E54A-EE3E-475A-BF02-8501A6DA5144";
paths = (
{
closed = 1;
nodes = (
"261 295 LINE",
"261 434 LINE",
"-4 434 LINE",
"-4 295 LINE"
);
}
);
width = 498;
},
{
components = (
{
name = D;
}
);
layerId = master01;
paths = (
{
closed = 1;
nodes = (
"325 348 LINE",
"325 381 LINE",
"2 381 LINE",
"2 348 LINE"
);
}
);
width = 741;
},
{
components = (
{
name = D;
}
);
layerId = "1EDCBF6C-9964-4A28-BC87-E86B534B8BE7";
paths = (
{
closed = 1;
nodes = (
"377 295 LINE",
"377 434 LINE",
"10 434 LINE",
"10 295 LINE"
);
}
);
width = 769;
},
{
components = (
{
name = D;
}
);
layerId = "28A8A76A-23B4-40F5-83B9-DC51E48BF161";
paths = (
{
closed = 1;
nodes = (
"306 348 LINE",
"306 381 LINE",
"-17 381 LINE",
"-17 348 LINE"
);
}
);
width = 789;
},
{
components = (
{
name = D;
}
);
layerId = "D2144554-01B8-4B9B-B16A-E0E5B5794DFC";
paths = (
{
closed = 1;
nodes = (
"359 295 LINE",
"359 434 LINE",
"-8 434 LINE",
"-8 295 LINE"
);
}
);
width = 834;
},
{
components = (
{
name = D;
}
);
layerId = "23BA42C1-D468-4A44-9BE5-E18AE60B7926";
paths = (
{
closed = 1;
nodes = (
"232 351 LINE",
"238 378 LINE",
"18 378 LINE",
"12 351 LINE"
);
}
);
width = 416;
},
{
components = (
{
name = D;
}
);
layerId = "2D4E69BA-A319-45D0-84B7-5297BCF4B7A0";
paths = (
{
closed = 1;
nodes = (
"252 295 LINE",
"281 434 LINE",
"18 434 LINE",
"-11 295 LINE"
);
}
);
width = 491;
},
{
components = (
{
name = D;
}
);
layerId = "095FE76F-1953-440B-9108-AA0678D151F9";
paths = (
{
closed = 1;
nodes = (
"315 348 LINE",
"321 381 LINE",
"1 381 LINE",
"-5 348 LINE"
);
}
);
width = 731;
},
{
components = (
{
name = D;
}
);
layerId = "63AAE8D6-1DFF-4DD4-BD9A-49272FE52904";
paths = (
{
closed = 1;
nodes = (
"354 310 LINE",
"379 449 LINE",
"16 449 LINE",
"-9 310 LINE"
);
}
);
width = 753;
},
{
components = (
{
name = D;
}
);
layerId = "C17B1F32-8075-45B4-AA59-7DAFF0D7E404";
paths = (
{
closed = 1;
nodes = (
"333 348 LINE",
"340 381 LINE",
"20 381 LINE",
"13 348 LINE"
);
}
);
width = 787;
},
{
components = (
{
name = D;
}
);
layerId = "377EF8AC-8B0D-46C2-96BB-3B5B69A8F571";
paths = (
{
closed = 1;
nodes = (
"358 311 LINE",
"390 450 LINE",
"27 450 LINE",
"-5 311 LINE"
);
}
);
width = 831;
}
);
leftKerningGroup = B;
rightKerningGroup = C;
unicode = 00D0;
},
{
glyphname = E;
lastChange = "2022-08-11 20:03:59 +0000";
layers = (
{
anchors = (
{
name = bottom;
position = "{186, 0}";
},
{
name = ogonek;
position = "{330, 10}";
},
{
name = top;
position = "{186, 729}";
},
{
name = topleft;
position = "{26, 729}";
}
);
layerId = "E787E54A-EE3E-475A-BF02-8501A6DA5144";
paths = (
{
closed = 1;
nodes = (
"360 0 LINE",
"360 157 LINE",
"180 157 LINE",
"205 132 LINE",
"205 324 LINE",
"180 299 LINE",
"346 299 LINE",
"346 445 LINE",
"180 445 LINE",
"205 420 LINE",
"205 597 LINE",
"180 572 LINE",
"360 572 LINE",
"360 729 LINE",
"28 729 LINE",
"28 0 LINE"
);
}
);
width = 378;
},
{
anchors = (
{
name = bottom;
position = "{166, 0}";
},
{
name = ogonek;
position = "{298, 10}";
},
{
name = top;
position = "{166, 729}";
},
{
name = topleft;
position = "{20, 729}";
}
);
layerId = "5713303B-ED49-44A7-8230-B5CAE56DEB7E";
paths = (
{
closed = 1;
nodes = (
"301 0 LINE",
"301 28 LINE",
"91 28 LINE",
"96 23 LINE",
"96 366 LINE",
"91 361 LINE",
"270 361 LINE",
"270 389 LINE",
"91 389 LINE",
"96 384 LINE",
"96 706 LINE",
"91 701 LINE",
"301 701 LINE",
"301 729 LINE",
"65 729 LINE",
"65 0 LINE"
);
}
);
width = 321;
},
{
anchors = (
{
name = bottom;
position = "{329, 0}";
},
{
name = ogonek;
position = "{590, 10}";
},
{
name = top;
position = "{329, 729}";
},
{
name = topleft;
position = "{22, 729}";
}
);
layerId = master01;
paths = (
{
closed = 1;
nodes = (
"584 0 LINE",
"584 37 LINE",
"130 37 LINE",
"141 26 LINE",
"141 369 LINE",
"130 358 LINE",
"536 358 LINE",
"536 392 LINE",
"130 392 LINE",
"141 381 LINE",
"141 704 LINE",
"130 693 LINE",
"584 693 LINE",
"584 729 LINE",
"103 729 LINE",
"103 0 LINE"
);
}
);
userData = {
com.schriftgestaltung.Glyphs.glyph.leftMetricsKey = H;
com.schriftgestaltung.hints = (
{
horizontal = 1;
options = 0;
origin = (
0,
2
);
stem = -2;
target = (
0,
11
);
type = Stem;
},
{
horizontal = 1;
options = 0;
origin = (
0,
6
);
stem = -2;
target = (
0,
3
);
type = Stem;
},
{
horizontal = 1;
options = 0;
origin = (
0,
10
);
stem = -2;
target = (
0,
7
);
type = Stem;
},
{
horizontal = 0;
options = 0;
origin = (
0,
11
);
stem = -2;
target = (
0,
2
);
type = Stem;
}
);
};
width = 638;
},
{
anchors = (
{
name = bottom;
position = "{336, 0}";
},
{
name = ogonek;
position = "{597, 10}";
},
{
name = top;
position = "{336, 729}";
},
{
name = topleft;
position = "{29, 729}";
}
);
layerId = "1EDCBF6C-9964-4A28-BC87-E86B534B8BE7";
paths = (
{
closed = 1;
nodes = (
"622 0 LINE",
"622 172 LINE",
"230 172 LINE",
"272 130 LINE",
"272 330 LINE",
"230 288 LINE",
"569 288 LINE",
"569 449 LINE",
"230 449 LINE",
"272 407 LINE",
"272 599 LINE",
"230 557 LINE",
"619 557 LINE",
"619 729 LINE",
"69 729 LINE",
"69 0 LINE"
);
}
);
userData = {
com.schriftgestaltung.Glyphs.glyph.leftMetricsKey = H;
};
width = 667;
},
{
anchors = (
{
name = bottom;
position = "{330, 0}";
},
{
name = ogonek;
position = "{592, 10}";
},
{
name = top;
position = "{330, 729}";
},
{
name = topleft;
position = "{22, 729}";
}
);
layerId = "28A8A76A-23B4-40F5-83B9-DC51E48BF161";
paths = (
{
closed = 1;
nodes = (
"637 0 LINE",
"637 37 LINE",
"84 37 LINE",
"109 12 LINE",
"109 373 LINE",
"94 358 LINE",
"589 358 LINE",
"589 392 LINE",
"94 392 LINE",
"109 377 LINE",
"109 718 LINE",
"84 693 LINE",
"637 693 LINE",
"637 729 LINE",
"71 729 LINE",
"71 0 LINE"
);
}
);
width = 669;
},
{
anchors = (
{
name = bottom;
position = "{367, 0}";
},
{
name = ogonek;
position = "{652, 10}";
},
{
name = top;
position = "{367, 729}";
},
{
name = topleft;
position = "{31, 729}";
}
);
layerId = "D2144554-01B8-4B9B-B16A-E0E5B5794DFC";
paths = (
{
closed = 1;
nodes = (
"695 0 LINE",
"695 179 LINE",
"238 179 LINE",
"283 134 LINE",
"283 327 LINE",
"238 282 LINE",
"642 282 LINE",
"642 449 LINE",
"238 449 LINE",
"283 404 LINE",
"283 595 LINE",
"238 550 LINE",
"692 550 LINE",
"692 729 LINE",
"54 729 LINE",
"54 0 LINE"
);
}
);
width = 722;
},
{
anchors = (
{
name = bottom;
position = "{107, 0}";
},
{
name = ogonek;
position = "{236, 10}";
},
{
name = top;
position = "{258, 729}";
},
{
name = topleft;
position = "{118, 729}";
}
);
layerId = "23BA42C1-D468-4A44-9BE5-E18AE60B7926";
paths = (
{
closed = 1;
nodes = (
"234 0 LINE",
"240 28 LINE",
"27 28 LINE",
"35 17 LINE",
"109 373 LINE",
"92 361 LINE",
"279 361 LINE",
"284 389 LINE",
"100 389 LINE",
"110 378 LINE",
"180 714 LINE",
"164 701 LINE",
"380 701 LINE",
"385 729 LINE",
"151 729 LINE",
"0 0 LINE"
);
}
);
width = 319;
},
{
anchors = (
{
name = bottom;
position = "{132, 0}";
},
{
name = ogonek;
position = "{284, 10}";
},
{
name = top;
position = "{283, 729}";
},
{
name = topleft;
position = "{115, 729}";
}
);
layerId = "2D4E69BA-A319-45D0-84B7-5297BCF4B7A0";
paths = (
{
closed = 1;
nodes = (
"292 0 LINE",
"324 157 LINE",
"125 157 LINE",
"161 113 LINE",
"209 343 LINE",
"155 299 LINE",
"339 299 LINE",
"370 445 LINE",
"185 445 LINE",
"221 401 LINE",
"265 616 LINE",
"211 572 LINE",
"412 572 LINE",
"443 729 LINE",
"115 729 LINE",
"-37 0 LINE"
);
}
);
width = 375;
},
{
anchors = (
{
name = bottom;
position = "{258, 0}";
},
{
name = ogonek;
position = "{511, 10}";
},
{
name = top;
position = "{409, 729}";
},
{
name = topleft;
position = "{117, 729}";
}
);
layerId = "095FE76F-1953-440B-9108-AA0678D151F9";
paths = (
{
closed = 1;
nodes = (
"505 0 LINE",
"512 36 LINE",
"72 36 LINE",
"79 22 LINE",
"154 373 LINE",
"133 358 LINE",
"534 358 LINE",
"541 393 LINE",
"147 393 LINE",
"156 384 LINE",
"223 710 LINE",
"208 693 LINE",
"649 693 LINE",
"656 729 LINE",
"190 729 LINE",
"39 0 LINE"
);
}
);
width = 624;
},
{
anchors = (
{
name = bottom;
position = "{270, 0}";
},
{
name = ogonek;
position = "{533, 10}";
},
{
name = top;
position = "{421, 729}";
},
{
name = topleft;
position = "{115, 729}";
}
);
layerId = "63AAE8D6-1DFF-4DD4-BD9A-49272FE52904";
paths = (
{
closed = 1;
nodes = (
"541 0 LINE",
"576 172 LINE",
"195 172 LINE",
"231 128 LINE",
"272 329 LINE",
"218 285 LINE",
"549 285 LINE",
"582 446 LINE",
"251 446 LINE",
"287 402 LINE",
"328 601 LINE",
"274 557 LINE",
"653 557 LINE",
"689 729 LINE",
"154 729 LINE",
"3 0 LINE"
);
}
);
width = 652;
},
{
anchors = (
{
name = bottom;
position = "{277, 0}";
},
{
name = ogonek;
position = "{545, 10}";
},
{
name = top;
position = "{428, 729}";
},
{
name = topleft;
position = "{117, 729}";
}
);
layerId = "C17B1F32-8075-45B4-AA59-7DAFF0D7E404";
paths = (
{
closed = 1;
nodes = (
"565 0 LINE",
"573 37 LINE",
"37 37 LINE",
"49 21 LINE",
"120 366 LINE",
"111 358 LINE",
"594 358 LINE",
"601 392 LINE",
"119 392 LINE",
"125 384 LINE",
"194 715 LINE",
"170 693 LINE",
"709 693 LINE",
"716 729 LINE",
"158 729 LINE",
"7 0 LINE"
);
}
);
width = 662;
},
{
anchors = (
{
name = bottom;
position = "{302, 0}";
},
{
name = ogonek;
position = "{590, 10}";
},
{
name = top;
position = "{453, 729}";
},
{
name = topleft;
position = "{115, 729}";
}
);
layerId = "377EF8AC-8B0D-46C2-96BB-3B5B69A8F571";
paths = (
{
closed = 1;
nodes = (
"622 0 LINE",
"659 179 LINE",
"207 179 LINE",
"243 135 LINE",
"283 326 LINE",
"229 282 LINE",
"628 282 LINE",
"663 449 LINE",
"264 449 LINE",
"300 405 LINE",
"339 594 LINE",
"285 550 LINE",
"733 550 LINE",
"770 729 LINE",
"139 729 LINE",
"-12 0 LINE"
);
}
);
width = 716;
}
);
leftKerningGroup = B;
leftMetricsKey = H;
rightKerningGroup = AE;
unicode = 0045;
},
{
glyphname = F;
lastChange = "2022-08-11 17:00:03 +0000";
layers = (
{
layerId = "E787E54A-EE3E-475A-BF02-8501A6DA5144";
paths = (
{
closed = 1;
nodes = (
"214 0 LINE",
"214 286 LINE",
"199 271 LINE",
"343 271 LINE",
"343 420 LINE",
"199 420 LINE",
"214 405 LINE",
"214 587 LINE",
"199 572 LINE",
"361 572 LINE",
"361 729 LINE",
"28 729 LINE",
"28 0 LINE"
);
}
);
width = 370;
},
{
layerId = "5713303B-ED49-44A7-8230-B5CAE56DEB7E";
paths = (
{
closed = 1;
nodes = (
"96 0 LINE",
"96 363 LINE",
"86 353 LINE",
"263 353 LINE",
"263 382 LINE",
"86 382 LINE",
"96 372 LINE",
"96 715 LINE",
"81 700 LINE",
"288 700 LINE",
"288 729 LINE",
"65 729 LINE",
"65 0 LINE"
);
}
);
width = 310;
},
{
layerId = master01;
paths = (
{
closed = 1;
nodes = (
"141 0 LINE",
"141 360 LINE",
"130 349 LINE",
"542 349 LINE",
"542 384 LINE",
"130 384 LINE",
"141 373 LINE",
"141 704 LINE",
"130 693 LINE",
"582 693 LINE",
"582 729 LINE",
"103 729 LINE",
"103 0 LINE"
);
}
);
userData = {
com.schriftgestaltung.hints = (
{
horizontal = 1;
options = 0;
origin = (
0,
9
);
stem = -2;
target = (
u,
p
);
type = BottomGhost;
},
{
horizontal = 1;
options = 0;
origin = (
0,
4
);
stem = -2;
target = (
0,
1
);
type = Stem;
},
{
horizontal = 1;
options = 0;
origin = (
0,
8
);
stem = -2;
target = (
0,
5
);
type = Stem;
},
{
horizontal = 0;
options = 0;
origin = (
0,
9
);
stem = -2;
target = (
0,
0
);
type = Stem;
}
);
};
width = 616;
},
{
layerId = "1EDCBF6C-9964-4A28-BC87-E86B534B8BE7";
paths = (
{
closed = 1;
nodes = (
"272 0 LINE",
"272 293 LINE",
"240 261 LINE",
"578 261 LINE",
"578 424 LINE",
"240 424 LINE",
"272 392 LINE",
"272 589 LINE",
"240 557 LINE",
"618 557 LINE",
"618 729 LINE",
"69 729 LINE",
"69 0 LINE"
);
}
);
width = 640;
},
{
layerId = "28A8A76A-23B4-40F5-83B9-DC51E48BF161";
paths = (
{
closed = 1;
nodes = (
"109 0 LINE",
"109 364 LINE",
"94 349 LINE",
"595 349 LINE",
"595 384 LINE",
"94 384 LINE",
"109 369 LINE",
"109 708 LINE",
"94 693 LINE",
"635 693 LINE",
"635 729 LINE",
"71 729 LINE",
"71 0 LINE"
);
}
);
width = 660;
},
{
layerId = "D2144554-01B8-4B9B-B16A-E0E5B5794DFC";
paths = (
{
closed = 1;
nodes = (
"283 0 LINE",
"283 272 LINE",
"268 257 LINE",
"624 257 LINE",
"624 426 LINE",
"268 426 LINE",
"283 411 LINE",
"283 565 LINE",
"268 550 LINE",
"664 550 LINE",
"664 729 LINE",
"54 729 LINE",
"54 0 LINE"
);
}
);
width = 680;
},
{
layerId = "23BA42C1-D468-4A44-9BE5-E18AE60B7926";
paths = (
{
closed = 1;
nodes = (
"31 0 LINE",
"105 364 LINE",
"89 353 LINE",
"269 353 LINE",
"275 382 LINE",
"99 382 LINE",
"107 370 LINE",
"179 714 LINE",
"164 700 LINE",
"366 700 LINE",
"372 729 LINE",
"151 729 LINE",
"0 0 LINE"
);
}
);
width = 306;
},
{
layerId = "2D4E69BA-A319-45D0-84B7-5297BCF4B7A0";
paths = (
{
closed = 1;
nodes = (
"148 0 LINE",
"214 315 LINE",
"160 271 LINE",
"332 271 LINE",
"363 420 LINE",
"191 420 LINE",
"227 376 LINE",
"275 616 LINE",
"221 572 LINE",
"410 572 LINE",
"444 729 LINE",
"115 729 LINE",
"-37 0 LINE"
);
}
);
width = 368;
},
{
layerId = "095FE76F-1953-440B-9108-AA0678D151F9";
paths = (
{
closed = 1;
nodes = (
"76 0 LINE",
"152 363 LINE",
"131 349 LINE",
"538 349 LINE",
"544 384 LINE",
"144 384 LINE",
"153 373 LINE",
"223 706 LINE",
"208 693 LINE",
"648 693 LINE",
"655 729 LINE",
"190 729 LINE",
"39 0 LINE"
);
}
);
width = 601;
},
{
layerId = "63AAE8D6-1DFF-4DD4-BD9A-49272FE52904";
paths = (
{
closed = 1;
nodes = (
"204 0 LINE",
"267 306 LINE",
"213 262 LINE",
"542 262 LINE",
"576 425 LINE",
"247 425 LINE",
"283 381 LINE",
"328 601 LINE",
"274 557 LINE",
"642 557 LINE",
"678 729 LINE",
"154 729 LINE",
"3 0 LINE"
);
}
);
width = 615;
},
{
layerId = "C17B1F32-8075-45B4-AA59-7DAFF0D7E404";
paths = (
{
closed = 1;
nodes = (
"45 0 LINE",
"119 361 LINE",
"104 349 LINE",
"597 349 LINE",
"603 384 LINE",
"114 384 LINE",
"121 374 LINE",
"191 705 LINE",
"176 693 LINE",
"707 693 LINE",
"714 729 LINE",
"158 729 LINE",
"7 0 LINE"
);
}
);
width = 651;
},
{
layerId = "377EF8AC-8B0D-46C2-96BB-3B5B69A8F571";
paths = (
{
closed = 1;
nodes = (
"215 0 LINE",
"277 301 LINE",
"223 257 LINE",
"603 257 LINE",
"639 426 LINE",
"259 426 LINE",
"295 382 LINE",
"339 594 LINE",
"285 550 LINE",
"703 550 LINE",
"740 729 LINE",
"139 729 LINE",
"-12 0 LINE"
);
}
);
width = 671;
}
);
leftKerningGroup = B;
leftMetricsKey = H;
rightKerningGroup = F;
unicode = 0046;
},
{
glyphname = G;
lastChange = "2022-08-11 17:00:24 +0000";
layers = (
{
anchors = (
{
name = bottom;
position = "{250, 0}";
},
{
name = top;
position = "{250, 729}";
}
);
background = {
paths = (
{
closed = 1;
nodes = (
"435 -9 OFFCURVE",
"486 136 OFFCURVE",
"486 365 CURVE SMOOTH",
"486 594 OFFCURVE",
"435 739 OFFCURVE",
"255 739 CURVE SMOOTH",
"76 739 OFFCURVE",
"24 595 OFFCURVE",
"24 365 CURVE SMOOTH",
"24 135 OFFCURVE",
"76 -9 OFFCURVE",
"255 -9 CURVE SMOOTH"
);
},
{
closed = 1;
nodes = (
"217 147 OFFCURVE",
"205 202 OFFCURVE",
"205 365 CURVE SMOOTH",
"205 515 OFFCURVE",
"213 583 OFFCURVE",
"255 583 CURVE SMOOTH",
"293 583 OFFCURVE",
"306 529 OFFCURVE",
"306 365 CURVE SMOOTH",
"306 217 OFFCURVE",
"298 147 OFFCURVE",
"255 147 CURVE SMOOTH"
);
}
);
};
layerId = "E787E54A-EE3E-475A-BF02-8501A6DA5144";
paths = (
{
closed = 1;
nodes = (
"388 -9 OFFCURVE",
"475 74 OFFCURVE",
"475 249 CURVE SMOOTH",
"475 399 LINE",
"257 399 LINE",
"257 264 LINE",
"348 264 LINE",
"305 307 LINE",
"305 254 LINE SMOOTH",
"305 185 OFFCURVE",
"296 147 OFFCURVE",
"260 147 CURVE SMOOTH",
"216 147 OFFCURVE",
"205 192 OFFCURVE",
"205 370 CURVE SMOOTH",
"205 540 OFFCURVE",
"216 583 OFFCURVE",
"258 583 CURVE SMOOTH",
"289 583 OFFCURVE",
"305 555 OFFCURVE",
"305 465 CURVE",
"475 465 LINE",
"476 640 OFFCURVE",
"408 739 OFFCURVE",
"260 739 CURVE SMOOTH",
"120 739 OFFCURVE",
"24 662 OFFCURVE",
"24 370 CURVE SMOOTH",
"24 143 OFFCURVE",
"71 -9 OFFCURVE",
"256 -9 CURVE SMOOTH"
);
}
);
width = 505;
},
{
anchors = (
{
name = bottom;
position = "{201, 0}";
},
{
name = top;
position = "{201, 729}";
}
);
layerId = "5713303B-ED49-44A7-8230-B5CAE56DEB7E";
paths = (
{
closed = 1;
nodes = (
"292 -10 OFFCURVE",
"365 44 OFFCURVE",
"365 257 CURVE SMOOTH",
"365 375 LINE",
"191 375 LINE",
"191 344 LINE",
"362 344 LINE",
"332 375 LINE",
"332 257 LINE SMOOTH",
"332 105 OFFCURVE",
"295 19 OFFCURVE",
"202 19 CURVE SMOOTH",
"98 19 OFFCURVE",
"71 159 OFFCURVE",
"71 364 CURVE SMOOTH",
"71 570 OFFCURVE",
"98 709 OFFCURVE",
"203 709 CURVE SMOOTH",
"286 709 OFFCURVE",
"322 650 OFFCURVE",
"333 495 CURVE",
"365 495 LINE",
"357 642 OFFCURVE",
"324 739 OFFCURVE",
"203 738 CURVE SMOOTH",
"106 737 OFFCURVE",
"38 666 OFFCURVE",
"38 364 CURVE SMOOTH",
"38 65 OFFCURVE",
"106 -10 OFFCURVE",
"203 -10 CURVE SMOOTH"
);
}
);
width = 402;
},
{
anchors = (
{
name = bottom;
position = "{392, 0}";
},
{
name = top;
position = "{392, 729}";
}
);
background = {
paths = (
{
closed = 1;
nodes = (
"577 -8 OFFCURVE",
"708 124 OFFCURVE",
"708 340 CURVE SMOOTH",
"708 366 LINE",
"429 366 LINE",
"429 330 LINE",
"690 330 LINE",
"667 355 LINE",
"667 335 LINE SMOOTH",
"667 140 OFFCURVE",
"550 28 OFFCURVE",
"381 28 CURVE SMOOTH",
"201 28 OFFCURVE",
"85 162 OFFCURVE",
"85 365 CURVE SMOOTH",
"85 567 OFFCURVE",
"202 699 OFFCURVE",
"382 699 CURVE SMOOTH",
"521 699 OFFCURVE",
"628 621 OFFCURVE",
"650 493 CURVE",
"690 493 LINE",
"668 640 OFFCURVE",
"545 736 OFFCURVE",
"382 736 CURVE SMOOTH",
"181 736 OFFCURVE",
"46 587 OFFCURVE",
"46 364 CURVE SMOOTH",
"46 141 OFFCURVE",
"178 -8 OFFCURVE",
"381 -8 CURVE SMOOTH"
);
}
);
};
layerId = master01;
paths = (
{
closed = 1;
nodes = (
"601 -8 OFFCURVE",
"738 124 OFFCURVE",
"738 340 CURVE SMOOTH",
"738 366 LINE",
"417 366 LINE",
"417 330 LINE",
"721 330 LINE",
"697 355 LINE",
"697 335 LINE SMOOTH",
"697 140 OFFCURVE",
"574 28 OFFCURVE",
"396 28 CURVE SMOOTH",
"207 28 OFFCURVE",
"85 162 OFFCURVE",
"85 365 CURVE SMOOTH",
"85 567 OFFCURVE",
"208 699 OFFCURVE",
"397 699 CURVE SMOOTH",
"538 699 OFFCURVE",
"655 626 OFFCURVE",
"680 493 CURVE",
"719 493 LINE",
"696 640 OFFCURVE",
"566 736 OFFCURVE",
"397 736 CURVE SMOOTH",
"188 736 OFFCURVE",
"46 587 OFFCURVE",
"46 364 CURVE SMOOTH",
"46 142 OFFCURVE",
"184 -8 OFFCURVE",
"396 -8 CURVE SMOOTH"
);
}
);
userData = {
com.schriftgestaltung.Glyphs.glyph.leftMetricsKey = O;
com.schriftgestaltung.Glyphs.glyph.rightMetricsKey = O;
com.schriftgestaltung.hints = (
{
horizontal = 1;
options = 0;
origin = (
0,
9
);
stem = -2;
target = (
0,
28
);
type = Stem;
},
{
horizontal = 1;
options = 0;
origin = (
0,
4
);
stem = -2;
target = (
0,
5
);
type = Stem;
},
{
horizontal = 1;
options = 0;
origin = (
0,
22
);
stem = -2;
target = (
0,
15
);
type = Stem;
},
{
horizontal = 0;
options = 0;
origin = (
0,
25
);
stem = -2;
target = (
0,
12
);
type = Stem;
},
{
horizontal = 0;
options = 0;
origin = (
0,
7
);
stem = -2;
target = (
0,
2
);
type = Stem;
}
);
};
width = 785;
},
{
anchors = (
{
name = bottom;
position = "{396, 0}";
},
{
name = top;
position = "{396, 729}";
}
);
background = {
paths = (
{
closed = 1;
nodes = (
"617 -10 OFFCURVE",
"761 112 OFFCURVE",
"761 310 CURVE SMOOTH",
"761 398 LINE",
"388 398 LINE",
"388 267 LINE",
"608 267 LINE",
"557 318 LINE",
"557 288 LINE SMOOTH",
"557 200 OFFCURVE",
"500 158 OFFCURVE",
"400 158 CURVE SMOOTH",
"300 158 OFFCURVE",
"239 220 OFFCURVE",
"239 365 CURVE SMOOTH",
"239 509 OFFCURVE",
"305 567 OFFCURVE",
"405 567 CURVE SMOOTH",
"480 567 OFFCURVE",
"528 534 OFFCURVE",
"541 480 CURVE",
"750 480 LINE",
"735 635 OFFCURVE",
"611 739 OFFCURVE",
"405 739 CURVE SMOOTH",
"180 739 OFFCURVE",
"31 607 OFFCURVE",
"31 365 CURVE SMOOTH",
"31 122 OFFCURVE",
"180 -10 OFFCURVE",
"400 -10 CURVE SMOOTH"
);
}
);
};
layerId = "1EDCBF6C-9964-4A28-BC87-E86B534B8BE7";
paths = (
{
closed = 1;
nodes = (
"617 -10 OFFCURVE",
"761 118 OFFCURVE",
"761 310 CURVE SMOOTH",
"761 398 LINE",
"388 398 LINE",
"388 257 LINE",
"608 257 LINE",
"557 318 LINE",
"557 288 LINE SMOOTH",
"557 210 OFFCURVE",
"500 158 OFFCURVE",
"400 158 CURVE SMOOTH",
"300 158 OFFCURVE",
"239 220 OFFCURVE",
"239 365 CURVE SMOOTH",
"239 509 OFFCURVE",
"305 567 OFFCURVE",
"405 567 CURVE SMOOTH",
"480 567 OFFCURVE",
"528 534 OFFCURVE",
"541 480 CURVE",
"750 480 LINE",
"735 635 OFFCURVE",
"610 739 OFFCURVE",
"405 739 CURVE SMOOTH",
"180 739 OFFCURVE",
"31 607 OFFCURVE",
"31 365 CURVE SMOOTH",
"31 140 OFFCURVE",
"164 -10 OFFCURVE",
"396 -10 CURVE SMOOTH"
);
}
);
userData = {
com.schriftgestaltung.Glyphs.glyph.leftMetricsKey = O;
com.schriftgestaltung.Glyphs.glyph.rightMetricsKey = O;
};
width = 792;
},
{
anchors = (
{
name = bottom;
position = "{415, 0}";
},
{
name = top;
position = "{415, 729}";
}
);
layerId = "28A8A76A-23B4-40F5-83B9-DC51E48BF161";
paths = (
{
closed = 1;
nodes = (
"643 -8 OFFCURVE",
"793 124 OFFCURVE",
"793 340 CURVE SMOOTH",
"793 366 LINE",
"407 366 LINE",
"407 331 LINE",
"782 331 LINE",
"752 353 LINE",
"752 327 LINE SMOOTH",
"752 140 OFFCURVE",
"617 28 OFFCURVE",
"422 28 CURVE SMOOTH",
"213 28 OFFCURVE",
"78 162 OFFCURVE",
"78 365 CURVE SMOOTH",
"78 567 OFFCURVE",
"215 699 OFFCURVE",
"422 699 CURVE SMOOTH",
"585 699 OFFCURVE",
"708 620 OFFCURVE",
"733 493 CURVE",
"772 493 LINE",
"746 640 OFFCURVE",
"606 736 OFFCURVE",
"422 736 CURVE SMOOTH",
"195 736 OFFCURVE",
"41 587 OFFCURVE",
"41 364 CURVE SMOOTH",
"41 141 OFFCURVE",
"192 -8 OFFCURVE",
"422 -8 CURVE SMOOTH"
);
}
);
width = 835;
},
{
anchors = (
{
name = bottom;
position = "{436, 0}";
},
{
name = top;
position = "{436, 729}";
}
);
background = {
paths = (
{
closed = 1;
nodes = (
"660 -10 OFFCURVE",
"849 101 OFFCURVE",
"849 331 CURVE SMOOTH",
"849 405 LINE",
"430 405 LINE",
"430 262 LINE",
"679 262 LINE",
"623 322 LINE",
"623 304 LINE SMOOTH",
"623 223 OFFCURVE",
"568 169 OFFCURVE",
"441 169 CURVE SMOOTH",
"326 169 OFFCURVE",
"253 231 OFFCURVE",
"253 365 CURVE SMOOTH",
"253 486 OFFCURVE",
"315 560 OFFCURVE",
"447 560 CURVE SMOOTH",
"528 560 OFFCURVE",
"592 531 OFFCURVE",
"611 473 CURVE",
"842 473 LINE",
"823 632 OFFCURVE",
"679 739 OFFCURVE",
"447 739 CURVE SMOOTH",
"177 739 OFFCURVE",
"22 592 OFFCURVE",
"22 365 CURVE SMOOTH",
"22 138 OFFCURVE",
"176 -10 OFFCURVE",
"438 -10 CURVE SMOOTH"
);
}
);
};
layerId = "D2144554-01B8-4B9B-B16A-E0E5B5794DFC";
paths = (
{
closed = 1;
nodes = (
"660 -10 OFFCURVE",
"849 101 OFFCURVE",
"849 331 CURVE SMOOTH",
"849 405 LINE",
"430 405 LINE",
"430 262 LINE",
"679 262 LINE",
"623 322 LINE",
"623 304 LINE SMOOTH",
"623 223 OFFCURVE",
"568 169 OFFCURVE",
"441 169 CURVE SMOOTH",
"326 169 OFFCURVE",
"253 231 OFFCURVE",
"253 365 CURVE SMOOTH",
"253 486 OFFCURVE",
"315 560 OFFCURVE",
"447 560 CURVE SMOOTH",
"528 560 OFFCURVE",
"592 531 OFFCURVE",
"611 473 CURVE",
"842 473 LINE",
"823 632 OFFCURVE",
"679 739 OFFCURVE",
"447 739 CURVE SMOOTH",
"177 739 OFFCURVE",
"22 592 OFFCURVE",
"22 365 CURVE SMOOTH",
"22 138 OFFCURVE",
"176 -10 OFFCURVE",
"438 -10 CURVE SMOOTH"
);
}
);
width = 871;
},
{
anchors = (
{
name = bottom;
position = "{147, 0}";
},
{
name = top;
position = "{298, 729}";
}
);
layerId = "23BA42C1-D468-4A44-9BE5-E18AE60B7926";
paths = (
{
closed = 1;
nodes = (
"232 -9 OFFCURVE",
"307 36 OFFCURVE",
"350 246 CURVE SMOOTH",
"376 375 LINE",
"204 375 LINE",
"198 344 LINE",
"350 344 LINE",
"339 354 LINE",
"318 247 LINE SMOOTH",
"286 93 OFFCURVE",
"235 20 OFFCURVE",
"151 20 CURVE SMOOTH",
"34 20 OFFCURVE",
"44 180 OFFCURVE",
"84 374 CURVE SMOOTH",
"126 573 OFFCURVE",
"179 708 OFFCURVE",
"277 708 CURVE SMOOTH",
"378 708 OFFCURVE",
"384 619 OFFCURVE",
"369 494 CURVE",
"401 494 LINE",
"421 636 OFFCURVE",
"402 738 OFFCURVE",
"281 738 CURVE SMOOTH",
"179 738 OFFCURVE",
"107 639 OFFCURVE",
"52 375 CURVE SMOOTH",
"10 177 OFFCURVE",
"-5 -9 OFFCURVE",
"149 -9 CURVE SMOOTH"
);
}
);
width = 400;
},
{
anchors = (
{
name = bottom;
position = "{192, 0}";
},
{
name = top;
position = "{343, 729}";
}
);
layerId = "2D4E69BA-A319-45D0-84B7-5297BCF4B7A0";
paths = (
{
closed = 1;
nodes = (
"319 -9 OFFCURVE",
"418 58 OFFCURVE",
"453 229 CURVE SMOOTH",
"489 397 LINE",
"272 398 LINE",
"244 264 LINE",
"313 264 LINE",
"295 282 LINE",
"288 241 LINE SMOOTH",
"273 171 OFFCURVE",
"253 147 OFFCURVE",
"225 147 CURVE SMOOTH",
"168 147 OFFCURVE",
"190 251 OFFCURVE",
"214 369 CURVE SMOOTH",
"244 516 OFFCURVE",
"268 582 OFFCURVE",
"308 582 CURVE SMOOTH",
"343 582 OFFCURVE",
"347 546 OFFCURVE",
"335 464 CURVE",
"501 464 LINE",
"528 647 OFFCURVE",
"477 739 OFFCURVE",
"320 739 CURVE SMOOTH",
"168 739 OFFCURVE",
"87 614 OFFCURVE",
"38 382 CURVE SMOOTH",
"-8 163 OFFCURVE",
"2 -9 OFFCURVE",
"204 -9 CURVE SMOOTH"
);
}
);
width = 495;
},
{
anchors = (
{
name = bottom;
position = "{340, 0}";
},
{
name = top;
position = "{491, 729}";
}
);
layerId = "095FE76F-1953-440B-9108-AA0678D151F9";
paths = (
{
closed = 1;
nodes = (
"527 -10 OFFCURVE",
"658 92 OFFCURVE",
"699 309 CURVE SMOOTH",
"710 366 LINE",
"395 366 LINE",
"387 330 LINE",
"672 330 LINE",
"662 342 LINE",
"659 324 LINE SMOOTH",
"627 138 OFFCURVE",
"532 27 OFFCURVE",
"337 27 CURVE SMOOTH",
"185 27 OFFCURVE",
"87 127 OFFCURVE",
"93 308 CURVE SMOOTH",
"101 547 OFFCURVE",
"236 701 OFFCURVE",
"436 701 CURVE SMOOTH",
"581 701 OFFCURVE",
"671 612 OFFCURVE",
"674 493 CURVE",
"713 493 LINE",
"713 633 OFFCURVE",
"607 739 OFFCURVE",
"442 739 CURVE SMOOTH",
"219 739 OFFCURVE",
"62 566 OFFCURVE",
"53 308 CURVE SMOOTH",
"47 119 OFFCURVE",
"157 -10 OFFCURVE",
"332 -10 CURVE SMOOTH"
);
}
);
width = 787;
},
{
anchors = (
{
name = bottom;
position = "{337, 0}";
},
{
name = top;
position = "{488, 729}";
}
);
layerId = "63AAE8D6-1DFF-4DD4-BD9A-49272FE52904";
paths = (
{
closed = 1;
nodes = (
"557 -10 OFFCURVE",
"707 77 OFFCURVE",
"751 305 CURVE SMOOTH",
"769 398 LINE",
"417 398 LINE",
"389 267 LINE",
"570 267 LINE",
"541 300 LINE",
"537 278 LINE SMOOTH",
"522 195 OFFCURVE",
"472 157 OFFCURVE",
"388 157 CURVE SMOOTH",
"300 157 OFFCURVE",
"243 211 OFFCURVE",
"247 336 CURVE SMOOTH",
"252 476 OFFCURVE",
"323 570 OFFCURVE",
"442 570 CURVE SMOOTH",
"507 570 OFFCURVE",
"553 536 OFFCURVE",
"560 479 CURVE",
"765 482 LINE",
"760 636 OFFCURVE",
"634 737 OFFCURVE",
"449 737 CURVE SMOOTH",
"215 737 OFFCURVE",
"51 583 OFFCURVE",
"42 336 CURVE SMOOTH",
"35 129 OFFCURVE",
"153 -10 OFFCURVE",
"372 -10 CURVE SMOOTH"
);
}
);
width = 786;
},
{
anchors = (
{
name = bottom;
position = "{369, 0}";
},
{
name = top;
position = "{520, 729}";
}
);
layerId = "C17B1F32-8075-45B4-AA59-7DAFF0D7E404";
paths = (
{
closed = 1;
nodes = (
"598 -10 OFFCURVE",
"741 101 OFFCURVE",
"783 298 CURVE SMOOTH",
"797 366 LINE",
"405 366 LINE",
"397 331 LINE",
"764 331 LINE",
"752 343 LINE",
"742 295 LINE SMOOTH",
"708 124 OFFCURVE",
"579 27 OFFCURVE",
"397 27 CURVE SMOOTH",
"208 27 OFFCURVE",
"86 133 OFFCURVE",
"93 330 CURVE SMOOTH",
"101 558 OFFCURVE",
"244 703 OFFCURVE",
"463 703 CURVE SMOOTH",
"606 703 OFFCURVE",
"740 625 OFFCURVE",
"756 494 CURVE",
"794 494 LINE",
"780 642 OFFCURVE",
"638 739 OFFCURVE",
"466 739 CURVE SMOOTH",
"229 739 OFFCURVE",
"62 575 OFFCURVE",
"53 333 CURVE SMOOTH",
"46 122 OFFCURVE",
"179 -10 OFFCURVE",
"395 -10 CURVE SMOOTH"
);
}
);
width = 845;
},
{
anchors = (
{
name = bottom;
position = "{381, 0}";
},
{
name = top;
position = "{532, 729}";
}
);
layerId = "377EF8AC-8B0D-46C2-96BB-3B5B69A8F571";
paths = (
{
closed = 1;
nodes = (
"649 -9 OFFCURVE",
"800 96 OFFCURVE",
"843 293 CURVE SMOOTH",
"867 402 LINE",
"456 402 LINE",
"424 262 LINE",
"650 262 LINE",
"617 309 LINE",
"613 286 LINE SMOOTH",
"600 213 OFFCURVE",
"531 169 OFFCURVE",
"441 169 CURVE SMOOTH",
"330 169 OFFCURVE",
"258 230 OFFCURVE",
"262 349 CURVE SMOOTH",
"266 475 OFFCURVE",
"342 561 OFFCURVE",
"475 561 CURVE SMOOTH",
"547 561 OFFCURVE",
"624 531 OFFCURVE",
"637 468 CURVE",
"864 468 LINE",
"855 629 OFFCURVE",
"699 739 OFFCURVE",
"477 739 CURVE SMOOTH",
"223 739 OFFCURVE",
"41 581 OFFCURVE",
"33 338 CURVE SMOOTH",
"25 129 OFFCURVE",
"169 -9 OFFCURVE",
"420 -9 CURVE SMOOTH"
);
}
);
width = 874;
}
);
leftKerningGroup = C;
leftMetricsKey = O;
rightKerningGroup = C;
unicode = 0047;
},
{
glyphname = H;
lastChange = "2022-08-11 17:02:35 +0000";
layers = (
{
anchors = (
{
name = bottom;
position = "{247, 0}";
},
{
name = center;
position = "{247, 365}";
},
{
name = top;
position = "{247, 729}";
},
{
name = topleft;
position = "{26, 729}";
}
);
layerId = "E787E54A-EE3E-475A-BF02-8501A6DA5144";
paths = (
{
closed = 1;
nodes = (
"212 0 LINE",
"212 306 LINE",
"197 291 LINE",
"294 291 LINE",
"279 306 LINE",
"279 0 LINE",
"465 0 LINE",
"465 729 LINE",
"279 729 LINE",
"279 432 LINE",
"294 447 LINE",
"197 447 LINE",
"212 432 LINE",
"212 729 LINE",
"28 729 LINE",
"28 0 LINE"
);
}
);
width = 493;
},
{
anchors = (
{
name = bottom;
position = "{212, 0}";
},
{
name = center;
position = "{212, 365}";
},
{
name = top;
position = "{212, 729}";
},
{
name = topleft;
position = "{20, 729}";
}
);
layerId = "5713303B-ED49-44A7-8230-B5CAE56DEB7E";
paths = (
{
closed = 1;
nodes = (
"96 0 LINE",
"96 365 LINE",
"86 355 LINE",
"339 355 LINE",
"329 365 LINE",
"329 0 LINE",
"359 0 LINE",
"359 729 LINE",
"329 729 LINE",
"329 375 LINE",
"339 385 LINE",
"86 385 LINE",
"96 375 LINE",
"96 729 LINE",
"65 729 LINE",
"65 0 LINE"
);
}
);
width = 424;
},
{
anchors = (
{
name = bottom;
position = "{394, 0}";
},
{
name = center;
position = "{394, 365}";
},
{
name = top;
position = "{394, 729}";
},
{
name = topleft;
position = "{22, 729}";
}
);
layerId = master01;
paths = (
{
closed = 1;
nodes = (
"141 0 LINE",
"141 363 LINE",
"130 352 LINE",
"658 352 LINE",
"647 363 LINE",
"647 0 LINE",
"685 0 LINE",
"685 729 LINE",
"647 729 LINE",
"647 377 LINE",
"658 388 LINE",
"130 388 LINE",
"141 377 LINE",
"141 729 LINE",
"103 729 LINE",
"103 0 LINE"
);
}
);
userData = {
com.schriftgestaltung.hints = (
{
horizontal = 1;
options = 0;
origin = (
0,
11
);
stem = -2;
target = (
u,
p
);
type = BottomGhost;
},
{
horizontal = 1;
options = 0;
origin = (
0,
8
);
stem = -2;
target = (
0,
1
);
type = Stem;
},
{
horizontal = 1;
options = 0;
origin = (
0,
10
);
stem = -2;
target = (
d,
o,
w,
n
);
type = TopGhost;
},
{
horizontal = 0;
options = 0;
origin = (
0,
11
);
stem = -2;
target = (
0,
0
);
type = Stem;
},
{
horizontal = 0;
options = 0;
origin = (
0,
3
);
stem = -2;
target = (
0,
4
);
type = Stem;
}
);
};
width = 788;
},
{
anchors = (
{
name = bottom;
position = "{411, 0}";
},
{
name = center;
position = "{411, 365}";
},
{
name = top;
position = "{411, 729}";
},
{
name = topleft;
position = "{29, 729}";
}
);
layerId = "1EDCBF6C-9964-4A28-BC87-E86B534B8BE7";
paths = (
{
closed = 1;
nodes = (
"272 0 LINE",
"272 305 LINE",
"250 283 LINE",
"572 283 LINE",
"550 305 LINE",
"550 0 LINE",
"753 0 LINE",
"753 729 LINE",
"550 729 LINE",
"550 433 LINE",
"572 455 LINE",
"250 455 LINE",
"272 433 LINE",
"272 729 LINE",
"69 729 LINE",
"69 0 LINE"
);
}
);
width = 822;
},
{
anchors = (
{
name = bottom;
position = "{404, 0}";
},
{
name = center;
position = "{404, 365}";
},
{
name = top;
position = "{404, 729}";
},
{
name = topleft;
position = "{22, 729}";
}
);
layerId = "28A8A76A-23B4-40F5-83B9-DC51E48BF161";
paths = (
{
closed = 1;
nodes = (
"109 0 LINE",
"109 357 LINE",
"104 352 LINE",
"705 352 LINE",
"700 357 LINE",
"700 0 LINE",
"738 0 LINE",
"738 729 LINE",
"700 729 LINE",
"700 383 LINE",
"705 388 LINE",
"104 388 LINE",
"109 383 LINE",
"109 729 LINE",
"71 729 LINE",
"71 0 LINE"
);
}
);
width = 809;
},
{
anchors = (
{
name = bottom;
position = "{441, 0}";
},
{
name = center;
position = "{441, 365}";
},
{
name = top;
position = "{441, 729}";
},
{
name = topleft;
position = "{31, 729}";
}
);
layerId = "D2144554-01B8-4B9B-B16A-E0E5B5794DFC";
paths = (
{
closed = 1;
nodes = (
"283 0 LINE",
"283 295 LINE",
"268 280 LINE",
"614 280 LINE",
"599 295 LINE",
"599 0 LINE",
"828 0 LINE",
"828 729 LINE",
"599 729 LINE",
"599 443 LINE",
"614 458 LINE",
"268 458 LINE",
"283 443 LINE",
"283 729 LINE",
"54 729 LINE",
"54 0 LINE"
);
}
);
width = 882;
},
{
anchors = (
{
name = bottom;
position = "{157, 0}";
},
{
name = center;
position = "{232, 365}";
},
{
name = top;
position = "{308, 729}";
},
{
name = topleft;
position = "{118, 729}";
}
);
layerId = "23BA42C1-D468-4A44-9BE5-E18AE60B7926";
paths = (
{
closed = 1;
nodes = (
"31 0 LINE",
"106 363 LINE",
"93 355 LINE",
"342 355 LINE",
"337 363 LINE",
"261 0 LINE",
"291 0 LINE",
"443 729 LINE",
"414 729 LINE",
"340 377 LINE",
"351 385 LINE",
"105 385 LINE",
"110 379 LINE",
"183 729 LINE",
"152 729 LINE",
"0 0 LINE"
);
}
);
width = 420;
},
{
anchors = (
{
name = bottom;
position = "{190, 0}";
},
{
name = center;
position = "{266, 365}";
},
{
name = top;
position = "{341, 729}";
},
{
name = topleft;
position = "{115, 729}";
}
);
layerId = "2D4E69BA-A319-45D0-84B7-5297BCF4B7A0";
paths = (
{
closed = 1;
nodes = (
"146 0 LINE",
"215 335 LINE",
"161 291 LINE",
"318 291 LINE",
"282 335 LINE",
"212 0 LINE",
"396 0 LINE",
"548 729 LINE",
"364 729 LINE",
"297 403 LINE",
"351 447 LINE",
"194 447 LINE",
"230 403 LINE",
"298 729 LINE",
"116 729 LINE",
"-37 0 LINE"
);
}
);
width = 492;
},
{
anchors = (
{
name = bottom;
position = "{332, 0}";
},
{
name = center;
position = "{408, 365}";
},
{
name = top;
position = "{483, 729}";
},
{
name = topleft;
position = "{117, 729}";
}
);
layerId = "095FE76F-1953-440B-9108-AA0678D151F9";
paths = (
{
closed = 1;
nodes = (
"76 0 LINE",
"150 362 LINE",
"135 352 LINE",
"652 352 LINE",
"643 363 LINE",
"567 0 LINE",
"605 0 LINE",
"756 729 LINE",
"718 729 LINE",
"646 380 LINE",
"656 388 LINE",
"148 388 LINE",
"156 381 LINE",
"227 729 LINE",
"190 729 LINE",
"39 0 LINE"
);
}
);
width = 772;
},
{
anchors = (
{
name = bottom;
position = "{347, 0}";
},
{
name = center;
position = "{422, 365}";
},
{
name = top;
position = "{498, 729}";
},
{
name = topleft;
position = "{115, 729}";
}
);
layerId = "63AAE8D6-1DFF-4DD4-BD9A-49272FE52904";
paths = (
{
closed = 1;
nodes = (
"204 0 LINE",
"272 327 LINE",
"218 283 LINE",
"574 283 LINE",
"538 327 LINE",
"469 0 LINE",
"670 0 LINE",
"821 729 LINE",
"620 729 LINE",
"554 411 LINE",
"608 455 LINE",
"254 455 LINE",
"290 411 LINE",
"355 729 LINE",
"154 729 LINE",
"3 0 LINE"
);
}
);
width = 806;
},
{
anchors = (
{
name = bottom;
position = "{347, 0}";
},
{
name = center;
position = "{423, 365}";
},
{
name = top;
position = "{498, 729}";
},
{
name = topleft;
position = "{117, 729}";
}
);
layerId = "C17B1F32-8075-45B4-AA59-7DAFF0D7E404";
paths = (
{
closed = 1;
nodes = (
"45 0 LINE",
"120 361 LINE",
"109 352 LINE",
"710 352 LINE",
"703 362 LINE",
"628 0 LINE",
"665 0 LINE",
"816 729 LINE",
"779 729 LINE",
"708 380 LINE",
"719 388 LINE",
"116 388 LINE",
"123 379 LINE",
"196 729 LINE",
"158 729 LINE",
"7 0 LINE"
);
}
);
width = 801;
},
{
anchors = (
{
name = bottom;
position = "{381, 0}";
},
{
name = center;
position = "{456, 365}";
},
{
name = top;
position = "{532, 729}";
},
{
name = topleft;
position = "{115, 729}";
}
);
layerId = "377EF8AC-8B0D-46C2-96BB-3B5B69A8F571";
paths = (
{
closed = 1;
nodes = (
"215 0 LINE",
"283 324 LINE",
"229 280 LINE",
"629 280 LINE",
"593 324 LINE",
"526 0 LINE",
"753 0 LINE",
"905 729 LINE",
"677 729 LINE",
"612 414 LINE",
"666 458 LINE",
"266 458 LINE",
"302 414 LINE",
"366 729 LINE",
"139 729 LINE",
"-12 0 LINE"
);
}
);
width = 874;
}
);
leftKerningGroup = B;
rightKerningGroup = H;
unicode = 0048;
},
{
glyphname = I;
lastChange = "2022-08-11 16:47:25 +0000";
layers = (
{
anchors = (
{
name = bottom;
position = "{122, 0}";
},
{
name = ogonek;
position = "{214, 10}";
},
{
name = top;
position = "{122, 729}";
},
{
name = topleft;
position = "{26, 729}";
}
);
layerId = "E787E54A-EE3E-475A-BF02-8501A6DA5144";
paths = (
{
closed = 1;
nodes = (
"215 0 LINE",
"215 729 LINE",
"28 729 LINE",
"28 0 LINE"
);
}
);
width = 243;
},
{
anchors = (
{
name = bottom;
position = "{81, 0}";
},
{
name = ogonek;
position = "{145, 10}";
},
{
name = top;
position = "{81, 729}";
},
{
name = topleft;
position = "{20, 729}";
}
);
layerId = "5713303B-ED49-44A7-8230-B5CAE56DEB7E";
paths = (
{
closed = 1;
nodes = (
"96 0 LINE",
"96 729 LINE",
"65 729 LINE",
"65 0 LINE"
);
}
);
width = 161;
},
{
anchors = (
{
name = bottom;
position = "{122, 0}";
},
{
name = ogonek;
position = "{218, 10}";
},
{
name = top;
position = "{122, 729}";
},
{
name = topleft;
position = "{22, 729}";
}
);
layerId = master01;
paths = (
{
closed = 1;
nodes = (
"141 0 LINE",
"141 729 LINE",
"103 729 LINE",
"103 0 LINE"
);
}
);
userData = {
com.schriftgestaltung.hints = (
{
horizontal = 1;
options = 0;
origin = (
0,
3
);
stem = -2;
target = (
u,
p
);
type = BottomGhost;
},
{
horizontal = 1;
options = 0;
origin = (
0,
2
);
stem = -2;
target = (
d,
o,
w,
n
);
type = TopGhost;
},
{
horizontal = 0;
options = 0;
origin = (
0,
3
);
stem = -2;
target = (
0,
0
);
type = Stem;
}
);
};
width = 244;
},
{
anchors = (
{
name = bottom;
position = "{171, 0}";
},
{
name = ogonek;
position = "{300, 10}";
},
{
name = top;
position = "{171, 729}";
},
{
name = topleft;
position = "{29, 729}";
}
);
layerId = "1EDCBF6C-9964-4A28-BC87-E86B534B8BE7";
paths = (
{
closed = 1;
nodes = (
"272 0 LINE",
"272 729 LINE",
"69 729 LINE",
"69 0 LINE"
);
}
);
width = 341;
},
{
anchors = (
{
name = bottom;
position = "{90, 0}";
},
{
name = ogonek;
position = "{160, 10}";
},
{
name = top;
position = "{90, 729}";
},
{
name = topleft;
position = "{22, 729}";
}
);
layerId = "28A8A76A-23B4-40F5-83B9-DC51E48BF161";
paths = (
{
closed = 1;
nodes = (
"109 0 LINE",
"109 729 LINE",
"71 729 LINE",
"71 0 LINE"
);
}
);
width = 180;
},
{
anchors = (
{
name = bottom;
position = "{169, 0}";
},
{
name = ogonek;
position = "{295, 10}";
},
{
name = top;
position = "{169, 729}";
},
{
name = topleft;
position = "{31, 729}";
}
);
layerId = "D2144554-01B8-4B9B-B16A-E0E5B5794DFC";
paths = (
{
closed = 1;
nodes = (
"283 0 LINE",
"283 729 LINE",
"54 729 LINE",
"54 0 LINE"
);
}
);
width = 337;
},
{
anchors = (
{
name = bottom;
position = "{16, 0}";
},
{
name = ogonek;
position = "{31, 0}";
},
{
name = top;
position = "{167, 729}";
},
{
name = topleft;
position = "{118, 729}";
}
);
layerId = "23BA42C1-D468-4A44-9BE5-E18AE60B7926";
paths = (
{
closed = 1;
nodes = (
"31 0 LINE",
"182 729 LINE",
"151 729 LINE",
"0 0 LINE"
);
}
);
width = 159;
},
{
anchors = (
{
name = bottom;
position = "{56, 0}";
},
{
name = ogonek;
position = "{148, 0}";
},
{
name = top;
position = "{208, 729}";
},
{
name = topleft;
position = "{115, 729}";
}
);
layerId = "2D4E69BA-A319-45D0-84B7-5297BCF4B7A0";
paths = (
{
closed = 1;
nodes = (
"148 0 LINE",
"300 729 LINE",
"115 729 LINE",
"-37 0 LINE"
);
}
);
width = 244;
},
{
anchors = (
{
name = bottom;
position = "{58, 0}";
},
{
name = ogonek;
position = "{76, 0}";
},
{
name = top;
position = "{209, 729}";
},
{
name = topleft;
position = "{117, 729}";
}
);
layerId = "095FE76F-1953-440B-9108-AA0678D151F9";
paths = (
{
closed = 1;
nodes = (
"76 0 LINE",
"228 729 LINE",
"190 729 LINE",
"39 0 LINE"
);
}
);
width = 244;
},
{
anchors = (
{
name = bottom;
position = "{114, 0}";
},
{
name = ogonek;
position = "{204, 0}";
},
{
name = top;
position = "{265, 729}";
},
{
name = topleft;
position = "{115, 729}";
}
);
layerId = "63AAE8D6-1DFF-4DD4-BD9A-49272FE52904";
paths = (
{
closed = 1;
nodes = (
"204 0 LINE",
"355 729 LINE",
"154 729 LINE",
"3 0 LINE"
);
}
);
width = 340;
},
{
anchors = (
{
name = bottom;
position = "{26, 0}";
},
{
name = ogonek;
position = "{45, 0}";
},
{
name = top;
position = "{177, 729}";
},
{
name = topleft;
position = "{117, 729}";
}
);
layerId = "C17B1F32-8075-45B4-AA59-7DAFF0D7E404";
paths = (
{
closed = 1;
nodes = (
"45 0 LINE",
"196 729 LINE",
"158 729 LINE",
"7 0 LINE"
);
}
);
width = 181;
},
{
anchors = (
{
name = bottom;
position = "{102, 0}";
},
{
name = ogonek;
position = "{215, 0}";
},
{
name = top;
position = "{253, 729}";
},
{
name = topleft;
position = "{115, 729}";
}
);
layerId = "377EF8AC-8B0D-46C2-96BB-3B5B69A8F571";
paths = (
{
closed = 1;
nodes = (
"215 0 LINE",
"366 729 LINE",
"139 729 LINE",
"-12 0 LINE"
);
}
);
width = 335;
}
);
leftKerningGroup = B;
leftMetricsKey = H;
rightKerningGroup = H;
rightMetricsKey = H;
unicode = 0049;
},
{
glyphname = J;
lastChange = "2022-08-11 16:47:25 +0000";
layers = (
{
anchors = (
{
name = bottom;
position = "{152, 0}";
},
{
name = top;
position = "{152, 729}";
}
);
layerId = "E787E54A-EE3E-475A-BF02-8501A6DA5144";
paths = (
{
closed = 1;
nodes = (
"231 -9 OFFCURVE",
"273 64 OFFCURVE",
"273 176 CURVE SMOOTH",
"273 729 LINE",
"86 729 LINE",
"86 210 LINE SMOOTH",
"86 165 OFFCURVE",
"78 143 OFFCURVE",
"47 143 CURVE SMOOTH",
"38 143 OFFCURVE",
"25 146 OFFCURVE",
"19 154 CURVE",
"19 9 LINE",
"38 -2 OFFCURVE",
"68 -9 OFFCURVE",
"107 -9 CURVE SMOOTH"
);
}
);
width = 301;
},
{
anchors = (
{
name = bottom;
position = "{105, 0}";
},
{
name = top;
position = "{105, 729}";
}
);
layerId = "5713303B-ED49-44A7-8230-B5CAE56DEB7E";
paths = (
{
closed = 1;
nodes = (
"123 -6 OFFCURVE",
"155 17 OFFCURVE",
"155 88 CURVE SMOOTH",
"155 729 LINE",
"125 729 LINE",
"125 97 LINE SMOOTH",
"125 45 OFFCURVE",
"115 21 OFFCURVE",
"75 21 CURVE SMOOTH",
"60 21 OFFCURVE",
"46 26 OFFCURVE",
"41 31 CURVE",
"41 4 LINE",
"48 -2 OFFCURVE",
"62 -6 OFFCURVE",
"77 -6 CURVE SMOOTH"
);
}
);
width = 220;
},
{
anchors = (
{
name = bottom;
position = "{168, 0}";
},
{
name = top;
position = "{168, 729}";
}
);
layerId = master01;
paths = (
{
closed = 1;
nodes = (
"212 -8 OFFCURVE",
"277 44 OFFCURVE",
"277 162 CURVE SMOOTH",
"277 729 LINE",
"239 729 LINE",
"239 167 LINE SMOOTH",
"239 66 OFFCURVE",
"187 27 OFFCURVE",
"102 27 CURVE SMOOTH",
"65 27 OFFCURVE",
"35 36 OFFCURVE",
"15 50 CURVE",
"15 13 LINE",
"35 1 OFFCURVE",
"66 -8 OFFCURVE",
"104 -8 CURVE SMOOTH"
);
}
);
userData = {
com.schriftgestaltung.hints = (
{
horizontal = 1;
options = 0;
origin = (
0,
8
);
stem = -2;
target = (
0,
15
);
type = Stem;
},
{
horizontal = 1;
options = 0;
origin = (
0,
4
);
stem = -2;
target = (
d,
o,
w,
n
);
type = TopGhost;
},
{
horizontal = 1;
options = 0;
origin = (
0,
12
);
stem = -2;
target = (
d,
o,
w,
n
);
type = TopGhost;
},
{
horizontal = 0;
options = 0;
origin = (
0,
5
);
stem = -2;
target = (
0,
2
);
type = Stem;
}
);
};
width = 380;
},
{
anchors = (
{
name = bottom;
position = "{200, 0}";
},
{
name = top;
position = "{274, 729}";
}
);
layerId = "1EDCBF6C-9964-4A28-BC87-E86B534B8BE7";
paths = (
{
closed = 1;
nodes = (
"276 -7 OFFCURVE",
"375 59 OFFCURVE",
"375 227 CURVE SMOOTH",
"375 729 LINE",
"173 729 LINE",
"173 241 LINE SMOOTH",
"173 187 OFFCURVE",
"148 158 OFFCURVE",
"83 158 CURVE SMOOTH",
"55 158 OFFCURVE",
"33 164 OFFCURVE",
"15 172 CURVE",
"15 12 LINE",
"40 1 OFFCURVE",
"85 -7 OFFCURVE",
"128 -7 CURVE SMOOTH"
);
}
);
width = 444;
},
{
anchors = (
{
name = bottom;
position = "{215, 0}";
},
{
name = top;
position = "{215, 729}";
}
);
layerId = "28A8A76A-23B4-40F5-83B9-DC51E48BF161";
paths = (
{
closed = 1;
nodes = (
"258 -8 OFFCURVE",
"345 49 OFFCURVE",
"345 194 CURVE SMOOTH",
"345 729 LINE",
"307 729 LINE",
"307 201 LINE SMOOTH",
"307 75 OFFCURVE",
"247 27 OFFCURVE",
"139 27 CURVE SMOOTH",
"94 27 OFFCURVE",
"63 36 OFFCURVE",
"41 50 CURVE",
"41 13 LINE",
"62 1 OFFCURVE",
"94 -8 OFFCURVE",
"140 -8 CURVE SMOOTH"
);
}
);
width = 416;
},
{
anchors = (
{
name = bottom;
position = "{223, 0}";
},
{
name = top;
position = "{223, 729}";
}
);
layerId = "D2144554-01B8-4B9B-B16A-E0E5B5794DFC";
paths = (
{
closed = 1;
nodes = (
"330 -10 OFFCURVE",
"411 75 OFFCURVE",
"411 263 CURVE SMOOTH",
"411 729 LINE",
"183 729 LINE",
"183 276 LINE SMOOTH",
"183 195 OFFCURVE",
"147 171 OFFCURVE",
"87 171 CURVE SMOOTH",
"60 171 OFFCURVE",
"35 176 OFFCURVE",
"22 182 CURVE",
"22 7 LINE",
"46 -3 OFFCURVE",
"89 -10 OFFCURVE",
"141 -10 CURVE SMOOTH"
);
}
);
width = 465;
},
{
anchors = (
{
name = bottom;
position = "{56, 0}";
},
{
name = top;
position = "{207, 729}";
}
);
layerId = "23BA42C1-D468-4A44-9BE5-E18AE60B7926";
paths = (
{
closed = 1;
nodes = (
"53 -6 OFFCURVE",
"93 15 OFFCURVE",
"108 88 CURVE SMOOTH",
"241 729 LINE",
"211 729 LINE",
"79 97 LINE SMOOTH",
"68 44 OFFCURVE",
"52 21 OFFCURVE",
"14 21 CURVE SMOOTH",
"3 21 OFFCURVE",
"-13 25 OFFCURVE",
"-18 31 CURVE",
"-24 4 LINE",
"-18 -2 OFFCURVE",
"-4 -6 OFFCURVE",
"11 -6 CURVE SMOOTH"
);
}
);
width = 218;
},
{
anchors = (
{
name = bottom;
position = "{95, 0}";
},
{
name = top;
position = "{246, 729}";
}
);
layerId = "2D4E69BA-A319-45D0-84B7-5297BCF4B7A0";
paths = (
{
closed = 1;
nodes = (
"161 -9 OFFCURVE",
"218 62 OFFCURVE",
"242 176 CURVE SMOOTH",
"357 729 LINE",
"173 729 LINE",
"64 210 LINE SMOOTH",
"55 170 OFFCURVE",
"45 143 OFFCURVE",
"13 143 CURVE SMOOTH",
"5 143 OFFCURVE",
"-9 145 OFFCURVE",
"-14 154 CURVE",
"-44 9 LINE",
"-26 -3 OFFCURVE",
"4 -9 OFFCURVE",
"39 -9 CURVE SMOOTH"
);
}
);
width = 301;
},
{
anchors = (
{
name = bottom;
position = "{131, 0}";
},
{
name = top;
position = "{282, 729}";
}
);
layerId = "095FE76F-1953-440B-9108-AA0678D151F9";
paths = (
{
closed = 1;
nodes = (
"135 -8 OFFCURVE",
"212 47 OFFCURVE",
"235 164 CURVE SMOOTH",
"353 729 LINE",
"316 729 LINE",
"198 167 LINE SMOOTH",
"178 68 OFFCURVE",
"119 27 OFFCURVE",
"38 27 CURVE SMOOTH",
"6 27 OFFCURVE",
"-23 35 OFFCURVE",
"-39 50 CURVE",
"-46 13 LINE",
"-29 1 OFFCURVE",
"-1 -8 OFFCURVE",
"33 -8 CURVE SMOOTH"
);
}
);
width = 369;
},
{
anchors = (
{
name = bottom;
position = "{161, 0}";
},
{
name = top;
position = "{312, 729}";
}
);
layerId = "63AAE8D6-1DFF-4DD4-BD9A-49272FE52904";
paths = (
{
closed = 1;
nodes = (
"196 -10 OFFCURVE",
"301 28 OFFCURVE",
"343 226 CURVE SMOOTH",
"449 729 LINE",
"248 729 LINE",
"152 272 LINE SMOOTH",
"132 176 OFFCURVE",
"103 157 OFFCURVE",
"44 157 CURVE SMOOTH",
"21 157 OFFCURVE",
"-5 164 OFFCURVE",
"-16 175 CURVE",
"-49 15 LINE",
"-28 1 OFFCURVE",
"21 -10 OFFCURVE",
"71 -10 CURVE SMOOTH"
);
}
);
width = 434;
},
{
anchors = (
{
name = bottom;
position = "{154, 0}";
},
{
name = top;
position = "{305, 729}";
}
);
layerId = "C17B1F32-8075-45B4-AA59-7DAFF0D7E404";
paths = (
{
closed = 1;
nodes = (
"220 -10 OFFCURVE",
"290 59 OFFCURVE",
"320 201 CURVE SMOOTH",
"430 729 LINE",
"393 729 LINE",
"283 207 LINE SMOOTH",
"255 71 OFFCURVE",
"195 25 OFFCURVE",
"94 25 CURVE SMOOTH",
"42 25 OFFCURVE",
"8 36 OFFCURVE",
"-14 54 CURVE",
"-21 17 LINE",
"-1 2 OFFCURVE",
"35 -10 OFFCURVE",
"88 -10 CURVE SMOOTH"
);
}
);
width = 415;
},
{
anchors = (
{
name = bottom;
position = "{179, 0}";
},
{
name = top;
position = "{330, 729}";
}
);
layerId = "377EF8AC-8B0D-46C2-96BB-3B5B69A8F571";
paths = (
{
closed = 1;
nodes = (
"253 -10 OFFCURVE",
"358 50 OFFCURVE",
"400 252 CURVE SMOOTH",
"500 729 LINE",
"272 729 LINE",
"178 274 LINE SMOOTH",
"165 209 OFFCURVE",
"135 173 OFFCURVE",
"70 173 CURVE SMOOTH",
"41 173 OFFCURVE",
"13 178 OFFCURVE",
"2 186 CURVE",
"-35 12 LINE",
"-12 0 OFFCURVE",
"36 -10 OFFCURVE",
"98 -10 CURVE SMOOTH"
);
}
);
width = 469;
}
);
leftKerningGroup = J;
rightKerningGroup = J;
rightMetricsKey = I;
unicode = 004A;
},
{
glyphname = K;
lastChange = "2022-08-11 16:47:25 +0000";
layers = (
{
anchors = (
{
name = bottom;
position = "{247, 0}";
},
{
name = top;
position = "{247, 729}";
}
);
background = {
paths = (
{
closed = 1;
nodes = (
"250 0 LINE",
"250 159 LINE",
"325 249 LINE",
"490 0 LINE",
"736 0 LINE",
"463 414 LINE",
"726 729 LINE",
"476 729 LINE",
"250 445 LINE",
"250 729 LINE",
"47 729 LINE",
"47 0 LINE"
);
}
);
};
layerId = "E787E54A-EE3E-475A-BF02-8501A6DA5144";
paths = (
{
closed = 1;
nodes = (
"205 0 LINE",
"205 167 LINE",
"236 274 LINE",
"284 0 LINE",
"477 0 LINE",
"367 428 LINE",
"478 729 LINE",
"286 729 LINE",
"205 416 LINE",
"205 729 LINE",
"28 729 LINE",
"28 0 LINE"
);
}
);
width = 489;
},
{
anchors = (
{
name = bottom;
position = "{186, 0}";
},
{
name = top;
position = "{186, 729}";
}
);
layerId = "5713303B-ED49-44A7-8230-B5CAE56DEB7E";
paths = (
{
closed = 1;
nodes = (
"95 0 LINE",
"95 258 LINE",
"170 395 LINE",
"327 0 LINE",
"360 0 LINE",
"189 426 LINE",
"354 729 LINE",
"320 729 LINE",
"95 309 LINE",
"95 729 LINE",
"65 729 LINE",
"65 0 LINE"
);
}
);
width = 372;
},
{
anchors = (
{
name = bottom;
position = "{332, 0}";
},
{
name = top;
position = "{332, 729}";
}
);
layerId = master01;
paths = (
{
closed = 1;
nodes = (
"141 0 LINE",
"141 240 LINE",
"295 398 LINE",
"579 0 LINE",
"626 0 LINE",
"321 425 LINE",
"618 729 LINE",
"567 729 LINE",
"141 291 LINE",
"141 729 LINE",
"103 729 LINE",
"103 0 LINE"
);
}
);
userData = {
com.schriftgestaltung.Glyphs.glyph.leftMetricsKey = H;
com.schriftgestaltung.hints = (
{
horizontal = 1;
options = 0;
origin = (
0,
11
);
stem = -2;
target = (
u,
p
);
type = BottomGhost;
},
{
horizontal = 1;
options = 0;
origin = (
0,
10
);
stem = -2;
target = (
d,
o,
w,
n
);
type = TopGhost;
},
{
horizontal = 0;
options = 0;
origin = (
0,
11
);
stem = -2;
target = (
0,
0
);
type = Stem;
}
);
};
width = 655;
},
{
anchors = (
{
name = bottom;
position = "{383, 0}";
},
{
name = top;
position = "{383, 729}";
}
);
background = {
paths = (
{
closed = 1;
nodes = (
"272 0 LINE",
"272 163 LINE",
"359 273 LINE",
"516 0 LINE",
"756 0 LINE",
"498 420 LINE",
"745 729 LINE",
"506 729 LINE",
"272 417 LINE",
"272 729 LINE",
"69 729 LINE",
"69 0 LINE"
);
}
);
};
layerId = "1EDCBF6C-9964-4A28-BC87-E86B534B8BE7";
paths = (
{
closed = 1;
nodes = (
"272 0 LINE",
"272 186 LINE",
"353 280 LINE",
"513 0 LINE",
"752 0 LINE",
"492 427 LINE",
"750 729 LINE",
"510 729 LINE",
"272 421 LINE",
"272 729 LINE",
"69 729 LINE",
"69 0 LINE"
);
}
);
userData = {
com.schriftgestaltung.Glyphs.glyph.leftMetricsKey = H;
};
width = 759;
},
{
anchors = (
{
name = bottom;
position = "{335, 0}";
},
{
name = top;
position = "{335, 729}";
}
);
background = {
paths = (
{
closed = 1;
nodes = (
"107 0 LINE",
"107 176 LINE",
"321 385 LINE",
"632 0 LINE",
"679 0 LINE",
"348 411 LINE",
"672 729 LINE",
"624 729 LINE",
"107 221 LINE",
"107 729 LINE",
"71 729 LINE",
"71 0 LINE"
);
}
);
};
layerId = "28A8A76A-23B4-40F5-83B9-DC51E48BF161";
paths = (
{
closed = 1;
nodes = (
"107 0 LINE",
"107 196 LINE",
"309 387 LINE",
"632 0 LINE",
"679 0 LINE",
"337 412 LINE",
"672 729 LINE",
"624 729 LINE",
"107 241 LINE",
"107 729 LINE",
"71 729 LINE",
"71 0 LINE"
);
}
);
width = 695;
},
{
anchors = (
{
name = bottom;
position = "{443, 0}";
},
{
name = top;
position = "{443, 729}";
}
);
layerId = "D2144554-01B8-4B9B-B16A-E0E5B5794DFC";
paths = (
{
closed = 1;
nodes = (
"283 0 LINE",
"283 161 LINE",
"390 273 LINE",
"593 0 LINE",
"882 0 LINE",
"553 428 LINE",
"858 729 LINE",
"563 729 LINE",
"283 427 LINE",
"283 729 LINE",
"54 729 LINE",
"54 0 LINE"
);
}
);
width = 876;
},
{
anchors = (
{
name = bottom;
position = "{131, 0}";
},
{
name = top;
position = "{282, 729}";
}
);
layerId = "23BA42C1-D468-4A44-9BE5-E18AE60B7926";
paths = (
{
closed = 1;
nodes = (
"30 0 LINE",
"81 247 LINE",
"189 392 LINE",
"261 0 LINE",
"292 0 LINE",
"212 424 LINE",
"437 729 LINE",
"402 729 LINE",
"94 309 LINE",
"181 729 LINE",
"151 729 LINE",
"0 0 LINE"
);
}
);
width = 368;
},
{
anchors = (
{
name = bottom;
position = "{187, 0}";
},
{
name = top;
position = "{338, 729}";
}
);
layerId = "2D4E69BA-A319-45D0-84B7-5297BCF4B7A0";
paths = (
{
closed = 1;
nodes = (
"139 0 LINE",
"171 165 LINE",
"226 274 LINE",
"217 0 LINE",
"408 0 LINE",
"388 428 LINE",
"560 729 LINE",
"370 729 LINE",
"224 416 LINE",
"290 729 LINE",
"115 729 LINE",
"-37 0 LINE"
);
}
);
width = 486;
},
{
anchors = (
{
name = bottom;
position = "{260, 0}";
},
{
name = top;
position = "{411, 729}";
}
);
layerId = "095FE76F-1953-440B-9108-AA0678D151F9";
paths = (
{
closed = 1;
nodes = (
"76 0 LINE",
"126 241 LINE",
"315 401 LINE",
"515 0 LINE",
"556 0 LINE",
"344 425 LINE",
"701 729 LINE",
"646 729 LINE",
"137 291 LINE",
"228 729 LINE",
"191 729 LINE",
"39 0 LINE"
);
}
);
width = 627;
},
{
anchors = (
{
name = bottom;
position = "{316, 0}";
},
{
name = top;
position = "{467, 729}";
}
);
layerId = "63AAE8D6-1DFF-4DD4-BD9A-49272FE52904";
paths = (
{
closed = 1;
nodes = (
"204 0 LINE",
"243 192 LINE",
"341 283 LINE",
"454 0 LINE",
"675 0 LINE",
"494 421 LINE",
"816 729 LINE",
"569 729 LINE",
"297 450 LINE",
"355 729 LINE",
"154 729 LINE",
"3 0 LINE"
);
}
);
width = 744;
},
{
anchors = (
{
name = bottom;
position = "{290, 0}";
},
{
name = top;
position = "{441, 729}";
}
);
layerId = "C17B1F32-8075-45B4-AA59-7DAFF0D7E404";
paths = (
{
closed = 1;
nodes = (
"43 0 LINE",
"78 174 LINE",
"338 387 LINE",
"563 0 LINE",
"607 0 LINE",
"367 410 LINE",
"751 729 LINE",
"700 729 LINE",
"89 221 LINE",
"194 729 LINE",
"158 729 LINE",
"7 0 LINE"
);
}
);
width = 687;
},
{
anchors = (
{
name = bottom;
position = "{378, 0}";
},
{
name = top;
position = "{529, 729}";
}
);
layerId = "377EF8AC-8B0D-46C2-96BB-3B5B69A8F571";
paths = (
{
closed = 1;
nodes = (
"215 0 LINE",
"250 170 LINE",
"388 286 LINE",
"543 0 LINE",
"807 0 LINE",
"569 419 LINE",
"927 729 LINE",
"636 729 LINE",
"304 430 LINE",
"366 729 LINE",
"139 729 LINE",
"-12 0 LINE"
);
}
);
width = 868;
}
);
leftKerningGroup = B;
leftMetricsKey = H;
rightKerningGroup = K;
unicode = 004B;
},
{
glyphname = L;
lastChange = "2022-08-11 17:04:04 +0000";
layers = (
{
anchors = (
{
name = bottom;
position = "{173, 0}";
},
{
name = center;
position = "{173, 365}";
},
{
name = top;
position = "{173, 729}";
},
{
name = topright;
position = "{319, 729}";
}
);
layerId = "E787E54A-EE3E-475A-BF02-8501A6DA5144";
paths = (
{
closed = 1;
nodes = (
"335 0 LINE",
"335 163 LINE",
"180 163 LINE",
"205 136 LINE",
"205 729 LINE",
"28 729 LINE",
"28 0 LINE"
);
}
);
width = 342;
},
{
anchors = (
{
name = bottom;
position = "{141, 0}";
},
{
name = center;
position = "{141, 365}";
},
{
name = top;
position = "{141, 729}";
},
{
name = topright;
position = "{261, 729}";
}
);
layerId = "5713303B-ED49-44A7-8230-B5CAE56DEB7E";
paths = (
{
closed = 1;
nodes = (
"259 0 LINE",
"259 29 LINE",
"82 29 LINE",
"96 17 LINE",
"96 729 LINE",
"65 729 LINE",
"65 0 LINE"
);
}
);
width = 281;
},
{
anchors = (
{
name = bottom;
position = "{288, 0}";
},
{
name = center;
position = "{288, 365}";
},
{
name = top;
position = "{288, 729}";
},
{
name = topright;
position = "{554, 729}";
}
);
layerId = master01;
paths = (
{
closed = 1;
nodes = (
"523 0 LINE",
"523 37 LINE",
"123 37 LINE",
"141 15 LINE",
"141 729 LINE",
"103 729 LINE",
"103 0 LINE"
);
}
);
userData = {
com.schriftgestaltung.Glyphs.glyph.leftMetricsKey = H;
com.schriftgestaltung.hints = (
{
horizontal = 1;
options = 0;
origin = (
0,
2
);
stem = -2;
target = (
0,
5
);
type = Stem;
},
{
horizontal = 1;
options = 0;
origin = (
0,
4
);
stem = -2;
target = (
d,
o,
w,
n
);
type = TopGhost;
},
{
horizontal = 0;
options = 0;
origin = (
0,
5
);
stem = -2;
target = (
0,
2
);
type = Stem;
}
);
};
width = 533;
},
{
anchors = (
{
name = bottom;
position = "{297, 0}";
},
{
name = center;
position = "{297, 365}";
},
{
name = top;
position = "{297, 729}";
},
{
name = topright;
position = "{564, 729}";
}
);
layerId = "1EDCBF6C-9964-4A28-BC87-E86B534B8BE7";
paths = (
{
closed = 1;
nodes = (
"574 0 LINE",
"574 179 LINE",
"247 179 LINE",
"272 151 LINE",
"272 729 LINE",
"69 729 LINE",
"69 0 LINE"
);
}
);
userData = {
com.schriftgestaltung.Glyphs.glyph.leftMetricsKey = H;
};
width = 582;
},
{
anchors = (
{
name = bottom;
position = "{279, 0}";
},
{
name = center;
position = "{279, 365}";
},
{
name = top;
position = "{279, 729}";
},
{
name = topright;
position = "{536, 729}";
}
);
layerId = "28A8A76A-23B4-40F5-83B9-DC51E48BF161";
paths = (
{
closed = 1;
nodes = (
"559 0 LINE",
"559 37 LINE",
"91 37 LINE",
"109 23 LINE",
"109 729 LINE",
"71 729 LINE",
"71 0 LINE"
);
}
);
width = 581;
},
{
anchors = (
{
name = bottom;
position = "{320, 0}";
},
{
name = center;
position = "{320, 365}";
},
{
name = top;
position = "{320, 729}";
},
{
name = topright;
position = "{608, 729}";
}
);
layerId = "D2144554-01B8-4B9B-B16A-E0E5B5794DFC";
paths = (
{
closed = 1;
nodes = (
"613 0 LINE",
"613 186 LINE",
"238 186 LINE",
"283 141 LINE",
"283 729 LINE",
"54 729 LINE",
"54 0 LINE"
);
}
);
width = 624;
},
{
anchors = (
{
name = bottom;
position = "{86, 0}";
},
{
name = center;
position = "{161, 365}";
},
{
name = top;
position = "{237, 729}";
},
{
name = topright;
position = "{356, 729}";
}
);
layerId = "23BA42C1-D468-4A44-9BE5-E18AE60B7926";
paths = (
{
closed = 1;
nodes = (
"192 0 LINE",
"198 29 LINE",
"28 29 LINE",
"35 21 LINE",
"182 729 LINE",
"151 729 LINE",
"0 0 LINE"
);
}
);
width = 278;
},
{
anchors = (
{
name = bottom;
position = "{117, 0}";
},
{
name = center;
position = "{193, 365}";
},
{
name = top;
position = "{268, 729}";
},
{
name = topright;
position = "{421, 729}";
}
);
layerId = "2D4E69BA-A319-45D0-84B7-5297BCF4B7A0";
paths = (
{
closed = 1;
nodes = (
"267 0 LINE",
"301 163 LINE",
"158 163 LINE",
"168 149 LINE",
"290 729 LINE",
"115 729 LINE",
"-37 0 LINE"
);
}
);
width = 346;
},
{
anchors = (
{
name = bottom;
position = "{206, 0}";
},
{
name = center;
position = "{282, 365}";
},
{
name = top;
position = "{357, 729}";
},
{
name = topright;
position = "{597, 729}";
}
);
layerId = "095FE76F-1953-440B-9108-AA0678D151F9";
paths = (
{
closed = 1;
nodes = (
"445 0 LINE",
"452 37 LINE",
"70 37 LINE",
"80 25 LINE",
"227 729 LINE",
"190 729 LINE",
"39 0 LINE"
);
}
);
width = 520;
},
{
anchors = (
{
name = bottom;
position = "{228, 0}";
},
{
name = center;
position = "{303, 365}";
},
{
name = top;
position = "{379, 729}";
},
{
name = topright;
position = "{643, 729}";
}
);
layerId = "63AAE8D6-1DFF-4DD4-BD9A-49272FE52904";
paths = (
{
closed = 1;
nodes = (
"493 0 LINE",
"530 179 LINE",
"230 179 LINE",
"239 168 LINE",
"355 729 LINE",
"154 729 LINE",
"3 0 LINE"
);
}
);
width = 568;
},
{
anchors = (
{
name = bottom;
position = "{234, 0}";
},
{
name = center;
position = "{310, 365}";
},
{
name = top;
position = "{385, 729}";
},
{
name = topright;
position = "{652, 729}";
}
);
layerId = "C17B1F32-8075-45B4-AA59-7DAFF0D7E404";
paths = (
{
closed = 1;
nodes = (
"488 0 LINE",
"495 36 LINE",
"43 36 LINE",
"51 28 LINE",
"196 729 LINE",
"158 729 LINE",
"7 0 LINE"
);
}
);
width = 575;
},
{
anchors = (
{
name = bottom;
position = "{254, 0}";
},
{
name = center;
position = "{329, 365}";
},
{
name = top;
position = "{405, 729}";
},
{
name = topright;
position = "{694, 729}";
}
);
layerId = "377EF8AC-8B0D-46C2-96BB-3B5B69A8F571";
paths = (
{
closed = 1;
nodes = (
"541 0 LINE",
"580 186 LINE",
"209 186 LINE",
"245 142 LINE",
"366 729 LINE",
"139 729 LINE",
"-12 0 LINE"
);
}
);
width = 619;
}
);
leftKerningGroup = B;
leftMetricsKey = H;
rightKerningGroup = L;
unicode = 004C;
},
{
glyphname = M;
lastChange = "2022-08-11 16:47:25 +0000";
layers = (
{
anchors = (
{
name = bottom;
position = "{322, 0}";
},
{
name = top;
position = "{322, 729}";
}
);
background = {
paths = (
{
closed = 1;
nodes = (
"234 0 LINE",
"234 153 LINE SMOOTH",
"234 230 OFFCURVE",
"231 312 OFFCURVE",
"219 448 CURVE",
"225 448 LINE",
"230 419 OFFCURVE",
"237 385 OFFCURVE",
"245 350 CURVE SMOOTH",
"331 -16 LINE",
"409 340 LINE SMOOTH",
"418 383 OFFCURVE",
"426 420 OFFCURVE",
"431 448 CURVE",
"437 448 LINE",
"424 314 OFFCURVE",
"421 233 OFFCURVE",
"421 155 CURVE SMOOTH",
"421 0 LINE",
"596 0 LINE",
"596 729 LINE",
"368 729 LINE",
"344 488 LINE",
"338 488 LINE",
"306 729 LINE",
"58 729 LINE",
"58 0 LINE"
);
}
);
};
layerId = "E787E54A-EE3E-475A-BF02-8501A6DA5144";
paths = (
{
closed = 1;
nodes = (
"197 0 LINE",
"197 162 LINE",
"195 503 LINE",
"201 503 LINE",
"266 0 LINE",
"378 0 LINE",
"443 503 LINE",
"449 503 LINE",
"447 162 LINE",
"447 0 LINE",
"616 0 LINE",
"616 729 LINE",
"369 729 LINE",
"325 328 LINE",
"318 328 LINE",
"273 729 LINE",
"28 729 LINE",
"28 0 LINE"
);
}
);
width = 644;
},
{
anchors = (
{
name = bottom;
position = "{257, 0}";
},
{
name = top;
position = "{257, 729}";
}
);
layerId = "5713303B-ED49-44A7-8230-B5CAE56DEB7E";
paths = (
{
closed = 1;
nodes = (
"97 0 LINE",
"97 414 LINE",
"94 693 LINE",
"100 693 LINE",
"242 0 LINE",
"271 0 LINE",
"412 693 LINE",
"419 693 LINE",
"416 414 LINE",
"416 0 LINE",
"448 0 LINE",
"448 729 LINE",
"389 729 LINE",
"256 75 LINE",
"255 75 LINE",
"123 729 LINE",
"65 729 LINE",
"65 0 LINE"
);
}
);
width = 513;
},
{
anchors = (
{
name = bottom;
position = "{449, 0}";
},
{
name = top;
position = "{449, 729}";
}
);
layerId = master01;
paths = (
{
closed = 1;
nodes = (
"141 0 LINE",
"141 420 LINE",
"139 686 LINE",
"145 686 LINE",
"431 0 LINE",
"467 0 LINE",
"752 686 LINE",
"759 686 LINE",
"756 420 LINE",
"756 0 LINE",
"795 0 LINE",
"795 729 LINE",
"733 729 LINE",
"449 50 LINE",
"447 50 LINE",
"165 729 LINE",
"103 729 LINE",
"103 0 LINE"
);
}
);
userData = {
com.schriftgestaltung.Glyphs.glyph.leftMetricsKey = H;
com.schriftgestaltung.Glyphs.glyph.rightMetricsKey = H;
com.schriftgestaltung.hints = (
{
horizontal = 1;
options = 0;
origin = (
0,
16
);
stem = -2;
target = (
u,
p
);
type = BottomGhost;
},
{
horizontal = 1;
options = 0;
origin = (
0,
15
);
stem = -2;
target = (
0,
2
);
type = Stem;
},
{
horizontal = 0;
options = 0;
origin = (
0,
16
);
stem = -2;
target = (
0,
0
);
type = Stem;
},
{
horizontal = 0;
options = 0;
origin = (
0,
8
);
stem = -2;
target = (
0,
9
);
type = Stem;
}
);
};
width = 898;
},
{
anchors = (
{
name = bottom;
position = "{475, 0}";
},
{
name = top;
position = "{475, 729}";
}
);
layerId = "1EDCBF6C-9964-4A28-BC87-E86B534B8BE7";
paths = (
{
closed = 1;
nodes = (
"267 0 LINE",
"267 233 LINE",
"264 518 LINE",
"273 518 LINE",
"393 0 LINE",
"559 0 LINE",
"679 518 LINE",
"686 518 LINE",
"684 235 LINE",
"684 0 LINE",
"880 0 LINE",
"880 729 LINE",
"574 729 LINE",
"480 333 LINE",
"472 333 LINE",
"375 729 LINE",
"69 729 LINE",
"69 0 LINE"
);
}
);
userData = {
com.schriftgestaltung.Glyphs.glyph.leftMetricsKey = H;
com.schriftgestaltung.Glyphs.glyph.rightMetricsKey = H;
};
width = 949;
},
{
associatedMasterId = "5713303B-ED49-44A7-8230-B5CAE56DEB7E";
background = {
paths = (
{
closed = 1;
nodes = (
"104 0 LINE",
"104 400 LINE",
"103 703 LINE",
"109 703 LINE",
"225 0 LINE",
"299 0 LINE",
"414 703 LINE",
"421 703 LINE",
"420 400 LINE",
"420 0 LINE",
"459 0 LINE",
"459 729 LINE",
"370 729 LINE",
"262 79 LINE",
"260 79 LINE",
"153 729 LINE",
"65 729 LINE",
"65 0 LINE"
);
}
);
};
layerId = "3EA3B1CB-93A8-4797-B6E7-F37D7992F5D0";
name = "[300]";
paths = (
{
closed = 1;
nodes = (
"97 0 LINE",
"97 414 LINE",
"94 693 LINE",
"100 693 LINE",
"227 0 LINE",
"286 0 LINE",
"412 693 LINE",
"419 693 LINE",
"416 414 LINE",
"416 0 LINE",
"448 0 LINE",
"448 729 LINE",
"371 729 LINE",
"256 75 LINE",
"255 75 LINE",
"141 729 LINE",
"65 729 LINE",
"65 0 LINE"
);
}
);
width = 513;
},
{
associatedMasterId = "E787E54A-EE3E-475A-BF02-8501A6DA5144";
background = {
paths = (
{
closed = 1;
nodes = (
"213 0 LINE",
"213 133 LINE",
"211 480 LINE",
"217 480 LINE",
"274 0 LINE",
"394 0 LINE",
"451 480 LINE",
"457 480 LINE",
"455 133 LINE",
"455 0 LINE",
"640 0 LINE",
"640 729 LINE",
"371 729 LINE",
"337 358 LINE",
"330 358 LINE",
"296 729 LINE",
"28 729 LINE",
"28 0 LINE"
);
}
);
};
layerId = "4F054EF2-639E-4250-AAE2-4C591229F04D";
name = "[300]";
paths = (
{
closed = 1;
nodes = (
"198 0 LINE",
"198 133 LINE",
"196 560 LINE",
"202 560 LINE",
"264 0 LINE",
"404 0 LINE",
"466 560 LINE",
"472 560 LINE",
"470 133 LINE",
"470 0 LINE",
"640 0 LINE",
"640 729 LINE",
"371 729 LINE",
"337 318 LINE",
"330 318 LINE",
"296 729 LINE",
"28 729 LINE",
"28 0 LINE"
);
}
);
width = 668;
},
{
associatedMasterId = master01;
layerId = "38F36531-5584-41F9-ADC9-6FA99919B1E5";
name = "[300]";
paths = (
{
closed = 1;
nodes = (
"141 0 LINE",
"141 420 LINE",
"139 686 LINE",
"145 686 LINE",
"431 0 LINE",
"467 0 LINE",
"752 686 LINE",
"759 686 LINE",
"756 420 LINE",
"756 0 LINE",
"795 0 LINE",
"795 729 LINE",
"733 729 LINE",
"449 50 LINE",
"447 50 LINE",
"165 729 LINE",
"103 729 LINE",
"103 0 LINE"
);
}
);
userData = {
com.schriftgestaltung.Glyphs.glyph.leftMetricsKey = H;
com.schriftgestaltung.Glyphs.glyph.rightMetricsKey = H;
com.schriftgestaltung.hints = (
{
horizontal = 1;
options = 0;
origin = (
0,
16
);
stem = -2;
target = (
u,
p
);
type = BottomGhost;
},
{
horizontal = 1;
options = 0;
origin = (
0,
15
);
stem = -2;
target = (
0,
2
);
type = Stem;
},
{
horizontal = 0;
options = 0;
origin = (
0,
16
);
stem = -2;
target = (
0,
0
);
type = Stem;
},
{
horizontal = 0;
options = 0;
origin = (
0,
8
);
stem = -2;
target = (
0,
9
);
type = Stem;
}
);
};
width = 898;
},
{
associatedMasterId = "1EDCBF6C-9964-4A28-BC87-E86B534B8BE7";
layerId = "92A9B09C-B43A-4071-8E30-B52A12EB5D23";
name = "[300]";
paths = (
{
closed = 1;
nodes = (
"267 0 LINE",
"267 233 LINE",
"264 518 LINE",
"273 518 LINE",
"398 0 LINE",
"554 0 LINE",
"679 518 LINE",
"686 518 LINE",
"684 235 LINE",
"684 0 LINE",
"880 0 LINE",
"880 729 LINE",
"574 729 LINE",
"480 333 LINE",
"472 333 LINE",
"375 729 LINE",
"69 729 LINE",
"69 0 LINE"
);
}
);
userData = {
com.schriftgestaltung.Glyphs.glyph.leftMetricsKey = H;
com.schriftgestaltung.Glyphs.glyph.rightMetricsKey = H;
};
width = 949;
},
{
anchors = (
{
name = bottom;
position = "{460, 0}";
},
{
name = top;
position = "{460, 729}";
}
);
layerId = "28A8A76A-23B4-40F5-83B9-DC51E48BF161";
paths = (
{
closed = 1;
nodes = (
"109 0 LINE",
"109 420 LINE",
"107 686 LINE",
"113 686 LINE",
"443 0 LINE",
"477 0 LINE",
"806 686 LINE",
"813 686 LINE",
"810 420 LINE",
"810 0 LINE",
"849 0 LINE",
"849 729 LINE",
"786 729 LINE",
"460 50 LINE",
"458 50 LINE",
"133 729 LINE",
"71 729 LINE",
"71 0 LINE"
);
}
);
width = 920;
},
{
anchors = (
{
name = bottom;
position = "{519, 0}";
},
{
name = top;
position = "{519, 729}";
}
);
layerId = "D2144554-01B8-4B9B-B16A-E0E5B5794DFC";
paths = (
{
closed = 1;
nodes = (
"268 0 LINE",
"268 233 LINE",
"265 503 LINE",
"275 503 LINE",
"421 0 LINE",
"619 0 LINE",
"765 503 LINE",
"774 503 LINE",
"772 235 LINE",
"772 0 LINE",
"984 0 LINE",
"984 729 LINE",
"644 729 LINE",
"525 277 LINE",
"517 277 LINE",
"394 729 LINE",
"54 729 LINE",
"54 0 LINE"
);
}
);
width = 1038;
},
{
associatedMasterId = "28A8A76A-23B4-40F5-83B9-DC51E48BF161";
layerId = "9EC30BA4-26BE-4FBC-8572-943EEEC4E0FA";
name = "[300]";
paths = (
{
closed = 1;
nodes = (
"109 0 LINE",
"109 420 LINE",
"107 686 LINE",
"113 686 LINE",
"443 0 LINE",
"477 0 LINE",
"806 686 LINE",
"813 686 LINE",
"810 420 LINE",
"810 0 LINE",
"849 0 LINE",
"849 729 LINE",
"786 729 LINE",
"460 50 LINE",
"458 50 LINE",
"133 729 LINE",
"71 729 LINE",
"71 0 LINE"
);
}
);
width = 920;
},
{
associatedMasterId = "D2144554-01B8-4B9B-B16A-E0E5B5794DFC";
layerId = "FEA6AB38-8D31-4C1D-9654-5872CE93C4E5";
name = "[300]";
paths = (
{
closed = 1;
nodes = (
"268 0 LINE",
"268 233 LINE",
"265 503 LINE",
"275 503 LINE",
"421 0 LINE",
"619 0 LINE",
"765 503 LINE",
"774 503 LINE",
"772 235 LINE",
"772 0 LINE",
"984 0 LINE",
"984 729 LINE",
"644 729 LINE",
"525 277 LINE",
"517 277 LINE",
"394 729 LINE",
"54 729 LINE",
"54 0 LINE"
);
}
);
width = 1038;
},
{
anchors = (
{
name = bottom;
position = "{201, 0}";
},
{
name = top;
position = "{352, 729}";
}
);
layerId = "23BA42C1-D468-4A44-9BE5-E18AE60B7926";
paths = (
{
closed = 1;
nodes = (
"32 0 LINE",
"117 414 LINE",
"174 693 LINE",
"180 693 LINE",
"175 0 LINE",
"204 0 LINE",
"489 693 LINE",
"495 693 LINE",
"434 414 LINE",
"347 0 LINE",
"379 0 LINE",
"530 729 LINE",
"472 729 LINE",
"206 75 LINE",
"204 75 LINE",
"209 729 LINE",
"151 729 LINE",
"0 0 LINE"
);
}
);
width = 507;
},
{
anchors = (
{
name = bottom;
position = "{277, 0}";
},
{
name = top;
position = "{428, 729}";
}
);
layerId = "2D4E69BA-A319-45D0-84B7-5297BCF4B7A0";
paths = (
{
closed = 1;
nodes = (
"132 0 LINE",
"159 133 LINE",
"246 560 LINE",
"252 560 LINE",
"197 0 LINE",
"336 0 LINE",
"514 560 LINE",
"520 560 LINE",
"428 133 LINE",
"401 0 LINE",
"569 0 LINE",
"721 729 LINE",
"455 729 LINE",
"336 318 LINE",
"329 318 LINE",
"381 729 LINE",
"116 729 LINE",
"-37 0 LINE"
);
}
);
width = 665;
},
{
anchors = (
{
name = bottom;
position = "{392, 0}";
},
{
name = top;
position = "{543, 729}";
}
);
layerId = "095FE76F-1953-440B-9108-AA0678D151F9";
paths = (
{
closed = 1;
nodes = (
"76 0 LINE",
"164 420 LINE",
"217 686 LINE",
"223 686 LINE",
"363 0 LINE",
"399 0 LINE",
"824 686 LINE",
"831 686 LINE",
"773 420 LINE",
"685 0 LINE",
"724 0 LINE",
"875 729 LINE",
"813 729 LINE",
"392 50 LINE",
"390 50 LINE",
"251 729 LINE",
"190 729 LINE",
"39 0 LINE"
);
}
);
width = 891;
},
{
anchors = (
{
name = bottom;
position = "{416, 0}";
},
{
name = top;
position = "{567, 729}";
}
);
layerId = "63AAE8D6-1DFF-4DD4-BD9A-49272FE52904";
paths = (
{
closed = 1;
nodes = (
"199 0 LINE",
"248 233 LINE",
"304 518 LINE",
"313 518 LINE",
"324 0 LINE",
"488 0 LINE",
"715 518 LINE",
"722 518 LINE",
"661 235 LINE",
"612 0 LINE",
"806 0 LINE",
"958 729 LINE",
"655 729 LINE",
"480 333 LINE",
"472 333 LINE",
"458 729 LINE",
"155 729 LINE",
"3 0 LINE"
);
}
);
width = 943;
},
{
anchors = (
{
name = bottom;
position = "{403, 0}";
},
{
name = top;
position = "{554, 729}";
}
);
layerId = "C17B1F32-8075-45B4-AA59-7DAFF0D7E404";
paths = (
{
closed = 1;
nodes = (
"45 0 LINE",
"132 420 LINE",
"185 686 LINE",
"191 686 LINE",
"375 0 LINE",
"409 0 LINE",
"877 686 LINE",
"884 686 LINE",
"826 420 LINE",
"739 0 LINE",
"777 0 LINE",
"928 729 LINE",
"866 729 LINE",
"403 50 LINE",
"401 50 LINE",
"219 729 LINE",
"158 729 LINE",
"7 0 LINE"
);
}
);
width = 913;
},
{
anchors = (
{
name = bottom;
position = "{459, 0}";
},
{
name = top;
position = "{610, 729}";
}
);
layerId = "377EF8AC-8B0D-46C2-96BB-3B5B69A8F571";
paths = (
{
closed = 1;
nodes = (
"200 0 LINE",
"249 233 LINE",
"302 503 LINE",
"311 503 LINE",
"350 0 LINE",
"548 0 LINE",
"797 503 LINE",
"805 503 LINE",
"748 235 LINE",
"699 0 LINE",
"909 0 LINE",
"1060 729 LINE",
"720 729 LINE",
"509 277 LINE",
"501 277 LINE",
"473 729 LINE",
"139 729 LINE",
"-12 0 LINE"
);
}
);
width = 1029;
}
);
leftKerningGroup = B;
leftMetricsKey = H;
rightKerningGroup = H;
rightMetricsKey = H;
unicode = 004D;
},
{
glyphname = N;
lastChange = "2022-08-11 16:47:25 +0000";
layers = (
{
anchors = (
{
name = bottom;
position = "{243, 0}";
},
{
name = top;
position = "{243, 729}";
}
);
layerId = "E787E54A-EE3E-475A-BF02-8501A6DA5144";
paths = (
{
closed = 1;
nodes = (
"192 0 LINE",
"192 157 LINE",
"183 358 LINE",
"189 358 LINE",
"270 0 LINE",
"457 0 LINE",
"457 729 LINE",
"293 729 LINE",
"293 575 LINE",
"302 366 LINE",
"295 366 LINE",
"217 729 LINE",
"28 729 LINE",
"28 0 LINE"
);
}
);
width = 485;
},
{
anchors = (
{
name = bottom;
position = "{222, 0}";
},
{
name = top;
position = "{222, 729}";
}
);
layerId = "5713303B-ED49-44A7-8230-B5CAE56DEB7E";
paths = (
{
closed = 1;
nodes = (
"97 0 LINE",
"97 416 LINE",
"93 672 LINE",
"99 672 LINE",
"331 0 LINE",
"379 0 LINE",
"379 729 LINE",
"347 729 LINE",
"347 322 LINE",
"351 56 LINE",
"346 56 LINE",
"112 729 LINE",
"65 729 LINE",
"65 0 LINE"
);
}
);
width = 444;
},
{
anchors = (
{
name = bottom;
position = "{391, 0}";
},
{
name = top;
position = "{391, 729}";
}
);
layerId = master01;
paths = (
{
closed = 1;
nodes = (
"141 0 LINE",
"141 436 LINE",
"138 686 LINE",
"143 686 LINE",
"624 0 LINE",
"679 0 LINE",
"679 729 LINE",
"641 729 LINE",
"641 303 LINE",
"645 43 LINE",
"640 43 LINE",
"158 729 LINE",
"103 729 LINE",
"103 0 LINE"
);
}
);
userData = {
com.schriftgestaltung.Glyphs.glyph.leftMetricsKey = H;
com.schriftgestaltung.Glyphs.glyph.rightMetricsKey = H;
com.schriftgestaltung.hints = (
{
horizontal = 1;
options = 0;
origin = (
0,
10
);
stem = -2;
target = (
0,
13
);
type = Stem;
},
{
horizontal = 1;
options = 0;
origin = (
0,
12
);
stem = -2;
target = (
0,
2
);
type = Stem;
},
{
horizontal = 0;
options = 0;
origin = (
0,
13
);
stem = -2;
target = (
0,
0
);
type = Stem;
},
{
horizontal = 0;
options = 0;
origin = (
0,
8
);
stem = -2;
target = (
0,
5
);
type = Stem;
}
);
};
width = 782;
},
{
anchors = (
{
name = bottom;
position = "{405, 0}";
},
{
name = top;
position = "{405, 729}";
}
);
background = {
paths = (
{
closed = 1;
nodes = (
"282 0 LINE",
"282 196 LINE",
"276 431 LINE",
"284 431 LINE",
"496 0 LINE",
"741 0 LINE",
"741 729 LINE",
"540 729 LINE",
"540 534 LINE",
"546 292 LINE",
"538 292 LINE",
"335 729 LINE",
"69 729 LINE",
"69 0 LINE"
);
}
);
};
layerId = "1EDCBF6C-9964-4A28-BC87-E86B534B8BE7";
paths = (
{
closed = 1;
nodes = (
"276 0 LINE",
"276 236 LINE",
"271 431 LINE",
"279 431 LINE",
"516 0 LINE",
"741 0 LINE",
"741 729 LINE",
"546 729 LINE",
"546 504 LINE",
"553 282 LINE",
"545 282 LINE",
"308 729 LINE",
"69 729 LINE",
"69 0 LINE"
);
}
);
userData = {
com.schriftgestaltung.Glyphs.glyph.leftMetricsKey = H;
com.schriftgestaltung.Glyphs.glyph.rightMetricsKey = H;
};
width = 810;
},
{
anchors = (
{
name = bottom;
position = "{401, 0}";
},
{
name = top;
position = "{401, 729}";
}
);
layerId = "28A8A76A-23B4-40F5-83B9-DC51E48BF161";
paths = (
{
closed = 1;
nodes = (
"109 0 LINE",
"109 436 LINE",
"106 686 LINE",
"111 686 LINE",
"680 0 LINE",
"732 0 LINE",
"732 729 LINE",
"694 729 LINE",
"694 303 LINE",
"698 43 LINE",
"693 43 LINE",
"123 729 LINE",
"71 729 LINE",
"71 0 LINE"
);
}
);
width = 803;
},
{
anchors = (
{
name = bottom;
position = "{448, 0}";
},
{
name = top;
position = "{448, 729}";
}
);
layerId = "D2144554-01B8-4B9B-B16A-E0E5B5794DFC";
paths = (
{
closed = 1;
nodes = (
"285 0 LINE",
"285 226 LINE",
"278 424 LINE",
"287 424 LINE",
"569 0 LINE",
"841 0 LINE",
"841 729 LINE",
"614 729 LINE",
"614 504 LINE",
"620 299 LINE",
"612 299 LINE",
"330 729 LINE",
"54 729 LINE",
"54 0 LINE"
);
}
);
width = 895;
},
{
anchors = (
{
name = bottom;
position = "{167, 0}";
},
{
name = top;
position = "{318, 729}";
}
);
layerId = "23BA42C1-D468-4A44-9BE5-E18AE60B7926";
paths = (
{
closed = 1;
nodes = (
"32 0 LINE",
"117 416 LINE",
"168 672 LINE",
"174 672 LINE",
"263 0 LINE",
"311 0 LINE",
"462 729 LINE",
"430 729 LINE",
"347 322 LINE",
"295 56 LINE",
"290 56 LINE",
"198 729 LINE",
"151 729 LINE",
"0 0 LINE"
);
}
);
width = 439;
},
{
anchors = (
{
name = bottom;
position = "{186, 0}";
},
{
name = top;
position = "{337, 729}";
}
);
layerId = "2D4E69BA-A319-45D0-84B7-5297BCF4B7A0";
paths = (
{
closed = 1;
nodes = (
"126 0 LINE",
"157 157 LINE",
"192 358 LINE",
"198 358 LINE",
"203 0 LINE",
"388 0 LINE",
"539 729 LINE",
"377 729 LINE",
"345 575 LINE",
"312 366 LINE",
"305 366 LINE",
"302 729 LINE",
"115 729 LINE",
"-37 0 LINE"
);
}
);
width = 483;
},
{
anchors = (
{
name = bottom;
position = "{330, 0}";
},
{
name = top;
position = "{481, 729}";
}
);
layerId = "095FE76F-1953-440B-9108-AA0678D151F9";
paths = (
{
closed = 1;
nodes = (
"76 0 LINE",
"167 436 LINE",
"217 686 LINE",
"221 686 LINE",
"547 0 LINE",
"600 0 LINE",
"751 729 LINE",
"714 729 LINE",
"625 303 LINE",
"575 43 LINE",
"570 43 LINE",
"242 729 LINE",
"190 729 LINE",
"39 0 LINE"
);
}
);
width = 767;
},
{
anchors = (
{
name = bottom;
position = "{339, 0}";
},
{
name = top;
position = "{490, 729}";
}
);
layerId = "63AAE8D6-1DFF-4DD4-BD9A-49272FE52904";
paths = (
{
closed = 1;
nodes = (
"204 0 LINE",
"253 236 LINE",
"283 431 LINE",
"291 431 LINE",
"426 0 LINE",
"653 0 LINE",
"805 729 LINE",
"606 729 LINE",
"557 494 LINE",
"526 292 LINE",
"518 292 LINE",
"382 729 LINE",
"154 729 LINE",
"3 0 LINE"
);
}
);
width = 790;
},
{
anchors = (
{
name = bottom;
position = "{344, 0}";
},
{
name = top;
position = "{495, 729}";
}
);
layerId = "C17B1F32-8075-45B4-AA59-7DAFF0D7E404";
paths = (
{
closed = 1;
nodes = (
"45 0 LINE",
"135 436 LINE",
"186 689 LINE",
"190 689 LINE",
"608 0 LINE",
"659 0 LINE",
"811 729 LINE",
"773 729 LINE",
"686 303 LINE",
"633 40 LINE",
"628 40 LINE",
"211 729 LINE",
"158 729 LINE",
"7 0 LINE"
);
}
);
width = 796;
},
{
anchors = (
{
name = bottom;
position = "{387, 0}";
},
{
name = top;
position = "{538, 729}";
}
);
layerId = "377EF8AC-8B0D-46C2-96BB-3B5B69A8F571";
paths = (
{
closed = 1;
nodes = (
"215 0 LINE",
"264 232 LINE",
"300 441 LINE",
"308 441 LINE",
"498 0 LINE",
"765 0 LINE",
"916 729 LINE",
"692 729 LINE",
"644 498 LINE",
"605 282 LINE",
"597 282 LINE",
"408 729 LINE",
"139 729 LINE",
"-12 0 LINE"
);
}
);
width = 885;
}
);
leftKerningGroup = B;
leftMetricsKey = H;
rightKerningGroup = H;
rightMetricsKey = H;
unicode = 004E;
},
{
glyphname = O;
lastChange = "2022-08-11 18:43:49 +0000";
layers = (
{
anchors = (
{
name = bottom;
position = "{255, 0}";
},
{
name = center;
position = "{255, 365}";
},
{
name = ogonek;
position = "{457, 10}";
},
{
name = top;
position = "{255, 729}";
},
{
name = topleft;
position = "{22, 729}";
},
{
name = topright;
position = "{488, 729}";
}
);
layerId = "E787E54A-EE3E-475A-BF02-8501A6DA5144";
paths = (
{
closed = 1;
nodes = (
"435 -9 OFFCURVE",
"486 136 OFFCURVE",
"486 365 CURVE SMOOTH",
"486 594 OFFCURVE",
"435 739 OFFCURVE",
"255 739 CURVE SMOOTH",
"76 739 OFFCURVE",
"24 595 OFFCURVE",
"24 365 CURVE SMOOTH",
"24 135 OFFCURVE",
"76 -9 OFFCURVE",
"255 -9 CURVE SMOOTH"
);
},
{
closed = 1;
nodes = (
"217 147 OFFCURVE",
"205 202 OFFCURVE",
"205 365 CURVE SMOOTH",
"205 515 OFFCURVE",
"213 583 OFFCURVE",
"255 583 CURVE SMOOTH",
"293 583 OFFCURVE",
"306 529 OFFCURVE",
"306 365 CURVE SMOOTH",
"306 217 OFFCURVE",
"298 147 OFFCURVE",
"255 147 CURVE SMOOTH"
);
}
);
width = 510;
},
{
anchors = (
{
name = bottom;
position = "{203, 0}";
},
{
name = center;
position = "{203, 365}";
},
{
name = ogonek;
position = "{365, 10}";
},
{
name = top;
position = "{203, 729}";
},
{
name = topleft;
position = "{20, 729}";
},
{
name = topright;
position = "{386, 729}";
}
);
background = {
paths = (
{
closed = 1;
nodes = (
"474 -8 OFFCURVE",
"546 126 OFFCURVE",
"546 366 CURVE SMOOTH",
"546 605 OFFCURVE",
"474 739 OFFCURVE",
"287 739 CURVE SMOOTH",
"100 739 OFFCURVE",
"28 605 OFFCURVE",
"28 366 CURVE SMOOTH",
"28 126 OFFCURVE",
"100 -8 OFFCURVE",
"287 -8 CURVE SMOOTH"
);
},
{
closed = 1;
nodes = (
"133 28 OFFCURVE",
"69 150 OFFCURVE",
"69 337 CURVE SMOOTH",
"69 394 LINE SMOOTH",
"69 581 OFFCURVE",
"133 703 OFFCURVE",
"287 703 CURVE SMOOTH",
"441 703 OFFCURVE",
"505 581 OFFCURVE",
"505 394 CURVE SMOOTH",
"505 337 LINE SMOOTH",
"505 150 OFFCURVE",
"441 28 OFFCURVE",
"287 28 CURVE SMOOTH"
);
}
);
};
layerId = "5713303B-ED49-44A7-8230-B5CAE56DEB7E";
paths = (
{
closed = 1;
nodes = (
"300 -10 OFFCURVE",
"369 61 OFFCURVE",
"369 364 CURVE SMOOTH",
"369 666 OFFCURVE",
"300 738 OFFCURVE",
"203 738 CURVE SMOOTH",
"107 738 OFFCURVE",
"38 667 OFFCURVE",
"38 364 CURVE SMOOTH",
"38 61 OFFCURVE",
"107 -10 OFFCURVE",
"203 -10 CURVE SMOOTH"
);
},
{
closed = 1;
nodes = (
"98 19 OFFCURVE",
"71 158 OFFCURVE",
"71 364 CURVE SMOOTH",
"71 570 OFFCURVE",
"98 709 OFFCURVE",
"203 709 CURVE SMOOTH",
"309 709 OFFCURVE",
"336 569 OFFCURVE",
"336 364 CURVE SMOOTH",
"336 159 OFFCURVE",
"309 19 OFFCURVE",
"203 19 CURVE SMOOTH"
);
}
);
width = 407;
},
{
anchors = (
{
name = bottom;
position = "{396, 0}";
},
{
name = center;
position = "{396, 365}";
},
{
name = ogonek;
position = "{737, 10}";
},
{
name = top;
position = "{396, 729}";
},
{
name = topleft;
position = "{-10, 729}";
},
{
name = topright;
position = "{802, 729}";
}
);
layerId = master01;
paths = (
{
closed = 1;
nodes = (
"606 -8 OFFCURVE",
"746 140 OFFCURVE",
"746 364 CURVE SMOOTH",
"746 587 OFFCURVE",
"608 736 OFFCURVE",
"396 736 CURVE SMOOTH",
"185 736 OFFCURVE",
"46 588 OFFCURVE",
"46 364 CURVE SMOOTH",
"46 142 OFFCURVE",
"184 -8 OFFCURVE",
"396 -8 CURVE SMOOTH"
);
},
{
closed = 1;
nodes = (
"205 28 OFFCURVE",
"87 163 OFFCURVE",
"87 364 CURVE SMOOTH",
"87 565 OFFCURVE",
"204 700 OFFCURVE",
"396 700 CURVE SMOOTH",
"587 700 OFFCURVE",
"706 566 OFFCURVE",
"706 364 CURVE SMOOTH",
"706 164 OFFCURVE",
"588 28 OFFCURVE",
"396 28 CURVE SMOOTH"
);
}
);
userData = {
com.schriftgestaltung.hints = (
{
horizontal = 1;
options = 0;
place = (
0,
0
);
stem = -2;
type = Stem;
},
{
horizontal = 1;
options = 0;
origin = (
0,
8
);
stem = -2;
target = (
1,
2
);
type = Stem;
},
{
horizontal = 0;
options = 0;
place = (
0,
0
);
stem = -2;
type = Stem;
},
{
horizontal = 0;
options = 0;
origin = (
1,
5
);
stem = -2;
target = (
0,
5
);
type = Stem;
}
);
};
width = 792;
},
{
anchors = (
{
name = bottom;
position = "{404, 0}";
},
{
name = center;
position = "{404, 365}";
},
{
name = ogonek;
position = "{738, 10}";
},
{
name = top;
position = "{404, 729}";
},
{
name = topleft;
position = "{6, 729}";
},
{
name = topright;
position = "{801, 729}";
}
);
background = {
paths = (
{
closed = 1;
nodes = (
"628 -10 OFFCURVE",
"777 121 OFFCURVE",
"777 365 CURVE SMOOTH",
"777 608 OFFCURVE",
"628 739 OFFCURVE",
"404 739 CURVE SMOOTH",
"180 739 OFFCURVE",
"31 608 OFFCURVE",
"31 365 CURVE SMOOTH",
"31 121 OFFCURVE",
"180 -10 OFFCURVE",
"404 -10 CURVE SMOOTH"
);
},
{
closed = 1;
nodes = (
"308 166 OFFCURVE",
"244 222 OFFCURVE",
"244 365 CURVE SMOOTH",
"244 507 OFFCURVE",
"308 563 OFFCURVE",
"404 563 CURVE SMOOTH",
"500 563 OFFCURVE",
"564 507 OFFCURVE",
"564 365 CURVE SMOOTH",
"564 222 OFFCURVE",
"500 166 OFFCURVE",
"404 166 CURVE SMOOTH"
);
}
);
};
layerId = "1EDCBF6C-9964-4A28-BC87-E86B534B8BE7";
paths = (
{
closed = 1;
nodes = (
"627 -10 OFFCURVE",
"776 122 OFFCURVE",
"776 365 CURVE SMOOTH",
"776 607 OFFCURVE",
"627 739 OFFCURVE",
"403 739 CURVE SMOOTH",
"180 739 OFFCURVE",
"31 607 OFFCURVE",
"31 365 CURVE SMOOTH",
"31 122 OFFCURVE",
"180 -10 OFFCURVE",
"403 -10 CURVE SMOOTH"
);
},
{
closed = 1;
nodes = (
"305 162 OFFCURVE",
"239 220 OFFCURVE",
"239 365 CURVE SMOOTH",
"239 509 OFFCURVE",
"305 567 OFFCURVE",
"403 567 CURVE SMOOTH",
"502 567 OFFCURVE",
"568 508 OFFCURVE",
"568 365 CURVE SMOOTH",
"568 221 OFFCURVE",
"502 162 OFFCURVE",
"403 162 CURVE SMOOTH"
);
}
);
width = 807;
},
{
anchors = (
{
name = bottom;
position = "{419, 0}";
},
{
name = center;
position = "{419, 365}";
},
{
name = ogonek;
position = "{754, 10}";
},
{
name = top;
position = "{419, 729}";
},
{
name = topleft;
position = "{19, 729}";
},
{
name = topright;
position = "{818, 729}";
}
);
layerId = "28A8A76A-23B4-40F5-83B9-DC51E48BF161";
paths = (
{
closed = 1;
nodes = (
"649 -8 OFFCURVE",
"801 140 OFFCURVE",
"801 364 CURVE SMOOTH",
"801 587 OFFCURVE",
"651 736 OFFCURVE",
"421 736 CURVE SMOOTH",
"192 736 OFFCURVE",
"41 588 OFFCURVE",
"41 364 CURVE SMOOTH",
"41 142 OFFCURVE",
"191 -8 OFFCURVE",
"421 -8 CURVE SMOOTH"
);
},
{
closed = 1;
nodes = (
"211 28 OFFCURVE",
"81 163 OFFCURVE",
"81 364 CURVE SMOOTH",
"81 565 OFFCURVE",
"209 700 OFFCURVE",
"421 700 CURVE SMOOTH",
"630 700 OFFCURVE",
"761 566 OFFCURVE",
"761 364 CURVE SMOOTH",
"761 164 OFFCURVE",
"632 28 OFFCURVE",
"421 28 CURVE SMOOTH"
);
}
);
width = 842;
},
{
anchors = (
{
name = bottom;
position = "{446, 0}";
},
{
name = center;
position = "{446, 365}";
},
{
name = ogonek;
position = "{803, 10}";
},
{
name = top;
position = "{446, 729}";
},
{
name = topleft;
position = "{19, 729}";
},
{
name = topright;
position = "{872, 729}";
}
);
layerId = "D2144554-01B8-4B9B-B16A-E0E5B5794DFC";
paths = (
{
closed = 1;
nodes = (
"715 -10 OFFCURVE",
"869 138 OFFCURVE",
"869 365 CURVE SMOOTH",
"869 592 OFFCURVE",
"715 739 OFFCURVE",
"447 739 CURVE SMOOTH",
"176 739 OFFCURVE",
"22 592 OFFCURVE",
"22 365 CURVE SMOOTH",
"22 138 OFFCURVE",
"176 -10 OFFCURVE",
"447 -10 CURVE SMOOTH"
);
},
{
closed = 1;
nodes = (
"330 170 OFFCURVE",
"253 230 OFFCURVE",
"253 365 CURVE SMOOTH",
"253 500 OFFCURVE",
"330 560 OFFCURVE",
"447 560 CURVE SMOOTH",
"562 560 OFFCURVE",
"639 500 OFFCURVE",
"639 365 CURVE SMOOTH",
"639 230 OFFCURVE",
"562 170 OFFCURVE",
"447 170 CURVE SMOOTH"
);
}
);
width = 891;
},
{
anchors = (
{
name = bottom;
position = "{149, 0}";
},
{
name = center;
position = "{213, 365}";
},
{
name = ogonek;
position = "{313, 10}";
},
{
name = top;
position = "{281, 729}";
},
{
name = topleft;
position = "{118, 729}";
},
{
name = topright;
position = "{482, 729}";
}
);
layerId = "23BA42C1-D468-4A44-9BE5-E18AE60B7926";
paths = (
{
closed = 1;
nodes = (
"253 -9 OFFCURVE",
"322 93 OFFCURVE",
"376 350 CURVE SMOOTH",
"415 543 OFFCURVE",
"439 737 OFFCURVE",
"279 737 CURVE SMOOTH",
"184 737 OFFCURVE",
"110 655 OFFCURVE",
"52 373 CURVE SMOOTH",
"11 177 OFFCURVE",
"-4 -9 OFFCURVE",
"149 -9 CURVE SMOOTH"
);
},
{
closed = 1;
nodes = (
"27 20 OFFCURVE",
"47 193 OFFCURVE",
"84 373 CURVE SMOOTH",
"126 573 OFFCURVE",
"178 708 OFFCURVE",
"277 708 CURVE SMOOTH",
"395 708 OFFCURVE",
"383 543 OFFCURVE",
"344 356 CURVE SMOOTH",
"296 126 OFFCURVE",
"238 20 OFFCURVE",
"151 20 CURVE SMOOTH"
);
}
);
width = 404;
},
{
anchors = (
{
name = bottom;
position = "{192, 0}";
},
{
name = center;
position = "{264, 365}";
},
{
name = ogonek;
position = "{397, 10}";
},
{
name = top;
position = "{336, 729}";
},
{
name = topleft;
position = "{115, 729}";
},
{
name = topright;
position = "{576, 729}";
}
);
layerId = "2D4E69BA-A319-45D0-84B7-5297BCF4B7A0";
paths = (
{
closed = 1;
nodes = (
"369 -10 OFFCURVE",
"444 129 OFFCURVE",
"490 351 CURVE SMOOTH",
"539 582 OFFCURVE",
"514 739 OFFCURVE",
"320 739 CURVE SMOOTH",
"160 739 OFFCURVE",
"83 600 OFFCURVE",
"38 382 CURVE SMOOTH",
"-8 160 OFFCURVE",
"5 -10 OFFCURVE",
"209 -10 CURVE SMOOTH"
);
},
{
closed = 1;
nodes = (
"169 146 OFFCURVE",
"189 249 OFFCURVE",
"215 376 CURVE SMOOTH",
"244 516 OFFCURVE",
"268 583 OFFCURVE",
"306 583 CURVE SMOOTH",
"357 583 OFFCURVE",
"340 480 OFFCURVE",
"315 363 CURVE SMOOTH",
"281 204 OFFCURVE",
"260 146 OFFCURVE",
"222 146 CURVE SMOOTH"
);
}
);
width = 501;
},
{
anchors = (
{
name = bottom;
position = "{330, 0}";
},
{
name = center;
position = "{385, 365}";
},
{
name = ogonek;
position = "{623, 10}";
},
{
name = top;
position = "{438, 729}";
},
{
name = topleft;
position = "{117, 729}";
},
{
name = topright;
position = "{826, 729}";
}
);
layerId = "095FE76F-1953-440B-9108-AA0678D151F9";
paths = (
{
closed = 1;
nodes = (
"552 -10 OFFCURVE",
"708 165 OFFCURVE",
"717 420 CURVE SMOOTH",
"723 610 OFFCURVE",
"615 739 OFFCURVE",
"439 739 CURVE SMOOTH",
"218 739 OFFCURVE",
"62 564 OFFCURVE",
"53 309 CURVE SMOOTH",
"47 118 OFFCURVE",
"157 -10 OFFCURVE",
"332 -10 CURVE SMOOTH"
);
},
{
closed = 1;
nodes = (
"185 25 OFFCURVE",
"87 126 OFFCURVE",
"93 309 CURVE SMOOTH",
"101 547 OFFCURVE",
"236 704 OFFCURVE",
"433 704 CURVE SMOOTH",
"587 704 OFFCURVE",
"683 600 OFFCURVE",
"677 420 CURVE SMOOTH",
"669 183 OFFCURVE",
"533 25 OFFCURVE",
"335 25 CURVE SMOOTH"
);
}
);
width = 727;
},
{
anchors = (
{
name = bottom;
position = "{344, 0}";
},
{
name = center;
position = "{409, 365}";
},
{
name = ogonek;
position = "{666, 10}";
},
{
name = top;
position = "{467, 729}";
},
{
name = topleft;
position = "{115, 729}";
},
{
name = topright;
position = "{875, 729}";
}
);
layerId = "63AAE8D6-1DFF-4DD4-BD9A-49272FE52904";
paths = (
{
closed = 1;
nodes = (
"609 -9 OFFCURVE",
"767 148 OFFCURVE",
"776 392 CURVE SMOOTH",
"783 599 OFFCURVE",
"662 738 OFFCURVE",
"437 738 CURVE SMOOTH",
"210 738 OFFCURVE",
"51 581 OFFCURVE",
"42 337 CURVE SMOOTH",
"35 130 OFFCURVE",
"156 -9 OFFCURVE",
"382 -9 CURVE SMOOTH"
);
},
{
closed = 1;
nodes = (
"300 160 OFFCURVE",
"245 215 OFFCURVE",
"249 329 CURVE SMOOTH",
"254 474 OFFCURVE",
"323 569 OFFCURVE",
"434 569 CURVE SMOOTH",
"519 569 OFFCURVE",
"573 514 OFFCURVE",
"569 400 CURVE SMOOTH",
"564 255 OFFCURVE",
"497 160 OFFCURVE",
"385 160 CURVE SMOOTH"
);
}
);
width = 780;
},
{
anchors = (
{
name = bottom;
position = "{365, 0}";
},
{
name = center;
position = "{430, 365}";
},
{
name = ogonek;
position = "{703, 10}";
},
{
name = top;
position = "{471, 729}";
},
{
name = topleft;
position = "{117, 729}";
},
{
name = topright;
position = "{915, 729}";
}
);
layerId = "C17B1F32-8075-45B4-AA59-7DAFF0D7E404";
paths = (
{
closed = 1;
nodes = (
"630 -9 OFFCURVE",
"799 155 OFFCURVE",
"808 397 CURVE SMOOTH",
"815 608 OFFCURVE",
"683 739 OFFCURVE",
"471 739 CURVE SMOOTH",
"230 739 OFFCURVE",
"62 575 OFFCURVE",
"53 333 CURVE SMOOTH",
"46 121 OFFCURVE",
"179 -9 OFFCURVE",
"392 -9 CURVE SMOOTH"
);
},
{
closed = 1;
nodes = (
"208 27 OFFCURVE",
"86 133 OFFCURVE",
"93 330 CURVE SMOOTH",
"101 559 OFFCURVE",
"245 703 OFFCURVE",
"466 703 CURVE SMOOTH",
"653 703 OFFCURVE",
"775 597 OFFCURVE",
"768 400 CURVE SMOOTH",
"760 171 OFFCURVE",
"616 27 OFFCURVE",
"394 27 CURVE SMOOTH"
);
}
);
width = 838;
},
{
anchors = (
{
name = bottom;
position = "{389, 0}";
},
{
name = center;
position = "{453, 365}";
},
{
name = ogonek;
position = "{746, 10}";
},
{
name = top;
position = "{507, 729}";
},
{
name = topleft;
position = "{115, 729}";
},
{
name = topright;
position = "{964, 729}";
}
);
layerId = "377EF8AC-8B0D-46C2-96BB-3B5B69A8F571";
paths = (
{
closed = 1;
nodes = (
"687 -10 OFFCURVE",
"865 148 OFFCURVE",
"874 387 CURVE SMOOTH",
"881 601 OFFCURVE",
"738 738 OFFCURVE",
"481 738 CURVE SMOOTH",
"220 738 OFFCURVE",
"41 580 OFFCURVE",
"33 341 CURVE SMOOTH",
"25 128 OFFCURVE",
"170 -10 OFFCURVE",
"425 -10 CURVE SMOOTH"
);
},
{
closed = 1;
nodes = (
"328 169 OFFCURVE",
"258 233 OFFCURVE",
"262 350 CURVE SMOOTH",
"266 470 OFFCURVE",
"337 559 OFFCURVE",
"472 559 CURVE SMOOTH",
"578 559 OFFCURVE",
"648 495 OFFCURVE",
"644 379 CURVE SMOOTH",
"640 260 OFFCURVE",
"570 169 OFFCURVE",
"435 169 CURVE SMOOTH"
);
}
);
width = 889;
}
);
leftKerningGroup = C;
leftMetricsKey = C;
rightKerningGroup = C;
unicode = 004F;
},
{
glyphname = OE;
lastChange = "2022-08-11 19:19:28 +0000";
layers = (
{
anchors = (
{
name = bottom;
position = "{422, 0}";
},
{
name = center;
position = "{209, 364}";
},
{
name = ogonek;
position = "{554, 10}";
},
{
name = top;
position = "{422, 729}";
},
{
name = topleft;
position = "{276, 729}";
}
);
layerId = "5713303B-ED49-44A7-8230-B5CAE56DEB7E";
paths = (
{
closed = 1;
nodes = (
"557 0 LINE",
"557 28 LINE",
"352 28 LINE",
"352 361 LINE",
"526 361 LINE",
"526 389 LINE",
"352 389 LINE",
"352 701 LINE",
"557 701 LINE",
"557 729 LINE",
"245 729 LINE SMOOTH",
"90 729 OFFCURVE",
"38 579 OFFCURVE",
"38 364 CURVE SMOOTH",
"38 148 OFFCURVE",
"94 0 OFFCURVE",
"245 0 CURVE SMOOTH"
);
},
{
closed = 1;
nodes = (
"141 28 OFFCURVE",
"71 109 OFFCURVE",
"71 364 CURVE SMOOTH",
"71 620 OFFCURVE",
"141 701 OFFCURVE",
"244 701 CURVE SMOOTH",
"321 701 LINE",
"321 28 LINE",
"244 28 LINE SMOOTH"
);
}
);
width = 577;
},
{
anchors = (
{
name = bottom;
position = "{461, 0}";
},
{
name = center;
position = "{247, 364}";
},
{
name = ogonek;
position = "{605, 10}";
},
{
name = top;
position = "{461, 729}";
},
{
name = topleft;
position = "{301, 729}";
}
);
layerId = "E787E54A-EE3E-475A-BF02-8501A6DA5144";
paths = (
{
closed = 1;
nodes = (
"635 0 LINE",
"635 157 LINE",
"480 157 LINE",
"480 299 LINE",
"621 299 LINE",
"621 445 LINE",
"480 445 LINE",
"480 572 LINE",
"635 572 LINE",
"635 729 LINE",
"303 729 LINE SMOOTH",
"73 727 OFFCURVE",
"24 578 OFFCURVE",
"24 365 CURVE SMOOTH",
"24 95 OFFCURVE",
"118 0 OFFCURVE",
"308 0 CURVE SMOOTH"
);
},
{
closed = 1;
nodes = (
"222 157 OFFCURVE",
"204 205 OFFCURVE",
"204 361 CURVE SMOOTH",
"204 502 OFFCURVE",
"214 572 OFFCURVE",
"276 572 CURVE SMOOTH",
"303 572 LINE",
"303 157 LINE",
"276 157 LINE SMOOTH"
);
}
);
width = 653;
},
{
anchors = (
{
name = bottom;
position = "{829, 0}";
},
{
name = center;
position = "{354, 364}";
},
{
name = ogonek;
position = "{1090, 10}";
},
{
name = top;
position = "{829, 729}";
},
{
name = topleft;
position = "{522, 729}";
}
);
layerId = master01;
paths = (
{
closed = 1;
nodes = (
"1084 0 LINE",
"1084 37 LINE",
"641 37 LINE",
"641 358 LINE",
"1036 358 LINE",
"1036 392 LINE",
"641 392 LINE",
"641 693 LINE",
"1084 693 LINE",
"1084 729 LINE",
"367 729 LINE SMOOTH",
"167 729 OFFCURVE",
"46 585 OFFCURVE",
"46 365 CURVE SMOOTH",
"46 144 OFFCURVE",
"167 0 OFFCURVE",
"367 0 CURVE SMOOTH"
);
},
{
closed = 1;
nodes = (
"196 36 OFFCURVE",
"86 159 OFFCURVE",
"86 364 CURVE SMOOTH",
"86 562 OFFCURVE",
"191 692 OFFCURVE",
"368 692 CURVE SMOOTH",
"603 692 LINE",
"603 36 LINE",
"368 36 LINE SMOOTH"
);
}
);
width = 1138;
},
{
anchors = (
{
name = bottom;
position = "{782, 0}";
},
{
name = center;
position = "{373, 364}";
},
{
name = ogonek;
position = "{1043, 10}";
},
{
name = top;
position = "{782, 729}";
},
{
name = topleft;
position = "{475, 729}";
}
);
layerId = "1EDCBF6C-9964-4A28-BC87-E86B534B8BE7";
paths = (
{
closed = 1;
nodes = (
"1068 0 LINE",
"1068 172 LINE",
"718 172 LINE",
"718 288 LINE",
"1015 288 LINE",
"1015 449 LINE",
"718 449 LINE",
"718 557 LINE",
"1065 557 LINE",
"1065 729 LINE",
"373 729 LINE SMOOTH",
"150 729 OFFCURVE",
"31 582 OFFCURVE",
"31 365 CURVE SMOOTH",
"31 148 OFFCURVE",
"149 0 OFFCURVE",
"373 0 CURVE SMOOTH"
);
},
{
closed = 1;
nodes = (
"311 171 OFFCURVE",
"238 203 OFFCURVE",
"238 361 CURVE SMOOTH",
"238 529 OFFCURVE",
"315 558 OFFCURVE",
"408 558 CURVE SMOOTH",
"515 558 LINE",
"515 171 LINE",
"408 171 LINE SMOOTH"
);
}
);
width = 1113;
},
{
anchors = (
{
name = bottom;
position = "{942, 0}";
},
{
name = center;
position = "{395, 364}";
},
{
name = ogonek;
position = "{1204, 10}";
},
{
name = top;
position = "{942, 729}";
},
{
name = topleft;
position = "{634, 729}";
}
);
layerId = "28A8A76A-23B4-40F5-83B9-DC51E48BF161";
paths = (
{
closed = 1;
nodes = (
"1249 0 LINE",
"1249 37 LINE",
"721 37 LINE",
"721 358 LINE",
"1201 358 LINE",
"1201 392 LINE",
"721 392 LINE",
"721 693 LINE",
"1249 693 LINE",
"1249 729 LINE",
"409 729 LINE SMOOTH",
"181 729 OFFCURVE",
"41 585 OFFCURVE",
"41 365 CURVE SMOOTH",
"41 144 OFFCURVE",
"181 0 OFFCURVE",
"409 0 CURVE SMOOTH"
);
},
{
closed = 1;
nodes = (
"208 36 OFFCURVE",
"80 159 OFFCURVE",
"80 364 CURVE SMOOTH",
"80 562 OFFCURVE",
"202 692 OFFCURVE",
"409 692 CURVE SMOOTH",
"683 692 LINE",
"683 36 LINE",
"409 36 LINE SMOOTH"
);
}
);
width = 1281;
},
{
anchors = (
{
name = bottom;
position = "{887, 0}";
},
{
name = center;
position = "{411, 364}";
},
{
name = ogonek;
position = "{1172, 10}";
},
{
name = top;
position = "{887, 729}";
},
{
name = topleft;
position = "{551, 729}";
}
);
layerId = "D2144554-01B8-4B9B-B16A-E0E5B5794DFC";
paths = (
{
closed = 1;
nodes = (
"1215 0 LINE",
"1215 179 LINE",
"803 179 LINE",
"803 282 LINE",
"1162 282 LINE",
"1162 449 LINE",
"803 449 LINE",
"803 550 LINE",
"1212 550 LINE",
"1212 729 LINE",
"412 729 LINE SMOOTH",
"175 729 OFFCURVE",
"22 608 OFFCURVE",
"22 365 CURVE SMOOTH",
"22 146 OFFCURVE",
"148 0 OFFCURVE",
"412 0 CURVE SMOOTH"
);
},
{
closed = 1;
nodes = (
"337 175 OFFCURVE",
"253 216 OFFCURVE",
"253 361 CURVE SMOOTH",
"253 485 OFFCURVE",
"307 554 OFFCURVE",
"459 554 CURVE SMOOTH",
"574 554 LINE",
"574 175 LINE",
"459 175 LINE SMOOTH"
);
}
);
width = 1242;
},
{
layerId = "23BA42C1-D468-4A44-9BE5-E18AE60B7926";
paths = (
{
closed = 1;
nodes = (
"490 0 LINE",
"496 28 LINE",
"295 28 LINE",
"364 361 LINE",
"535 361 LINE",
"540 389 LINE",
"370 389 LINE",
"434 701 LINE",
"636 701 LINE",
"641 729 LINE",
"335 729 LINE SMOOTH",
"177 729 OFFCURVE",
"43 508 OFFCURVE",
"33 213 CURVE SMOOTH",
"28 74 OFFCURVE",
"79 0 OFFCURVE",
"183 0 CURVE SMOOTH"
);
},
{
closed = 1;
nodes = (
"105 30 OFFCURVE",
"60 86 OFFCURVE",
"65 209 CURVE SMOOTH",
"74 481 OFFCURVE",
"192 699 OFFCURVE",
"328 699 CURVE SMOOTH",
"403 699 LINE",
"263 30 LINE",
"188 30 LINE SMOOTH"
);
}
);
width = 575;
},
{
layerId = "2D4E69BA-A319-45D0-84B7-5297BCF4B7A0";
paths = (
{
closed = 1;
nodes = (
"567 0 LINE",
"599 157 LINE",
"445 157 LINE",
"475 299 LINE",
"614 299 LINE",
"645 445 LINE",
"506 445 LINE",
"531 572 LINE",
"687 572 LINE",
"718 729 LINE",
"390 729 LINE SMOOTH",
"145 728 OFFCURVE",
"77 580 OFFCURVE",
"36 369 CURVE SMOOTH",
"-11 126 OFFCURVE",
"55 8 OFFCURVE",
"239 0 CURVE"
);
},
{
closed = 1;
nodes = (
"190 157 OFFCURVE",
"183 195 OFFCURVE",
"212 358 CURVE SMOOTH",
"240 509 OFFCURVE",
"273 572 OFFCURVE",
"324 572 CURVE SMOOTH",
"343 572 LINE",
"257 157 LINE",
"241 157 LINE SMOOTH"
);
}
);
width = 650;
},
{
layerId = "095FE76F-1953-440B-9108-AA0678D151F9";
paths = (
{
closed = 1;
nodes = (
"992 0 LINE",
"999 37 LINE",
"570 37 LINE",
"638 358 LINE",
"1021 358 LINE",
"1028 392 LINE",
"645 392 LINE",
"707 693 LINE",
"1136 693 LINE",
"1143 729 LINE",
"436 729 LINE SMOOTH",
"218 729 OFFCURVE",
"62 560 OFFCURVE",
"53 311 CURVE SMOOTH",
"47 125 OFFCURVE",
"156 0 OFFCURVE",
"335 0 CURVE SMOOTH"
);
},
{
closed = 1;
nodes = (
"183 36 OFFCURVE",
"88 136 OFFCURVE",
"94 310 CURVE SMOOTH",
"102 540 OFFCURVE",
"237 693 OFFCURVE",
"432 693 CURVE SMOOTH",
"671 693 LINE",
"533 36 LINE",
"336 36 LINE SMOOTH"
);
}
);
width = 1111;
},
{
layerId = "63AAE8D6-1DFF-4DD4-BD9A-49272FE52904";
paths = (
{
closed = 1;
nodes = (
"972 0 LINE",
"1008 172 LINE",
"671 172 LINE",
"695 285 LINE",
"980 285 LINE",
"1014 446 LINE",
"727 446 LINE",
"751 557 LINE",
"1085 557 LINE",
"1120 729 LINE",
"455 729 LINE SMOOTH",
"208 729 OFFCURVE",
"45 563 OFFCURVE",
"36 301 CURVE SMOOTH",
"30 120 OFFCURVE",
"138 0 OFFCURVE",
"326 0 CURVE SMOOTH"
);
},
{
closed = 1;
nodes = (
"294 168 OFFCURVE",
"240 211 OFFCURVE",
"244 315 CURVE SMOOTH",
"249 474 OFFCURVE",
"325 561 OFFCURVE",
"455 561 CURVE SMOOTH",
"532 561 LINE",
"451 168 LINE",
"374 168 LINE SMOOTH"
);
}
);
width = 1084;
},
{
layerId = "C17B1F32-8075-45B4-AA59-7DAFF0D7E404";
paths = (
{
closed = 1;
nodes = (
"1175 0 LINE",
"1182 37 LINE",
"662 37 LINE",
"729 358 LINE",
"1203 358 LINE",
"1211 392 LINE",
"735 392 LINE",
"798 693 LINE",
"1319 693 LINE",
"1326 729 LINE",
"496 729 LINE SMOOTH",
"226 729 OFFCURVE",
"60 576 OFFCURVE",
"51 319 CURVE SMOOTH",
"43 105 OFFCURVE",
"182 0 OFFCURVE",
"403 0 CURVE SMOOTH"
);
},
{
closed = 1;
nodes = (
"182 36 OFFCURVE",
"85 147 OFFCURVE",
"91 319 CURVE SMOOTH",
"99 550 OFFCURVE",
"240 692 OFFCURVE",
"481 692 CURVE SMOOTH",
"758 692 LINE",
"621 36 LINE",
"406 36 LINE SMOOTH"
);
}
);
width = 1272;
},
{
layerId = "377EF8AC-8B0D-46C2-96BB-3B5B69A8F571";
paths = (
{
closed = 1;
nodes = (
"1138 0 LINE",
"1174 179 LINE",
"768 179 LINE",
"790 282 LINE",
"1143 282 LINE",
"1179 449 LINE",
"825 449 LINE",
"846 550 LINE",
"1249 550 LINE",
"1286 729 LINE",
"490 729 LINE SMOOTH",
"215 729 OFFCURVE",
"38 571 OFFCURVE",
"29 319 CURVE SMOOTH",
"22 106 OFFCURVE",
"162 0 OFFCURVE",
"384 0 CURVE SMOOTH"
);
},
{
closed = 1;
nodes = (
"322 175 OFFCURVE",
"256 220 OFFCURVE",
"260 331 CURVE SMOOTH",
"265 469 OFFCURVE",
"349 554 OFFCURVE",
"484 554 CURVE SMOOTH",
"598 554 LINE",
"520 175 LINE",
"423 175 LINE SMOOTH"
);
}
);
width = 1232;
}
);
leftKerningGroup = C;
leftMetricsKey = C;
rightKerningGroup = AE;
rightMetricsKey = E;
unicode = 0152;
},
{
glyphname = P;
lastChange = "2022-08-11 17:07:49 +0000";
layers = (
{
anchors = (
{
name = bottom;
position = "{244, 0}";
},
{
name = top;
position = "{244, 729}";
}
);
background = {
paths = (
{
closed = 1;
nodes = (
"231 0 LINE",
"231 231 LINE",
"349 231 LINE SMOOTH",
"539 231 OFFCURVE",
"629 331 OFFCURVE",
"629 480 CURVE SMOOTH",
"629 649 OFFCURVE",
"521 729 OFFCURVE",
"359 729 CURVE SMOOTH",
"28 729 LINE",
"28 0 LINE"
);
},
{
closed = 1;
nodes = (
"231 550 LINE",
"335 550 LINE SMOOTH",
"391 550 OFFCURVE",
"417 526 OFFCURVE",
"417 472 CURVE SMOOTH",
"417 423 OFFCURVE",
"395 394 OFFCURVE",
"335 394 CURVE SMOOTH",
"231 394 LINE"
);
}
);
};
layerId = "E787E54A-EE3E-475A-BF02-8501A6DA5144";
paths = (
{
closed = 1;
nodes = (
"207 0 LINE",
"207 594 LINE",
"183 572 LINE",
"223 572 LINE SMOOTH",
"260 572 OFFCURVE",
"278 550 OFFCURVE",
"278 473 CURVE SMOOTH",
"278 408 OFFCURVE",
"269 369 OFFCURVE",
"223 369 CURVE SMOOTH",
"191 369 LINE",
"191 212 LINE",
"229 212 LINE SMOOTH",
"382 212 OFFCURVE",
"459 296 OFFCURVE",
"459 471 CURVE SMOOTH",
"459 644 OFFCURVE",
"382 729 OFFCURVE",
"229 729 CURVE SMOOTH",
"28 729 LINE",
"28 0 LINE"
);
}
);
width = 468;
},
{
anchors = (
{
name = bottom;
position = "{192, 0}";
},
{
name = top;
position = "{192, 729}";
}
);
layerId = "5713303B-ED49-44A7-8230-B5CAE56DEB7E";
paths = (
{
closed = 1;
nodes = (
"96 0 LINE",
"96 711 LINE",
"83 701 LINE",
"180 701 LINE SMOOTH",
"263 701 OFFCURVE",
"316 651 OFFCURVE",
"316 522 CURVE SMOOTH",
"316 391 OFFCURVE",
"262 343 OFFCURVE",
"180 343 CURVE SMOOTH",
"89 343 LINE",
"89 315 LINE",
"182 315 LINE SMOOTH",
"300 315 OFFCURVE",
"349 398 OFFCURVE",
"349 522 CURVE SMOOTH",
"349 646 OFFCURVE",
"299 729 OFFCURVE",
"182 729 CURVE SMOOTH",
"65 729 LINE",
"65 0 LINE"
);
}
);
width = 384;
},
{
anchors = (
{
name = bottom;
position = "{334, 0}";
},
{
name = top;
position = "{334, 729}";
}
);
layerId = master01;
paths = (
{
closed = 1;
nodes = (
"141 0 LINE",
"141 704 LINE",
"127 692 LINE",
"367 692 LINE SMOOTH",
"500 692 OFFCURVE",
"575 623 OFFCURVE",
"575 509 CURVE SMOOTH",
"575 398 OFFCURVE",
"501 324 OFFCURVE",
"367 325 CURVE SMOOTH",
"132 326 LINE",
"132 290 LINE",
"369 289 LINE SMOOTH",
"519 288 OFFCURVE",
"615 375 OFFCURVE",
"615 509 CURVE SMOOTH",
"615 649 OFFCURVE",
"520 729 OFFCURVE",
"370 729 CURVE SMOOTH",
"103 729 LINE",
"103 0 LINE"
);
}
);
userData = {
com.schriftgestaltung.hints = (
{
horizontal = 1;
options = 0;
origin = (
0,
10
);
stem = -2;
target = (
u,
p
);
type = BottomGhost;
},
{
horizontal = 1;
options = 0;
place = (
0,
0
);
stem = -2;
type = Stem;
},
{
horizontal = 1;
options = 0;
origin = (
0,
9
);
stem = -2;
target = (
1,
0
);
type = Stem;
},
{
horizontal = 0;
options = 0;
origin = (
0,
10
);
stem = -2;
target = (
0,
0
);
type = Stem;
},
{
horizontal = 0;
options = 0;
origin = (
1,
4
);
stem = -2;
target = (
0,
5
);
type = Stem;
}
);
};
width = 646;
},
{
anchors = (
{
name = bottom;
position = "{353, 0}";
},
{
name = top;
position = "{353, 729}";
}
);
background = {
paths = (
{
closed = 1;
nodes = (
"272 0 LINE",
"272 231 LINE",
"402 231 LINE SMOOTH",
"574 231 OFFCURVE",
"670 331 OFFCURVE",
"670 480 CURVE SMOOTH",
"670 639 OFFCURVE",
"563 729 OFFCURVE",
"402 729 CURVE SMOOTH",
"69 729 LINE",
"69 0 LINE"
);
},
{
closed = 1;
nodes = (
"272 557 LINE",
"366 557 LINE SMOOTH",
"406 557 OFFCURVE",
"458 549 OFFCURVE",
"458 472 CURVE SMOOTH",
"458 395 OFFCURVE",
"406 387 OFFCURVE",
"366 387 CURVE SMOOTH",
"272 387 LINE"
);
}
);
};
layerId = "1EDCBF6C-9964-4A28-BC87-E86B534B8BE7";
paths = (
{
closed = 1;
nodes = (
"272 0 LINE",
"272 583 LINE",
"250 559 LINE",
"364 559 LINE SMOOTH",
"407 559 OFFCURVE",
"461 549 OFFCURVE",
"461 474 CURVE SMOOTH",
"461 396 OFFCURVE",
"407 387 OFFCURVE",
"364 387 CURVE SMOOTH",
"256 387 LINE",
"256 232 LINE",
"400 232 LINE SMOOTH",
"571 232 OFFCURVE",
"667 334 OFFCURVE",
"667 482 CURVE SMOOTH",
"667 639 OFFCURVE",
"561 729 OFFCURVE",
"400 729 CURVE SMOOTH",
"69 729 LINE",
"69 0 LINE"
);
}
);
width = 687;
},
{
anchors = (
{
name = bottom;
position = "{346, 0}";
},
{
name = top;
position = "{346, 729}";
}
);
layerId = "28A8A76A-23B4-40F5-83B9-DC51E48BF161";
paths = (
{
closed = 1;
nodes = (
"109 0 LINE",
"109 710 LINE",
"91 692 LINE",
"411 692 LINE SMOOTH",
"553 692 OFFCURVE",
"628 623 OFFCURVE",
"628 509 CURVE SMOOTH",
"628 398 OFFCURVE",
"554 325 OFFCURVE",
"411 325 CURVE SMOOTH",
"100 326 LINE",
"100 290 LINE",
"413 289 LINE SMOOTH",
"572 288 OFFCURVE",
"668 375 OFFCURVE",
"668 509 CURVE SMOOTH",
"668 649 OFFCURVE",
"573 729 OFFCURVE",
"414 729 CURVE SMOOTH",
"71 729 LINE",
"71 0 LINE"
);
}
);
width = 697;
},
{
anchors = (
{
name = bottom;
position = "{385, 0}";
},
{
name = top;
position = "{385, 729}";
}
);
background = {
paths = (
{
closed = 1;
nodes = (
"283 0 LINE",
"283 237 LINE",
"422 237 LINE SMOOTH",
"664 237 OFFCURVE",
"744 334 OFFCURVE",
"744 483 CURVE SMOOTH",
"744 665 OFFCURVE",
"628 729 OFFCURVE",
"422 729 CURVE SMOOTH",
"54 729 LINE",
"54 0 LINE"
);
},
{
closed = 1;
nodes = (
"283 550 LINE",
"405 550 LINE SMOOTH",
"462 550 OFFCURVE",
"506 535 OFFCURVE",
"506 475 CURVE SMOOTH",
"506 426 OFFCURVE",
"479 399 OFFCURVE",
"405 399 CURVE SMOOTH",
"283 399 LINE"
);
}
);
};
layerId = "D2144554-01B8-4B9B-B16A-E0E5B5794DFC";
paths = (
{
closed = 1;
nodes = (
"283 0 LINE",
"283 599 LINE",
"238 554 LINE",
"416 554 LINE SMOOTH",
"469 554 OFFCURVE",
"510 538 OFFCURVE",
"510 476 CURVE SMOOTH",
"510 425 OFFCURVE",
"484 397 OFFCURVE",
"416 397 CURVE SMOOTH",
"267 397 LINE",
"267 239 LINE",
"441 239 LINE SMOOTH",
"620 239 OFFCURVE",
"740 308 OFFCURVE",
"740 484 CURVE SMOOTH",
"740 631 OFFCURVE",
"656 729 OFFCURVE",
"441 729 CURVE SMOOTH",
"54 729 LINE",
"54 0 LINE"
);
}
);
width = 759;
},
{
anchors = (
{
name = bottom;
position = "{137, 0}";
},
{
name = top;
position = "{288, 729}";
}
);
layerId = "23BA42C1-D468-4A44-9BE5-E18AE60B7926";
paths = (
{
closed = 1;
nodes = (
"31 0 LINE",
"178 711 LINE",
"164 701 LINE",
"249 701 LINE SMOOTH",
"341 701 OFFCURVE",
"384 645 OFFCURVE",
"355 510 CURVE SMOOTH",
"328 382 OFFCURVE",
"267 343 OFFCURVE",
"185 343 CURVE SMOOTH",
"95 343 LINE",
"89 315 LINE",
"181 315 LINE SMOOTH",
"301 315 OFFCURVE",
"362 392 OFFCURVE",
"387 505 CURVE SMOOTH",
"414 632 OFFCURVE",
"383 729 OFFCURVE",
"257 729 CURVE SMOOTH",
"152 729 LINE",
"0 0 LINE"
);
}
);
width = 380;
},
{
anchors = (
{
name = bottom;
position = "{184, 0}";
},
{
name = top;
position = "{335, 729}";
}
);
layerId = "2D4E69BA-A319-45D0-84B7-5297BCF4B7A0";
paths = (
{
closed = 1;
nodes = (
"141 0 LINE",
"265 595 LINE",
"239 572 LINE",
"273 572 LINE SMOOTH",
"301 572 OFFCURVE",
"316 558 OFFCURVE",
"315 522 CURVE SMOOTH",
"312 432 OFFCURVE",
"277 369 OFFCURVE",
"232 369 CURVE SMOOTH",
"201 369 LINE",
"169 212 LINE",
"206 212 LINE SMOOTH",
"379 212 OFFCURVE",
"490 341 OFFCURVE",
"497 549 CURVE SMOOTH",
"502 669 OFFCURVE",
"438 729 OFFCURVE",
"313 729 CURVE SMOOTH",
"115 729 LINE",
"-37 0 LINE"
);
}
);
width = 480;
},
{
anchors = (
{
name = bottom;
position = "{263, 0}";
},
{
name = top;
position = "{414, 729}";
}
);
layerId = "095FE76F-1953-440B-9108-AA0678D151F9";
paths = (
{
closed = 1;
nodes = (
"76 0 LINE",
"222 702 LINE",
"209 692 LINE",
"439 692 LINE SMOOTH",
"544 692 OFFCURVE",
"610 642 OFFCURVE",
"607 534 CURVE SMOOTH",
"602 403 OFFCURVE",
"515 325 OFFCURVE",
"362 325 CURVE SMOOTH",
"135 325 LINE",
"128 290 LINE",
"357 290 LINE SMOOTH",
"530 290 OFFCURVE",
"641 384 OFFCURVE",
"646 536 CURVE SMOOTH",
"650 649 OFFCURVE",
"585 729 OFFCURVE",
"452 729 CURVE SMOOTH",
"190 729 LINE",
"39 0 LINE"
);
}
);
width = 634;
},
{
anchors = (
{
name = bottom;
position = "{281, 0}";
},
{
name = top;
position = "{432, 729}";
}
);
layerId = "63AAE8D6-1DFF-4DD4-BD9A-49272FE52904";
paths = (
{
closed = 1;
nodes = (
"206 0 LINE",
"323 569 LINE",
"305 552 LINE",
"415 552 LINE SMOOTH",
"458 552 OFFCURVE",
"481 527 OFFCURVE",
"479 484 CURVE SMOOTH",
"477 428 OFFCURVE",
"442 393 OFFCURVE",
"380 393 CURVE SMOOTH",
"272 393 LINE",
"238 232 LINE",
"382 232 LINE SMOOTH",
"556 232 OFFCURVE",
"681 336 OFFCURVE",
"687 506 CURVE SMOOTH",
"693 692 OFFCURVE",
"549 729 OFFCURVE",
"447 729 CURVE SMOOTH",
"154 729 LINE",
"3 0 LINE"
);
}
);
width = 673;
},
{
anchors = (
{
name = bottom;
position = "{293, 0}";
},
{
name = top;
position = "{444, 729}";
}
);
layerId = "C17B1F32-8075-45B4-AA59-7DAFF0D7E404";
paths = (
{
closed = 1;
nodes = (
"45 0 LINE",
"192 705 LINE",
"175 692 LINE",
"470 692 LINE SMOOTH",
"595 692 OFFCURVE",
"671 647 OFFCURVE",
"667 537 CURVE SMOOTH",
"662 401 OFFCURVE",
"578 326 OFFCURVE",
"419 326 CURVE SMOOTH",
"103 326 LINE",
"96 290 LINE",
"414 290 LINE SMOOTH",
"594 290 OFFCURVE",
"701 381 OFFCURVE",
"707 540 CURVE SMOOTH",
"711 656 OFFCURVE",
"635 729 OFFCURVE",
"481 729 CURVE SMOOTH",
"158 729 LINE",
"7 0 LINE"
);
}
);
width = 693;
},
{
anchors = (
{
name = bottom;
position = "{322, 0}";
},
{
name = top;
position = "{473, 729}";
}
);
layerId = "377EF8AC-8B0D-46C2-96BB-3B5B69A8F571";
paths = (
{
closed = 1;
nodes = (
"215 0 LINE",
"335 574 LINE",
"313 556 LINE",
"454 556 LINE SMOOTH",
"513 556 OFFCURVE",
"542 538 OFFCURVE",
"541 489 CURVE SMOOTH",
"539 426 OFFCURVE",
"501 398 OFFCURVE",
"425 398 CURVE SMOOTH",
"282 398 LINE",
"250 241 LINE",
"449 241 LINE SMOOTH",
"637 241 OFFCURVE",
"765 327 OFFCURVE",
"771 511 CURVE SMOOTH",
"776 642 OFFCURVE",
"703 729 OFFCURVE",
"507 729 CURVE SMOOTH",
"139 729 LINE",
"-12 0 LINE"
);
}
);
width = 755;
}
);
leftKerningGroup = B;
leftMetricsKey = H;
rightKerningGroup = P;
unicode = 0050;
},
{
glyphname = Thorn;
lastChange = "2022-08-11 16:40:42 +0000";
layers = (
{
components = (
{
name = I;
}
);
layerId = "5713303B-ED49-44A7-8230-B5CAE56DEB7E";
paths = (
{
closed = 1;
nodes = (
"182 158 LINE SMOOTH",
"300 158 OFFCURVE",
"349 241 OFFCURVE",
"349 365 CURVE SMOOTH",
"349 489 OFFCURVE",
"299 572 OFFCURVE",
"182 572 CURVE SMOOTH",
"83 572 LINE",
"83 544 LINE",
"180 544 LINE SMOOTH",
"263 544 OFFCURVE",
"316 494 OFFCURVE",
"316 365 CURVE SMOOTH",
"316 234 OFFCURVE",
"262 186 OFFCURVE",
"180 186 CURVE SMOOTH",
"83 186 LINE",
"83 158 LINE"
);
}
);
width = 384;
},
{
components = (
{
name = I;
}
);
layerId = "E787E54A-EE3E-475A-BF02-8501A6DA5144";
paths = (
{
closed = 1;
nodes = (
"234 106 LINE SMOOTH",
"387 106 OFFCURVE",
"464 190 OFFCURVE",
"464 365 CURVE SMOOTH",
"464 538 OFFCURVE",
"387 623 OFFCURVE",
"234 623 CURVE SMOOTH",
"189 623 LINE",
"189 466 LINE",
"228 466 LINE SMOOTH",
"265 466 OFFCURVE",
"283 444 OFFCURVE",
"283 367 CURVE SMOOTH",
"283 302 OFFCURVE",
"274 263 OFFCURVE",
"228 263 CURVE SMOOTH",
"189 263 LINE",
"189 106 LINE"
);
}
);
width = 473;
},
{
components = (
{
name = I;
}
);
layerId = master01;
paths = (
{
closed = 1;
nodes = (
"347 145 LINE SMOOTH",
"497 144 OFFCURVE",
"593 231 OFFCURVE",
"593 365 CURVE SMOOTH",
"593 505 OFFCURVE",
"498 585 OFFCURVE",
"348 585 CURVE SMOOTH",
"123 585 LINE",
"123 548 LINE",
"345 548 LINE SMOOTH",
"478 548 OFFCURVE",
"553 479 OFFCURVE",
"553 365 CURVE SMOOTH",
"553 254 OFFCURVE",
"479 180 OFFCURVE",
"345 181 CURVE SMOOTH",
"123 182 LINE",
"123 146 LINE"
);
}
);
width = 624;
},
{
components = (
{
name = I;
}
);
layerId = "1EDCBF6C-9964-4A28-BC87-E86B534B8BE7";
paths = (
{
closed = 1;
nodes = (
"391 116 LINE SMOOTH",
"562 116 OFFCURVE",
"658 218 OFFCURVE",
"658 366 CURVE SMOOTH",
"658 523 OFFCURVE",
"552 613 OFFCURVE",
"391 613 CURVE SMOOTH",
"226 613 LINE",
"226 443 LINE",
"355 443 LINE SMOOTH",
"398 443 OFFCURVE",
"452 433 OFFCURVE",
"452 358 CURVE SMOOTH",
"452 280 OFFCURVE",
"398 271 OFFCURVE",
"355 271 CURVE SMOOTH",
"226 271 LINE",
"226 116 LINE"
);
}
);
width = 678;
},
{
components = (
{
name = I;
}
);
layerId = "28A8A76A-23B4-40F5-83B9-DC51E48BF161";
paths = (
{
closed = 1;
nodes = (
"311 145 LINE SMOOTH",
"470 145 OFFCURVE",
"566 231 OFFCURVE",
"566 365 CURVE SMOOTH",
"566 505 OFFCURVE",
"471 585 OFFCURVE",
"312 585 CURVE SMOOTH",
"98 585 LINE",
"98 548 LINE",
"309 548 LINE SMOOTH",
"451 548 OFFCURVE",
"526 479 OFFCURVE",
"526 365 CURVE SMOOTH",
"526 254 OFFCURVE",
"452 181 OFFCURVE",
"309 181 CURVE SMOOTH",
"98 182 LINE",
"98 146 LINE"
);
}
);
width = 595;
},
{
components = (
{
name = I;
}
);
layerId = "D2144554-01B8-4B9B-B16A-E0E5B5794DFC";
paths = (
{
closed = 1;
nodes = (
"420 120 LINE SMOOTH",
"599 120 OFFCURVE",
"719 189 OFFCURVE",
"719 365 CURVE SMOOTH",
"719 512 OFFCURVE",
"635 610 OFFCURVE",
"420 610 CURVE SMOOTH",
"211 610 LINE",
"211 435 LINE",
"395 435 LINE SMOOTH",
"448 435 OFFCURVE",
"489 419 OFFCURVE",
"489 357 CURVE SMOOTH",
"489 306 OFFCURVE",
"463 278 OFFCURVE",
"395 278 CURVE SMOOTH",
"211 278 LINE",
"211 120 LINE"
);
}
);
width = 738;
},
{
components = (
{
name = I;
}
);
layerId = "23BA42C1-D468-4A44-9BE5-E18AE60B7926";
paths = (
{
closed = 1;
nodes = (
"181 158 LINE SMOOTH",
"301 158 OFFCURVE",
"362 235 OFFCURVE",
"387 348 CURVE SMOOTH",
"414 475 OFFCURVE",
"383 572 OFFCURVE",
"257 572 CURVE SMOOTH",
"128 572 LINE",
"124 544 LINE",
"249 544 LINE SMOOTH",
"341 544 OFFCURVE",
"384 488 OFFCURVE",
"355 353 CURVE SMOOTH",
"328 225 OFFCURVE",
"267 186 OFFCURVE",
"185 186 CURVE SMOOTH",
"60 186 LINE",
"56 158 LINE"
);
}
);
width = 412;
},
{
components = (
{
name = I;
}
);
layerId = "2D4E69BA-A319-45D0-84B7-5297BCF4B7A0";
paths = (
{
closed = 1;
nodes = (
"206 106 LINE SMOOTH",
"379 106 OFFCURVE",
"490 235 OFFCURVE",
"497 443 CURVE SMOOTH",
"502 563 OFFCURVE",
"438 623 OFFCURVE",
"313 623 CURVE SMOOTH",
"198 623 LINE",
"170 466 LINE",
"273 466 LINE SMOOTH",
"301 466 OFFCURVE",
"316 452 OFFCURVE",
"315 416 CURVE SMOOTH",
"312 326 OFFCURVE",
"277 263 OFFCURVE",
"232 263 CURVE SMOOTH",
"135 263 LINE",
"107 106 LINE"
);
}
);
width = 501;
},
{
components = (
{
name = I;
}
);
layerId = "095FE76F-1953-440B-9108-AA0678D151F9";
paths = (
{
closed = 1;
nodes = (
"357 145 LINE SMOOTH",
"530 145 OFFCURVE",
"641 239 OFFCURVE",
"646 391 CURVE SMOOTH",
"650 504 OFFCURVE",
"585 584 OFFCURVE",
"452 584 CURVE SMOOTH",
"172 584 LINE",
"165 547 LINE",
"439 547 LINE SMOOTH",
"544 547 OFFCURVE",
"610 497 OFFCURVE",
"607 389 CURVE SMOOTH",
"602 258 OFFCURVE",
"515 180 OFFCURVE",
"362 180 CURVE SMOOTH",
"100 180 LINE",
"94 145 LINE"
);
}
);
width = 664;
},
{
components = (
{
name = I;
}
);
layerId = "63AAE8D6-1DFF-4DD4-BD9A-49272FE52904";
paths = (
{
closed = 1;
nodes = (
"382 116 LINE SMOOTH",
"556 116 OFFCURVE",
"681 220 OFFCURVE",
"687 390 CURVE SMOOTH",
"693 576 OFFCURVE",
"549 613 OFFCURVE",
"447 613 CURVE SMOOTH",
"282 613 LINE",
"251 436 LINE",
"415 436 LINE SMOOTH",
"458 436 OFFCURVE",
"481 411 OFFCURVE",
"479 368 CURVE SMOOTH",
"477 312 OFFCURVE",
"442 277 OFFCURVE",
"380 277 CURVE SMOOTH",
"223 277 LINE",
"194 116 LINE"
);
}
);
width = 697;
},
{
components = (
{
name = I;
}
);
layerId = "C17B1F32-8075-45B4-AA59-7DAFF0D7E404";
paths = (
{
closed = 1;
nodes = (
"414 145 LINE SMOOTH",
"594 145 OFFCURVE",
"701 236 OFFCURVE",
"707 395 CURVE SMOOTH",
"711 511 OFFCURVE",
"635 584 OFFCURVE",
"481 584 CURVE SMOOTH",
"142 584 LINE",
"135 547 LINE",
"470 547 LINE SMOOTH",
"595 547 OFFCURVE",
"671 502 OFFCURVE",
"667 392 CURVE SMOOTH",
"662 256 OFFCURVE",
"578 181 OFFCURVE",
"419 181 CURVE SMOOTH",
"71 181 LINE",
"64 145 LINE"
);
}
);
width = 723;
},
{
components = (
{
name = I;
}
);
layerId = "377EF8AC-8B0D-46C2-96BB-3B5B69A8F571";
paths = (
{
closed = 1;
nodes = (
"449 121 LINE SMOOTH",
"637 121 OFFCURVE",
"765 207 OFFCURVE",
"771 391 CURVE SMOOTH",
"776 522 OFFCURVE",
"703 609 OFFCURVE",
"507 609 CURVE SMOOTH",
"293 609 LINE",
"263 436 LINE",
"454 436 LINE SMOOTH",
"513 436 OFFCURVE",
"542 418 OFFCURVE",
"541 369 CURVE SMOOTH",
"539 306 OFFCURVE",
"501 278 OFFCURVE",
"425 278 CURVE SMOOTH",
"235 278 LINE",
"207 121 LINE"
);
}
);
width = 780;
}
);
leftMetricsKey = H;
rightMetricsKey = P;
unicode = 00DE;
},
{
glyphname = Q;
lastChange = "2022-08-11 18:43:28 +0000";
layers = (
{
anchors = (
{
name = bottom;
position = "{255, 0}";
},
{
name = top;
position = "{255, 729}";
}
);
layerId = "E787E54A-EE3E-475A-BF02-8501A6DA5144";
paths = (
{
closed = 1;
nodes = (
"456 -176 LINE",
"456 -33 LINE",
"348 21 LINE",
"451 56 OFFCURVE",
"486 177 OFFCURVE",
"486 365 CURVE SMOOTH",
"486 594 OFFCURVE",
"435 739 OFFCURVE",
"255 739 CURVE SMOOTH",
"76 739 OFFCURVE",
"24 595 OFFCURVE",
"24 365 CURVE SMOOTH",
"24 127 OFFCURVE",
"81 7 OFFCURVE",
"223 -7 CURVE",
"432 -176 LINE"
);
},
{
closed = 1;
nodes = (
"217 147 OFFCURVE",
"205 202 OFFCURVE",
"205 365 CURVE SMOOTH",
"205 515 OFFCURVE",
"213 583 OFFCURVE",
"255 583 CURVE SMOOTH",
"293 583 OFFCURVE",
"306 529 OFFCURVE",
"306 365 CURVE SMOOTH",
"306 217 OFFCURVE",
"298 147 OFFCURVE",
"255 147 CURVE SMOOTH"
);
}
);
width = 510;
},
{
anchors = (
{
name = bottom;
position = "{203, 0}";
},
{
name = top;
position = "{203, 729}";
}
);
layerId = "5713303B-ED49-44A7-8230-B5CAE56DEB7E";
paths = (
{
closed = 1;
nodes = (
"349 -136 LINE",
"349 -100 LINE",
"252 -2 LINE",
"322 22 OFFCURVE",
"369 114 OFFCURVE",
"369 364 CURVE SMOOTH",
"369 666 OFFCURVE",
"300 738 OFFCURVE",
"203 738 CURVE SMOOTH",
"107 738 OFFCURVE",
"38 667 OFFCURVE",
"38 364 CURVE SMOOTH",
"38 47 OFFCURVE",
"114 -17 OFFCURVE",
"219 -10 CURVE",
"342 -136 LINE"
);
},
{
closed = 1;
nodes = (
"98 19 OFFCURVE",
"71 158 OFFCURVE",
"71 364 CURVE SMOOTH",
"71 570 OFFCURVE",
"98 709 OFFCURVE",
"203 709 CURVE SMOOTH",
"309 709 OFFCURVE",
"336 569 OFFCURVE",
"336 364 CURVE SMOOTH",
"336 159 OFFCURVE",
"309 19 OFFCURVE",
"203 19 CURVE SMOOTH"
);
}
);
width = 407;
},
{
anchors = (
{
name = bottom;
position = "{396, 0}";
},
{
name = top;
position = "{396, 729}";
}
);
layerId = master01;
paths = (
{
closed = 1;
nodes = (
"647 -167 LINE",
"647 -127 LINE",
"452 -5 LINE",
"631 20 OFFCURVE",
"746 160 OFFCURVE",
"746 364 CURVE SMOOTH",
"746 587 OFFCURVE",
"608 736 OFFCURVE",
"396 736 CURVE SMOOTH",
"185 736 OFFCURVE",
"46 588 OFFCURVE",
"46 364 CURVE SMOOTH",
"46 142 OFFCURVE",
"185 -8 OFFCURVE",
"396 -8 CURVE",
"640 -167 LINE"
);
},
{
closed = 1;
nodes = (
"205 28 OFFCURVE",
"87 163 OFFCURVE",
"87 364 CURVE SMOOTH",
"87 565 OFFCURVE",
"204 700 OFFCURVE",
"396 700 CURVE SMOOTH",
"587 700 OFFCURVE",
"706 566 OFFCURVE",
"706 364 CURVE SMOOTH",
"706 164 OFFCURVE",
"588 28 OFFCURVE",
"396 28 CURVE SMOOTH"
);
}
);
userData = {
com.schriftgestaltung.Glyphs.glyph.leftMetricsKey = O;
com.schriftgestaltung.Glyphs.glyph.rightMetricsKey = O;
com.schriftgestaltung.hints = (
{
horizontal = 1;
options = 0;
origin = (
0,
15
);
stem = -2;
target = (
u,
p
);
type = BottomGhost;
},
{
horizontal = 1;
options = 0;
origin = (
1,
11
);
stem = -2;
target = (
0,
14
);
type = Stem;
},
{
horizontal = 1;
options = 0;
origin = (
0,
8
);
stem = -2;
target = (
1,
5
);
type = Stem;
},
{
horizontal = 0;
options = 0;
origin = (
0,
11
);
stem = -2;
target = (
1,
2
);
type = Stem;
},
{
horizontal = 0;
options = 0;
origin = (
1,
8
);
stem = -2;
target = (
0,
5
);
type = Stem;
}
);
};
width = 792;
},
{
anchors = (
{
name = bottom;
position = "{404, 0}";
},
{
name = top;
position = "{404, 729}";
}
);
layerId = "1EDCBF6C-9964-4A28-BC87-E86B534B8BE7";
paths = (
{
closed = 1;
nodes = (
"727 -177 LINE",
"727 -4 LINE",
"559 25 LINE",
"698 75 OFFCURVE",
"776 194 OFFCURVE",
"776 365 CURVE SMOOTH",
"776 607 OFFCURVE",
"627 739 OFFCURVE",
"403 739 CURVE SMOOTH",
"180 739 OFFCURVE",
"31 607 OFFCURVE",
"31 365 CURVE SMOOTH",
"31 128 OFFCURVE",
"173 -3 OFFCURVE",
"387 -10 CURVE",
"695 -177 LINE"
);
},
{
closed = 1;
nodes = (
"305 162 OFFCURVE",
"239 220 OFFCURVE",
"239 365 CURVE SMOOTH",
"239 509 OFFCURVE",
"305 567 OFFCURVE",
"403 567 CURVE SMOOTH",
"502 567 OFFCURVE",
"568 508 OFFCURVE",
"568 365 CURVE SMOOTH",
"568 221 OFFCURVE",
"502 162 OFFCURVE",
"403 162 CURVE SMOOTH"
);
}
);
userData = {
com.schriftgestaltung.Glyphs.glyph.leftMetricsKey = O;
com.schriftgestaltung.Glyphs.glyph.rightMetricsKey = O;
};
width = 807;
},
{
anchors = (
{
name = bottom;
position = "{419, 0}";
},
{
name = top;
position = "{419, 729}";
}
);
layerId = "28A8A76A-23B4-40F5-83B9-DC51E48BF161";
paths = (
{
closed = 1;
nodes = (
"676 -167 LINE",
"676 -128 LINE",
"471 -4 LINE",
"671 17 OFFCURVE",
"801 158 OFFCURVE",
"801 364 CURVE SMOOTH",
"801 587 OFFCURVE",
"651 736 OFFCURVE",
"421 736 CURVE SMOOTH",
"192 736 OFFCURVE",
"41 588 OFFCURVE",
"41 364 CURVE SMOOTH",
"41 142 OFFCURVE",
"191 -8 OFFCURVE",
"419 -8 CURVE",
"669 -167 LINE"
);
},
{
closed = 1;
nodes = (
"211 28 OFFCURVE",
"81 163 OFFCURVE",
"81 364 CURVE SMOOTH",
"81 565 OFFCURVE",
"209 700 OFFCURVE",
"421 700 CURVE SMOOTH",
"630 700 OFFCURVE",
"761 566 OFFCURVE",
"761 364 CURVE SMOOTH",
"761 164 OFFCURVE",
"632 28 OFFCURVE",
"421 28 CURVE SMOOTH"
);
}
);
width = 842;
},
{
anchors = (
{
name = bottom;
position = "{446, 0}";
},
{
name = top;
position = "{446, 729}";
}
);
layerId = "D2144554-01B8-4B9B-B16A-E0E5B5794DFC";
paths = (
{
closed = 1;
nodes = (
"800 -178 LINE",
"800 -14 LINE",
"630 34 LINE",
"782 78 OFFCURVE",
"869 208 OFFCURVE",
"869 365 CURVE SMOOTH",
"869 592 OFFCURVE",
"715 739 OFFCURVE",
"447 739 CURVE SMOOTH",
"176 739 OFFCURVE",
"22 592 OFFCURVE",
"22 365 CURVE SMOOTH",
"22 145 OFFCURVE",
"168 -2 OFFCURVE",
"425 -10 CURVE",
"767 -178 LINE"
);
},
{
closed = 1;
nodes = (
"330 170 OFFCURVE",
"253 230 OFFCURVE",
"253 365 CURVE SMOOTH",
"253 500 OFFCURVE",
"330 560 OFFCURVE",
"447 560 CURVE SMOOTH",
"562 560 OFFCURVE",
"639 500 OFFCURVE",
"639 365 CURVE SMOOTH",
"639 230 OFFCURVE",
"562 170 OFFCURVE",
"447 170 CURVE SMOOTH"
);
}
);
width = 891;
},
{
anchors = (
{
name = bottom;
position = "{149, 0}";
},
{
name = top;
position = "{300, 729}";
}
);
layerId = "23BA42C1-D468-4A44-9BE5-E18AE60B7926";
paths = (
{
closed = 1;
nodes = (
"263 -166 LINE",
"271 -137 LINE",
"165 -9 LINE",
"248 0 OFFCURVE",
"321 82 OFFCURVE",
"376 350 CURVE SMOOTH",
"417 552 OFFCURVE",
"435 737 OFFCURVE",
"278 737 CURVE SMOOTH",
"179 737 OFFCURVE",
"108 642 OFFCURVE",
"52 375 CURVE SMOOTH",
"12 185 OFFCURVE",
"-3 6 OFFCURVE",
"131 -8 CURVE",
"258 -166 LINE"
);
},
{
closed = 1;
nodes = (
"27 20 OFFCURVE",
"47 195 OFFCURVE",
"84 373 CURVE SMOOTH",
"126 573 OFFCURVE",
"178 708 OFFCURVE",
"277 708 CURVE SMOOTH",
"395 708 OFFCURVE",
"383 543 OFFCURVE",
"344 356 CURVE SMOOTH",
"296 126 OFFCURVE",
"238 20 OFFCURVE",
"151 20 CURVE SMOOTH"
);
}
);
width = 404;
},
{
anchors = (
{
name = bottom;
position = "{194, 0}";
},
{
name = top;
position = "{345, 729}";
}
);
layerId = "2D4E69BA-A319-45D0-84B7-5297BCF4B7A0";
paths = (
{
closed = 1;
nodes = (
"351 -176 LINE",
"380 -34 LINE",
"292 17 LINE",
"397 56 OFFCURVE",
"455 177 OFFCURVE",
"490 351 CURVE SMOOTH",
"535 568 OFFCURVE",
"522 726 OFFCURVE",
"340 738 CURVE SMOOTH",
"171 749 OFFCURVE",
"88 619 OFFCURVE",
"38 381 CURVE SMOOTH",
"-5 177 OFFCURVE",
"5 25 OFFCURVE",
"153 -3 CURVE",
"327 -176 LINE"
);
},
{
closed = 1;
nodes = (
"180 149 OFFCURVE",
"181 208 OFFCURVE",
"214 372 CURVE SMOOTH",
"244 517 OFFCURVE",
"269 585 OFFCURVE",
"307 583 CURVE SMOOTH",
"346 581 OFFCURVE",
"349 529 OFFCURVE",
"313 357 CURVE SMOOTH",
"284 215 OFFCURVE",
"260 145 OFFCURVE",
"220 147 CURVE SMOOTH"
);
}
);
width = 500;
},
{
anchors = (
{
name = bottom;
position = "{305, 0}";
},
{
name = top;
position = "{456, 729}";
}
);
layerId = "095FE76F-1953-440B-9108-AA0678D151F9";
paths = (
{
closed = 1;
nodes = (
"526 -167 LINE",
"533 -132 LINE",
"368 -11 LINE",
"572 8 OFFCURVE",
"708 183 OFFCURVE",
"717 420 CURVE SMOOTH",
"723 610 OFFCURVE",
"615 739 OFFCURVE",
"439 739 CURVE SMOOTH",
"218 739 OFFCURVE",
"62 565 OFFCURVE",
"53 309 CURVE SMOOTH",
"47 123 OFFCURVE",
"148 -2 OFFCURVE",
"315 -9 CURVE",
"518 -167 LINE"
);
},
{
closed = 1;
nodes = (
"185 25 OFFCURVE",
"87 126 OFFCURVE",
"93 309 CURVE SMOOTH",
"101 547 OFFCURVE",
"236 704 OFFCURVE",
"433 704 CURVE SMOOTH",
"587 704 OFFCURVE",
"683 600 OFFCURVE",
"677 420 CURVE SMOOTH",
"669 183 OFFCURVE",
"533 25 OFFCURVE",
"335 25 CURVE SMOOTH"
);
}
);
width = 726;
},
{
anchors = (
{
name = bottom;
position = "{333, 0}";
},
{
name = top;
position = "{484, 729}";
}
);
layerId = "63AAE8D6-1DFF-4DD4-BD9A-49272FE52904";
paths = (
{
closed = 1;
nodes = (
"645 -182 LINE",
"681 -8 LINE",
"519 25 LINE",
"667 61 OFFCURVE",
"770 207 OFFCURVE",
"776 392 CURVE SMOOTH",
"783 599 OFFCURVE",
"662 738 OFFCURVE",
"437 738 CURVE SMOOTH",
"210 738 OFFCURVE",
"51 581 OFFCURVE",
"42 337 CURVE SMOOTH",
"36 140 OFFCURVE",
"144 5 OFFCURVE",
"348 -8 CURVE",
"623 -181 LINE"
);
},
{
closed = 1;
nodes = (
"300 160 OFFCURVE",
"245 215 OFFCURVE",
"249 329 CURVE SMOOTH",
"254 474 OFFCURVE",
"323 569 OFFCURVE",
"434 569 CURVE SMOOTH",
"519 569 OFFCURVE",
"573 514 OFFCURVE",
"569 400 CURVE SMOOTH",
"564 255 OFFCURVE",
"496 160 OFFCURVE",
"385 160 CURVE SMOOTH"
);
}
);
width = 780;
},
{
anchors = (
{
name = bottom;
position = "{338, 0}";
},
{
name = top;
position = "{489, 729}";
}
);
layerId = "C17B1F32-8075-45B4-AA59-7DAFF0D7E404";
paths = (
{
closed = 1;
nodes = (
"619 -167 LINE",
"626 -131 LINE",
"428 -8 LINE",
"653 8 OFFCURVE",
"800 172 OFFCURVE",
"808 397 CURVE SMOOTH",
"815 608 OFFCURVE",
"683 739 OFFCURVE",
"471 739 CURVE SMOOTH",
"230 739 OFFCURVE",
"62 575 OFFCURVE",
"53 333 CURVE SMOOTH",
"46 127 OFFCURVE",
"171 -3 OFFCURVE",
"376 -9 CURVE",
"612 -167 LINE"
);
},
{
closed = 1;
nodes = (
"208 27 OFFCURVE",
"86 133 OFFCURVE",
"93 330 CURVE SMOOTH",
"101 559 OFFCURVE",
"245 703 OFFCURVE",
"466 703 CURVE SMOOTH",
"653 703 OFFCURVE",
"775 597 OFFCURVE",
"768 400 CURVE SMOOTH",
"760 171 OFFCURVE",
"616 27 OFFCURVE",
"394 27 CURVE SMOOTH"
);
}
);
width = 838;
},
{
anchors = (
{
name = bottom;
position = "{364, 0}";
},
{
name = top;
position = "{515, 729}";
}
);
layerId = "377EF8AC-8B0D-46C2-96BB-3B5B69A8F571";
paths = (
{
closed = 1;
nodes = (
"720 -179 LINE",
"758 -15 LINE",
"598 32 LINE",
"765 66 OFFCURVE",
"868 211 OFFCURVE",
"874 387 CURVE SMOOTH",
"881 601 OFFCURVE",
"738 738 OFFCURVE",
"481 738 CURVE SMOOTH",
"220 738 OFFCURVE",
"41 580 OFFCURVE",
"33 341 CURVE SMOOTH",
"26 148 OFFCURVE",
"143 14 OFFCURVE",
"364 -7 CURVE",
"706 -178 LINE"
);
},
{
closed = 1;
nodes = (
"328 169 OFFCURVE",
"258 233 OFFCURVE",
"262 350 CURVE SMOOTH",
"266 470 OFFCURVE",
"337 559 OFFCURVE",
"472 559 CURVE SMOOTH",
"578 559 OFFCURVE",
"648 495 OFFCURVE",
"644 379 CURVE SMOOTH",
"640 260 OFFCURVE",
"570 169 OFFCURVE",
"435 169 CURVE SMOOTH"
);
}
);
width = 889;
}
);
leftKerningGroup = C;
leftMetricsKey = O;
rightKerningGroup = C;
unicode = 0051;
},
{
glyphname = R;
lastChange = "2022-08-11 16:47:25 +0000";
layers = (
{
anchors = (
{
name = bottom;
position = "{237, 0}";
},
{
name = top;
position = "{237, 729}";
}
);
background = {
paths = (
{
closed = 1;
nodes = (
"255 0 LINE",
"255 200 LINE",
"281 200 LINE SMOOTH",
"454 200 OFFCURVE",
"536 284 OFFCURVE",
"536 464 CURVE SMOOTH",
"536 644 OFFCURVE",
"454 729 OFFCURVE",
"281 729 CURVE SMOOTH",
"58 729 LINE",
"58 0 LINE"
);
},
{
closed = 1;
nodes = (
"255 557 LINE",
"275 557 LINE SMOOTH",
"318 557 OFFCURVE",
"339 539 OFFCURVE",
"339 468 CURVE SMOOTH",
"339 403 OFFCURVE",
"326 372 OFFCURVE",
"275 372 CURVE SMOOTH",
"255 372 LINE"
);
}
);
};
layerId = "E787E54A-EE3E-475A-BF02-8501A6DA5144";
paths = (
{
closed = 1;
nodes = (
"207 0 LINE",
"207 248 LINE",
"232 248 LINE SMOOTH",
"266 248 OFFCURVE",
"267 206 OFFCURVE",
"267 171 CURVE SMOOTH",
"267 63 LINE SMOOTH",
"267 50 OFFCURVE",
"269 20 OFFCURVE",
"275 0 CURVE",
"456 0 LINE",
"452 21 OFFCURVE",
"449 43 OFFCURVE",
"449 74 CURVE SMOOTH",
"449 191 LINE SMOOTH",
"449 263 OFFCURVE",
"432 328 OFFCURVE",
"376 338 CURVE",
"376 345 LINE",
"427 363 OFFCURVE",
"460 422 OFFCURVE",
"460 517 CURVE SMOOTH",
"460 680 OFFCURVE",
"367 729 OFFCURVE",
"229 729 CURVE SMOOTH",
"28 729 LINE",
"28 0 LINE"
);
},
{
closed = 1;
nodes = (
"207 572 LINE",
"219 572 LINE SMOOTH",
"262 572 OFFCURVE",
"280 548 OFFCURVE",
"280 480 CURVE SMOOTH",
"280 421 OFFCURVE",
"269 388 OFFCURVE",
"220 388 CURVE SMOOTH",
"207 388 LINE"
);
}
);
width = 473;
},
{
anchors = (
{
name = bottom;
position = "{194, 0}";
},
{
name = top;
position = "{194, 729}";
}
);
layerId = "5713303B-ED49-44A7-8230-B5CAE56DEB7E";
paths = (
{
closed = 1;
nodes = (
"96 0 LINE",
"96 341 LINE",
"232 341 LINE SMOOTH",
"282 341 OFFCURVE",
"317 316 OFFCURVE",
"317 212 CURVE SMOOTH",
"317 78 LINE SMOOTH",
"317 48 OFFCURVE",
"317 24 OFFCURVE",
"325 0 CURVE",
"355 0 LINE",
"348 26 OFFCURVE",
"348 50 OFFCURVE",
"348 73 CURVE SMOOTH",
"348 208 LINE SMOOTH",
"348 302 OFFCURVE",
"323 342 OFFCURVE",
"277 355 CURVE",
"277 362 LINE",
"332 387 OFFCURVE",
"360 453 OFFCURVE",
"360 535 CURVE SMOOTH",
"360 668 OFFCURVE",
"305 729 OFFCURVE",
"198 729 CURVE SMOOTH",
"65 729 LINE",
"65 0 LINE"
);
},
{
closed = 1;
nodes = (
"96 701 LINE",
"195 701 LINE SMOOTH",
"298 701 OFFCURVE",
"327 634 OFFCURVE",
"327 537 CURVE SMOOTH",
"327 441 OFFCURVE",
"291 370 OFFCURVE",
"202 370 CURVE SMOOTH",
"96 370 LINE"
);
}
);
width = 388;
},
{
anchors = (
{
name = bottom;
position = "{364, 0}";
},
{
name = top;
position = "{364, 729}";
}
);
layerId = master01;
paths = (
{
closed = 1;
nodes = (
"141 0 LINE",
"141 336 LINE",
"423 336 LINE SMOOTH",
"549 336 OFFCURVE",
"580 291 OFFCURVE",
"580 200 CURVE SMOOTH",
"580 77 LINE SMOOTH",
"580 45 OFFCURVE",
"581 22 OFFCURVE",
"591 0 CURVE",
"630 0 LINE",
"619 26 OFFCURVE",
"619 50 OFFCURVE",
"619 73 CURVE SMOOTH",
"619 207 LINE SMOOTH",
"619 291 OFFCURVE",
"589 341 OFFCURVE",
"503 354 CURVE",
"503 361 LINE",
"591 386 OFFCURVE",
"634 450 OFFCURVE",
"634 540 CURVE SMOOTH",
"634 660 OFFCURVE",
"555 729 OFFCURVE",
"413 729 CURVE SMOOTH",
"103 729 LINE",
"103 0 LINE"
);
},
{
closed = 1;
nodes = (
"141 693 LINE",
"409 693 LINE SMOOTH",
"521 693 OFFCURVE",
"595 645 OFFCURVE",
"595 536 CURVE SMOOTH",
"595 439 OFFCURVE",
"542 371 OFFCURVE",
"409 371 CURVE SMOOTH",
"141 371 LINE"
);
}
);
userData = {
com.schriftgestaltung.Glyphs.glyph.leftMetricsKey = H;
com.schriftgestaltung.hints = (
{
horizontal = 1;
options = 0;
origin = (
0,
26
);
stem = -2;
target = (
u,
p
);
type = BottomGhost;
},
{
horizontal = 1;
options = 0;
origin = (
1,
8
);
stem = -2;
target = (
0,
1
);
type = Stem;
},
{
horizontal = 1;
options = 0;
origin = (
0,
25
);
stem = -2;
target = (
1,
0
);
type = Stem;
},
{
horizontal = 0;
options = 0;
origin = (
0,
26
);
stem = -2;
target = (
0,
0
);
type = Stem;
},
{
horizontal = 0;
options = 0;
origin = (
0,
6
);
stem = -2;
target = (
0,
13
);
type = Stem;
},
{
horizontal = 0;
options = 0;
origin = (
1,
4
);
stem = -2;
target = (
0,
21
);
type = Stem;
}
);
};
width = 699;
},
{
anchors = (
{
name = bottom;
position = "{386, 0}";
},
{
name = top;
position = "{386, 729}";
}
);
background = {
paths = (
{
closed = 1;
nodes = (
"272 0 LINE",
"272 241 LINE",
"402 241 LINE SMOOTH",
"475 241 OFFCURVE",
"495 210 OFFCURVE",
"495 159 CURVE SMOOTH",
"495 87 LINE SMOOTH",
"495 49 OFFCURVE",
"499 16 OFFCURVE",
"507 0 CURVE",
"711 0 LINE",
"698 29 OFFCURVE",
"698 60 OFFCURVE",
"698 88 CURVE SMOOTH",
"698 194 LINE SMOOTH",
"698 275 OFFCURVE",
"661 318 OFFCURVE",
"592 333 CURVE",
"592 340 LINE",
"667 357 OFFCURVE",
"717 426 OFFCURVE",
"717 512 CURVE SMOOTH",
"717 652 OFFCURVE",
"631 729 OFFCURVE",
"449 729 CURVE SMOOTH",
"69 729 LINE",
"69 0 LINE"
);
},
{
closed = 1;
nodes = (
"272 563 LINE",
"419 563 LINE SMOOTH",
"472 563 OFFCURVE",
"509 543 OFFCURVE",
"509 484 CURVE SMOOTH",
"509 436 OFFCURVE",
"484 400 OFFCURVE",
"419 400 CURVE SMOOTH",
"272 400 LINE"
);
}
);
};
layerId = "1EDCBF6C-9964-4A28-BC87-E86B534B8BE7";
paths = (
{
closed = 1;
nodes = (
"272 0 LINE",
"272 241 LINE",
"402 241 LINE SMOOTH",
"475 241 OFFCURVE",
"495 210 OFFCURVE",
"495 159 CURVE SMOOTH",
"495 87 LINE SMOOTH",
"495 49 OFFCURVE",
"499 16 OFFCURVE",
"507 0 CURVE",
"711 0 LINE",
"698 29 OFFCURVE",
"698 60 OFFCURVE",
"698 88 CURVE SMOOTH",
"698 194 LINE SMOOTH",
"698 275 OFFCURVE",
"661 318 OFFCURVE",
"592 333 CURVE",
"592 340 LINE",
"667 357 OFFCURVE",
"717 426 OFFCURVE",
"717 512 CURVE SMOOTH",
"717 652 OFFCURVE",
"631 729 OFFCURVE",
"449 729 CURVE SMOOTH",
"69 729 LINE",
"69 0 LINE"
);
},
{
closed = 1;
nodes = (
"272 563 LINE",
"419 563 LINE SMOOTH",
"472 563 OFFCURVE",
"509 543 OFFCURVE",
"509 484 CURVE SMOOTH",
"509 436 OFFCURVE",
"484 400 OFFCURVE",
"419 400 CURVE SMOOTH",
"272 400 LINE"
);
}
);
userData = {
com.schriftgestaltung.Glyphs.glyph.leftMetricsKey = H;
};
width = 747;
},
{
anchors = (
{
name = bottom;
position = "{365, 0}";
},
{
name = top;
position = "{365, 729}";
}
);
layerId = "28A8A76A-23B4-40F5-83B9-DC51E48BF161";
paths = (
{
closed = 1;
nodes = (
"109 0 LINE",
"109 336 LINE",
"476 336 LINE SMOOTH",
"602 336 OFFCURVE",
"633 291 OFFCURVE",
"633 200 CURVE SMOOTH",
"633 77 LINE SMOOTH",
"633 45 OFFCURVE",
"634 22 OFFCURVE",
"644 0 CURVE",
"682 0 LINE",
"671 26 OFFCURVE",
"671 50 OFFCURVE",
"671 73 CURVE SMOOTH",
"671 207 LINE SMOOTH",
"671 291 OFFCURVE",
"642 341 OFFCURVE",
"556 354 CURVE",
"556 361 LINE",
"644 386 OFFCURVE",
"687 450 OFFCURVE",
"687 540 CURVE SMOOTH",
"687 660 OFFCURVE",
"608 729 OFFCURVE",
"466 729 CURVE SMOOTH",
"71 729 LINE",
"71 0 LINE"
);
},
{
closed = 1;
nodes = (
"109 693 LINE",
"462 693 LINE SMOOTH",
"574 693 OFFCURVE",
"648 645 OFFCURVE",
"648 536 CURVE SMOOTH",
"648 439 OFFCURVE",
"595 371 OFFCURVE",
"462 371 CURVE SMOOTH",
"109 371 LINE"
);
}
);
width = 715;
},
{
anchors = (
{
name = bottom;
position = "{409, 0}";
},
{
name = top;
position = "{409, 729}";
}
);
background = {
paths = (
{
closed = 1;
nodes = (
"283 0 LINE",
"283 223 LINE",
"451 223 LINE SMOOTH",
"520 223 OFFCURVE",
"540 192 OFFCURVE",
"540 143 CURVE SMOOTH",
"540 90 LINE SMOOTH",
"540 45 OFFCURVE",
"544 17 OFFCURVE",
"552 0 CURVE",
"787 0 LINE",
"774 30 OFFCURVE",
"774 62 OFFCURVE",
"774 92 CURVE SMOOTH",
"774 176 LINE SMOOTH",
"774 258 OFFCURVE",
"735 303 OFFCURVE",
"659 316 CURVE",
"659 323 LINE",
"738 342 OFFCURVE",
"793 411 OFFCURVE",
"793 501 CURVE SMOOTH",
"793 678 OFFCURVE",
"655 729 OFFCURVE",
"493 729 CURVE SMOOTH",
"54 729 LINE",
"54 0 LINE"
);
},
{
closed = 1;
nodes = (
"283 550 LINE",
"443 550 LINE SMOOTH",
"507 550 OFFCURVE",
"550 535 OFFCURVE",
"550 475 CURVE SMOOTH",
"550 426 OFFCURVE",
"528 393 OFFCURVE",
"443 393 CURVE SMOOTH",
"283 393 LINE"
);
}
);
};
layerId = "D2144554-01B8-4B9B-B16A-E0E5B5794DFC";
paths = (
{
closed = 1;
nodes = (
"283 0 LINE",
"283 230 LINE",
"453 230 LINE SMOOTH",
"526 230 OFFCURVE",
"546 197 OFFCURVE",
"546 146 CURVE SMOOTH",
"546 89 LINE SMOOTH",
"546 46 OFFCURVE",
"550 17 OFFCURVE",
"558 0 CURVE",
"788 0 LINE",
"775 30 OFFCURVE",
"775 61 OFFCURVE",
"775 91 CURVE SMOOTH",
"775 177 LINE SMOOTH",
"775 261 OFFCURVE",
"736 305 OFFCURVE",
"660 319 CURVE",
"660 326 LINE",
"744 346 OFFCURVE",
"794 418 OFFCURVE",
"794 504 CURVE SMOOTH",
"794 677 OFFCURVE",
"658 729 OFFCURVE",
"498 729 CURVE SMOOTH",
"54 729 LINE",
"54 0 LINE"
);
},
{
closed = 1;
nodes = (
"283 558 LINE",
"451 558 LINE SMOOTH",
"517 558 OFFCURVE",
"562 541 OFFCURVE",
"562 479 CURVE SMOOTH",
"562 427 OFFCURVE",
"538 392 OFFCURVE",
"451 392 CURVE SMOOTH",
"283 392 LINE"
);
}
);
width = 814;
},
{
anchors = (
{
name = bottom;
position = "{145, 0}";
},
{
name = top;
position = "{296, 729}";
}
);
layerId = "23BA42C1-D468-4A44-9BE5-E18AE60B7926";
paths = (
{
closed = 1;
nodes = (
"31 0 LINE",
"102 341 LINE",
"237 341 LINE SMOOTH",
"295 341 OFFCURVE",
"309 292 OFFCURVE",
"291 205 CURVE SMOOTH",
"264 71 LINE SMOOTH",
"258 43 OFFCURVE",
"254 12 OFFCURVE",
"255 0 CURVE",
"284 0 LINE",
"285 21 OFFCURVE",
"288 41 OFFCURVE",
"292 63 CURVE SMOOTH",
"322 198 LINE SMOOTH",
"340 282 OFFCURVE",
"329 333 OFFCURVE",
"283 351 CURVE",
"284 358 LINE",
"356 384 OFFCURVE",
"405 473 OFFCURVE",
"408 577 CURVE SMOOTH",
"411 668 OFFCURVE",
"368 729 OFFCURVE",
"272 729 CURVE SMOOTH",
"151 729 LINE",
"0 0 LINE"
);
},
{
closed = 1;
nodes = (
"175 701 LINE",
"263 701 LINE SMOOTH",
"333 701 OFFCURVE",
"380 666 OFFCURVE",
"377 577 CURVE SMOOTH",
"372 453 OFFCURVE",
"308 370 OFFCURVE",
"216 370 CURVE SMOOTH",
"108 370 LINE"
);
}
);
width = 396;
},
{
anchors = (
{
name = bottom;
position = "{182, 0}";
},
{
name = top;
position = "{333, 729}";
}
);
layerId = "2D4E69BA-A319-45D0-84B7-5297BCF4B7A0";
paths = (
{
closed = 1;
nodes = (
"141 0 LINE",
"192 248 LINE",
"216 248 LINE SMOOTH",
"248 248 OFFCURVE",
"244 211 OFFCURVE",
"236 171 CURVE SMOOTH",
"213 63 LINE SMOOTH",
"208 42 OFFCURVE",
"207 18 OFFCURVE",
"208 0 CURVE",
"387 0 LINE",
"388 13 OFFCURVE",
"390 46 OFFCURVE",
"396 73 CURVE SMOOTH",
"420 190 LINE SMOOTH",
"437 268 OFFCURVE",
"432 316 OFFCURVE",
"378 336 CURVE",
"379 343 LINE",
"452 370 OFFCURVE",
"501 456 OFFCURVE",
"505 557 CURVE SMOOTH",
"508 659 OFFCURVE",
"454 729 OFFCURVE",
"313 729 CURVE SMOOTH",
"115 729 LINE",
"-37 0 LINE"
);
},
{
closed = 1;
nodes = (
"260 572 LINE",
"271 572 LINE SMOOTH",
"301 572 OFFCURVE",
"320 559 OFFCURVE",
"319 519 CURVE SMOOTH",
"316 440 OFFCURVE",
"284 388 OFFCURVE",
"242 388 CURVE SMOOTH",
"222 388 LINE"
);
}
);
width = 476;
},
{
anchors = (
{
name = bottom;
position = "{288, 0}";
},
{
name = top;
position = "{439, 729}";
}
);
layerId = "095FE76F-1953-440B-9108-AA0678D151F9";
paths = (
{
closed = 1;
nodes = (
"76 0 LINE",
"146 335 LINE",
"447 335 LINE SMOOTH",
"538 335 OFFCURVE",
"564 297 OFFCURVE",
"544 200 CURVE SMOOTH",
"519 80 LINE SMOOTH",
"509 33 OFFCURVE",
"508 20 OFFCURVE",
"513 0 CURVE",
"551 0 LINE",
"545 27 OFFCURVE",
"549 51 OFFCURVE",
"554 74 CURVE SMOOTH",
"582 207 LINE SMOOTH",
"604 307 OFFCURVE",
"570 342 OFFCURVE",
"511 354 CURVE",
"514 361 LINE",
"606 380 OFFCURVE",
"667 452 OFFCURVE",
"671 548 CURVE SMOOTH",
"674 657 OFFCURVE",
"607 729 OFFCURVE",
"474 729 CURVE SMOOTH",
"190 729 LINE",
"39 0 LINE"
);
},
{
closed = 1;
nodes = (
"220 693 LINE",
"461 693 LINE SMOOTH",
"584 693 OFFCURVE",
"634 634 OFFCURVE",
"631 546 CURVE SMOOTH",
"627 438 OFFCURVE",
"552 371 OFFCURVE",
"435 371 CURVE SMOOTH",
"153 371 LINE"
);
}
);
width = 683;
},
{
anchors = (
{
name = bottom;
position = "{313, 0}";
},
{
name = top;
position = "{464, 729}";
}
);
layerId = "63AAE8D6-1DFF-4DD4-BD9A-49272FE52904";
paths = (
{
closed = 1;
nodes = (
"204 0 LINE",
"255 250 LINE",
"380 250 LINE SMOOTH",
"436 250 OFFCURVE",
"462 225 OFFCURVE",
"448 163 CURVE SMOOTH",
"425 59 LINE SMOOTH",
"420 40 OFFCURVE",
"419 16 OFFCURVE",
"421 0 CURVE",
"623 0 LINE",
"621 15 OFFCURVE",
"623 40 OFFCURVE",
"629 70 CURVE SMOOTH",
"651 179 LINE SMOOTH",
"664 243 OFFCURVE",
"641 303 OFFCURVE",
"581 321 CURVE",
"583 328 LINE",
"686 358 OFFCURVE",
"735 435 OFFCURVE",
"738 536 CURVE SMOOTH",
"742 651 OFFCURVE",
"668 729 OFFCURVE",
"504 729 CURVE SMOOTH",
"154 729 LINE",
"3 0 LINE"
);
},
{
closed = 1;
nodes = (
"321 569 LINE",
"451 569 LINE SMOOTH",
"510 569 OFFCURVE",
"534 541 OFFCURVE",
"532 495 CURVE SMOOTH",
"530 435 OFFCURVE",
"487 398 OFFCURVE",
"422 398 CURVE SMOOTH",
"285 398 LINE"
);
}
);
width = 737;
},
{
anchors = (
{
name = bottom;
position = "{309, 0}";
},
{
name = top;
position = "{460, 729}";
}
);
layerId = "C17B1F32-8075-45B4-AA59-7DAFF0D7E404";
paths = (
{
closed = 1;
nodes = (
"45 0 LINE",
"115 336 LINE",
"481 336 LINE SMOOTH",
"600 336 OFFCURVE",
"621 292 OFFCURVE",
"599 183 CURVE SMOOTH",
"578 77 LINE SMOOTH",
"571 40 OFFCURVE",
"569 17 OFFCURVE",
"572 0 CURVE",
"611 0 LINE",
"607 18 OFFCURVE",
"607 35 OFFCURVE",
"614 73 CURVE SMOOTH",
"639 190 LINE SMOOTH",
"659 288 OFFCURVE",
"629 333 OFFCURVE",
"563 351 CURVE",
"564 358 LINE",
"666 377 OFFCURVE",
"726 449 OFFCURVE",
"730 554 CURVE SMOOTH",
"734 660 OFFCURVE",
"666 729 OFFCURVE",
"504 729 CURVE SMOOTH",
"158 729 LINE",
"7 0 LINE"
);
},
{
closed = 1;
nodes = (
"189 693 LINE",
"491 693 LINE SMOOTH",
"617 693 OFFCURVE",
"694 651 OFFCURVE",
"690 551 CURVE SMOOTH",
"686 435 OFFCURVE",
"612 371 OFFCURVE",
"482 371 CURVE SMOOTH",
"122 371 LINE"
);
}
);
width = 725;
},
{
anchors = (
{
name = bottom;
position = "{350, 0}";
},
{
name = top;
position = "{501, 729}";
}
);
layerId = "377EF8AC-8B0D-46C2-96BB-3B5B69A8F571";
paths = (
{
closed = 1;
nodes = (
"216 0 LINE",
"265 233 LINE",
"429 233 LINE SMOOTH",
"496 233 OFFCURVE",
"516 201 OFFCURVE",
"503 145 CURVE SMOOTH",
"489 83 LINE SMOOTH",
"481 47 OFFCURVE",
"479 22 OFFCURVE",
"482 0 CURVE",
"711 0 LINE",
"709 20 OFFCURVE",
"708 41 OFFCURVE",
"718 83 CURVE SMOOTH",
"735 163 LINE SMOOTH",
"753 245 OFFCURVE",
"729 298 OFFCURVE",
"654 314 CURVE",
"656 321 LINE",
"759 342 OFFCURVE",
"824 423 OFFCURVE",
"827 526 CURVE SMOOTH",
"831 645 OFFCURVE",
"769 729 OFFCURVE",
"552 729 CURVE SMOOTH",
"140 729 LINE",
"-12 0 LINE"
);
},
{
closed = 1;
nodes = (
"333 561 LINE",
"490 561 LINE SMOOTH",
"560 561 OFFCURVE",
"599 540 OFFCURVE",
"597 489 CURVE SMOOTH",
"595 422 OFFCURVE",
"553 391 OFFCURVE",
"470 391 CURVE SMOOTH",
"298 391 LINE"
);
}
);
width = 812;
}
);
leftKerningGroup = B;
leftMetricsKey = H;
rightKerningGroup = R;
unicode = 0052;
},
{
glyphname = S;
lastChange = "2022-08-11 16:47:25 +0000";
layers = (
{
anchors = (
{
name = bottom;
position = "{223, 0}";
},
{
name = top;
position = "{223, 729}";
}
);
background = {
paths = (
{
closed = 1;
nodes = (
"357 -10 OFFCURVE",
"445 50 OFFCURVE",
"445 206 CURVE SMOOTH",
"445 309 OFFCURVE",
"406 372 OFFCURVE",
"314 426 CURVE SMOOTH",
"267 455 LINE SMOOTH",
"221 484 OFFCURVE",
"209 506 OFFCURVE",
"209 545 CURVE SMOOTH",
"209 576 OFFCURVE",
"215 594 OFFCURVE",
"237 594 CURVE SMOOTH",
"258 594 OFFCURVE",
"269 577 OFFCURVE",
"268 508 CURVE",
"439 508 LINE",
"439 664 OFFCURVE",
"355 738 OFFCURVE",
"233 738 CURVE SMOOTH",
"103 738 OFFCURVE",
"16 678 OFFCURVE",
"16 522 CURVE SMOOTH",
"16 420 OFFCURVE",
"62 357 OFFCURVE",
"131 315 CURVE SMOOTH",
"182 284 LINE SMOOTH",
"240 248 OFFCURVE",
"250 220 OFFCURVE",
"250 187 CURVE SMOOTH",
"250 155 OFFCURVE",
"244 137 OFFCURVE",
"220 137 CURVE SMOOTH",
"196 137 OFFCURVE",
"183 156 OFFCURVE",
"183 231 CURVE",
"13 231 LINE",
"13 77 OFFCURVE",
"92 -10 OFFCURVE",
"226 -10 CURVE SMOOTH"
);
}
);
};
layerId = "E787E54A-EE3E-475A-BF02-8501A6DA5144";
paths = (
{
closed = 1;
nodes = (
"354 -10 OFFCURVE",
"433 58 OFFCURVE",
"433 202 CURVE SMOOTH",
"433 323 OFFCURVE",
"362 386 OFFCURVE",
"278 437 CURVE SMOOTH",
"215 475 OFFCURVE",
"193 494 OFFCURVE",
"193 548 CURVE SMOOTH",
"193 584 OFFCURVE",
"203 606 OFFCURVE",
"229 606 CURVE SMOOTH",
"259 606 OFFCURVE",
"270 580 OFFCURVE",
"269 511 CURVE",
"427 511 LINE",
"427 675 OFFCURVE",
"349 738 OFFCURVE",
"220 738 CURVE SMOOTH",
"101 738 OFFCURVE",
"17 675 OFFCURVE",
"17 536 CURVE SMOOTH",
"17 408 OFFCURVE",
"88 349 OFFCURVE",
"158 307 CURVE SMOOTH",
"227 265 OFFCURVE",
"254 242 OFFCURVE",
"254 186 CURVE SMOOTH",
"254 148 OFFCURVE",
"245 125 OFFCURVE",
"216 125 CURVE SMOOTH",
"185 125 OFFCURVE",
"168 150 OFFCURVE",
"168 231 CURVE",
"13 231 LINE",
"13 86 OFFCURVE",
"72 -10 OFFCURVE",
"222 -10 CURVE SMOOTH"
);
}
);
width = 446;
},
{
anchors = (
{
name = bottom;
position = "{188, 0}";
},
{
name = top;
position = "{188, 729}";
}
);
layerId = "5713303B-ED49-44A7-8230-B5CAE56DEB7E";
paths = (
{
closed = 1;
nodes = (
"288 -8 OFFCURVE",
"348 50 OFFCURVE",
"348 170 CURVE SMOOTH",
"348 301 OFFCURVE",
"283 340 OFFCURVE",
"211 379 CURVE SMOOTH",
"146 414 OFFCURVE",
"81 450 OFFCURVE",
"81 566 CURVE SMOOTH",
"81 650 OFFCURVE",
"110 706 OFFCURVE",
"186 706 CURVE SMOOTH",
"256 706 OFFCURVE",
"305 672 OFFCURVE",
"306 530 CURVE",
"339 530 LINE",
"338 653 OFFCURVE",
"303 737 OFFCURVE",
"189 737 CURVE SMOOTH",
"105 737 OFFCURVE",
"49 682 OFFCURVE",
"49 567 CURVE SMOOTH",
"49 428 OFFCURVE",
"120 390 OFFCURVE",
"188 354 CURVE SMOOTH",
"259 316 OFFCURVE",
"315 280 OFFCURVE",
"315 172 CURVE SMOOTH",
"315 83 OFFCURVE",
"282 22 OFFCURVE",
"197 22 CURVE SMOOTH",
"119 22 OFFCURVE",
"67 72 OFFCURVE",
"67 225 CURVE",
"33 225 LINE",
"36 85 OFFCURVE",
"77 -8 OFFCURVE",
"199 -8 CURVE SMOOTH"
);
}
);
width = 376;
},
{
anchors = (
{
name = bottom;
position = "{323, 0}";
},
{
name = top;
position = "{323, 729}";
}
);
background = {
paths = (
{
closed = 1;
nodes = (
"483 -8 OFFCURVE",
"589 69 OFFCURVE",
"589 195 CURVE SMOOTH",
"589 340 OFFCURVE",
"463 372 OFFCURVE",
"401 385 CURVE SMOOTH",
"285 408 LINE SMOOTH",
"223 420 OFFCURVE",
"113 448 OFFCURVE",
"113 555 CURVE SMOOTH",
"113 646 OFFCURVE",
"192 703 OFFCURVE",
"313 703 CURVE SMOOTH",
"444 703 OFFCURVE",
"520 641 OFFCURVE",
"524 529 CURVE",
"564 529 LINE",
"561 654 OFFCURVE",
"478 737 OFFCURVE",
"317 737 CURVE SMOOTH",
"170 737 OFFCURVE",
"73 664 OFFCURVE",
"73 550 CURVE SMOOTH",
"73 419 OFFCURVE",
"199 387 OFFCURVE",
"279 370 CURVE SMOOTH",
"397 345 LINE SMOOTH",
"446 335 OFFCURVE",
"549 313 OFFCURVE",
"549 193 CURVE SMOOTH",
"549 93 OFFCURVE",
"461 26 OFFCURVE",
"324 26 CURVE SMOOTH",
"170 26 OFFCURVE",
"100 102 OFFCURVE",
"96 225 CURVE",
"55 225 LINE",
"58 90 OFFCURVE",
"139 -8 OFFCURVE",
"326 -8 CURVE SMOOTH"
);
}
);
};
layerId = master01;
paths = (
{
closed = 1;
nodes = (
"494 -8 OFFCURVE",
"589 69 OFFCURVE",
"589 185 CURVE SMOOTH",
"589 340 OFFCURVE",
"477 372 OFFCURVE",
"338 397 CURVE SMOOTH",
"177 427 OFFCURVE",
"113 453 OFFCURVE",
"113 555 CURVE SMOOTH",
"113 644 OFFCURVE",
"185 703 OFFCURVE",
"313 703 CURVE SMOOTH",
"444 703 OFFCURVE",
"520 641 OFFCURVE",
"524 529 CURVE",
"564 529 LINE",
"561 654 OFFCURVE",
"478 737 OFFCURVE",
"317 737 CURVE SMOOTH",
"163 737 OFFCURVE",
"73 662 OFFCURVE",
"73 550 CURVE SMOOTH",
"73 427 OFFCURVE",
"159 391 OFFCURVE",
"324 360 CURVE SMOOTH",
"484 331 OFFCURVE",
"549 294 OFFCURVE",
"549 183 CURVE SMOOTH",
"549 76 OFFCURVE",
"459 26 OFFCURVE",
"324 26 CURVE SMOOTH",
"170 26 OFFCURVE",
"100 102 OFFCURVE",
"96 225 CURVE",
"55 225 LINE",
"58 90 OFFCURVE",
"139 -8 OFFCURVE",
"326 -8 CURVE SMOOTH"
);
}
);
userData = {
com.schriftgestaltung.hints = (
{
horizontal = 1;
options = 0;
origin = (
0,
32
);
stem = -2;
target = (
0,
39
);
type = Stem;
},
{
horizontal = 1;
options = 0;
origin = (
0,
19
);
stem = -2;
target = (
0,
12
);
type = Stem;
},
{
horizontal = 0;
options = 0;
origin = (
0,
22
);
stem = -2;
target = (
0,
9
);
type = Stem;
},
{
horizontal = 0;
options = 0;
origin = (
0,
29
);
stem = -2;
target = (
0,
2
);
type = Stem;
}
);
};
width = 644;
},
{
anchors = (
{
name = bottom;
position = "{340, 0}";
},
{
name = top;
position = "{340, 729}";
}
);
background = {
paths = (
{
closed = 1;
nodes = (
"554 -10 OFFCURVE",
"657 87 OFFCURVE",
"657 224 CURVE SMOOTH",
"657 410 OFFCURVE",
"524 441 OFFCURVE",
"406 458 CURVE SMOOTH",
"295 475 OFFCURVE",
"255 478 OFFCURVE",
"255 528 CURVE SMOOTH",
"255 563 OFFCURVE",
"288 584 OFFCURVE",
"338 584 CURVE SMOOTH",
"380 584 OFFCURVE",
"424 570 OFFCURVE",
"427 518 CURVE",
"636 518 LINE",
"636 650 OFFCURVE",
"518 738 OFFCURVE",
"343 738 CURVE SMOOTH",
"156 738 OFFCURVE",
"40 650 OFFCURVE",
"40 501 CURVE SMOOTH",
"40 358 OFFCURVE",
"146 301 OFFCURVE",
"295 279 CURVE SMOOTH",
"407 262 OFFCURVE",
"441 257 OFFCURVE",
"441 203 CURVE SMOOTH",
"441 166 OFFCURVE",
"405 147 OFFCURVE",
"350 147 CURVE SMOOTH",
"268 147 OFFCURVE",
"236 181 OFFCURVE",
"236 231 CURVE",
"25 231 LINE",
"25 86 OFFCURVE",
"137 -10 OFFCURVE",
"340 -10 CURVE SMOOTH"
);
}
);
};
layerId = "1EDCBF6C-9964-4A28-BC87-E86B534B8BE7";
paths = (
{
closed = 1;
nodes = (
"550 -10 OFFCURVE",
"654 86 OFFCURVE",
"654 223 CURVE SMOOTH",
"654 407 OFFCURVE",
"522 439 OFFCURVE",
"406 456 CURVE SMOOTH",
"294 473 OFFCURVE",
"250 476 OFFCURVE",
"250 529 CURVE SMOOTH",
"250 565 OFFCURVE",
"284 587 OFFCURVE",
"336 587 CURVE SMOOTH",
"380 587 OFFCURVE",
"426 572 OFFCURVE",
"429 518 CURVE",
"633 518 LINE",
"633 650 OFFCURVE",
"516 738 OFFCURVE",
"341 738 CURVE SMOOTH",
"155 738 OFFCURVE",
"40 650 OFFCURVE",
"40 502 CURVE SMOOTH",
"40 374 OFFCURVE",
"126 306 OFFCURVE",
"295 281 CURVE SMOOTH",
"416 263 OFFCURVE",
"443 256 OFFCURVE",
"443 202 CURVE SMOOTH",
"443 164 OFFCURVE",
"406 144 OFFCURVE",
"348 144 CURVE SMOOTH",
"264 144 OFFCURVE",
"231 179 OFFCURVE",
"231 231 CURVE",
"25 231 LINE",
"25 86 OFFCURVE",
"137 -10 OFFCURVE",
"339 -10 CURVE SMOOTH"
);
}
);
width = 684;
},
{
anchors = (
{
name = bottom;
position = "{346, 0}";
},
{
name = top;
position = "{346, 729}";
}
);
layerId = "28A8A76A-23B4-40F5-83B9-DC51E48BF161";
paths = (
{
closed = 1;
nodes = (
"554 -8 OFFCURVE",
"655 69 OFFCURVE",
"655 192 CURVE SMOOTH",
"655 356 OFFCURVE",
"512 377 OFFCURVE",
"355 398 CURVE SMOOTH",
"199 419 OFFCURVE",
"97 434 OFFCURVE",
"97 552 CURVE SMOOTH",
"97 645 OFFCURVE",
"186 703 OFFCURVE",
"338 703 CURVE SMOOTH",
"489 703 OFFCURVE",
"581 646 OFFCURVE",
"586 529 CURVE",
"626 529 LINE",
"622 654 OFFCURVE",
"526 737 OFFCURVE",
"340 737 CURVE SMOOTH",
"172 737 OFFCURVE",
"58 669 OFFCURVE",
"58 550 CURVE SMOOTH",
"58 402 OFFCURVE",
"190 382 OFFCURVE",
"345 361 CURVE SMOOTH",
"500 340 OFFCURVE",
"615 321 OFFCURVE",
"615 191 CURVE SMOOTH",
"615 89 OFFCURVE",
"533 26 OFFCURVE",
"357 26 CURVE SMOOTH",
"184 26 OFFCURVE",
"85 89 OFFCURVE",
"78 225 CURVE",
"36 225 LINE",
"45 86 OFFCURVE",
"136 -8 OFFCURVE",
"357 -8 CURVE SMOOTH"
);
}
);
width = 691;
},
{
anchors = (
{
name = bottom;
position = "{380, 0}";
},
{
name = top;
position = "{380, 729}";
}
);
layerId = "D2144554-01B8-4B9B-B16A-E0E5B5794DFC";
paths = (
{
closed = 1;
nodes = (
"614 -10 OFFCURVE",
"743 78 OFFCURVE",
"743 226 CURVE SMOOTH",
"743 386 OFFCURVE",
"653 436 OFFCURVE",
"420 462 CURVE SMOOTH",
"291 476 OFFCURVE",
"269 484 OFFCURVE",
"269 526 CURVE SMOOTH",
"269 562 OFFCURVE",
"306 585 OFFCURVE",
"373 585 CURVE SMOOTH",
"435 585 OFFCURVE",
"478 565 OFFCURVE",
"486 514 CURVE",
"717 514 LINE",
"703 660 OFFCURVE",
"574 738 OFFCURVE",
"382 738 CURVE SMOOTH",
"164 738 OFFCURVE",
"34 652 OFFCURVE",
"34 499 CURVE SMOOTH",
"34 357 OFFCURVE",
"133 300 OFFCURVE",
"359 274 CURVE SMOOTH",
"478 260 OFFCURVE",
"507 256 OFFCURVE",
"507 207 CURVE SMOOTH",
"507 167 OFFCURVE",
"466 145 OFFCURVE",
"392 145 CURVE SMOOTH",
"300 145 OFFCURVE",
"255 183 OFFCURVE",
"254 235 CURVE",
"16 235 LINE",
"16 92 OFFCURVE",
"133 -10 OFFCURVE",
"383 -10 CURVE SMOOTH"
);
}
);
width = 759;
},
{
anchors = (
{
name = bottom;
position = "{135, 0}";
},
{
name = top;
position = "{286, 729}";
}
);
layerId = "23BA42C1-D468-4A44-9BE5-E18AE60B7926";
paths = (
{
closed = 1;
nodes = (
"250 -8 OFFCURVE",
"314 74 OFFCURVE",
"319 200 CURVE SMOOTH",
"321 265 OFFCURVE",
"289 323 OFFCURVE",
"225 375 CURVE SMOOTH",
"183 409 OFFCURVE",
"125 450 OFFCURVE",
"128 533 CURVE SMOOTH",
"131 639 OFFCURVE",
"181 705 OFFCURVE",
"255 705 CURVE SMOOTH",
"337 705 OFFCURVE",
"370 654 OFFCURVE",
"348 530 CURVE",
"381 530 LINE",
"403 654 OFFCURVE",
"366 736 OFFCURVE",
"258 736 CURVE SMOOTH",
"159 736 OFFCURVE",
"104 664 OFFCURVE",
"96 538 CURVE SMOOTH",
"90 442 OFFCURVE",
"142 399 OFFCURVE",
"194 357 CURVE SMOOTH",
"237 322 OFFCURVE",
"289 279 OFFCURVE",
"286 202 CURVE SMOOTH",
"282 89 OFFCURVE",
"231 22 OFFCURVE",
"147 22 CURVE SMOOTH",
"40 22 OFFCURVE",
"26 111 OFFCURVE",
"48 225 CURVE",
"15 225 LINE",
"-10 86 OFFCURVE",
"20 -8 OFFCURVE",
"147 -8 CURVE SMOOTH"
);
}
);
width = 375;
},
{
anchors = (
{
name = bottom;
position = "{169, 0}";
},
{
name = top;
position = "{320, 729}";
}
);
layerId = "2D4E69BA-A319-45D0-84B7-5297BCF4B7A0";
paths = (
{
closed = 1;
nodes = (
"309 -10 OFFCURVE",
"380 57 OFFCURVE",
"407 195 CURVE SMOOTH",
"429 308 OFFCURVE",
"376 373 OFFCURVE",
"304 432 CURVE SMOOTH",
"252 475 OFFCURVE",
"235 496 OFFCURVE",
"243 543 CURVE SMOOTH",
"250 588 OFFCURVE",
"265 607 OFFCURVE",
"290 606 CURVE SMOOTH",
"315 605 OFFCURVE",
"326 582 OFFCURVE",
"313 512 CURVE",
"467 512 LINE",
"493 659 OFFCURVE",
"432 739 OFFCURVE",
"291 739 CURVE SMOOTH",
"166 739 OFFCURVE",
"92 670 OFFCURVE",
"68 544 CURVE SMOOTH",
"45 428 OFFCURVE",
"96 363 OFFCURVE",
"160 311 CURVE SMOOTH",
"220 263 OFFCURVE",
"238 242 OFFCURVE",
"228 187 CURVE SMOOTH",
"221 145 OFFCURVE",
"209 124 OFFCURVE",
"179 126 CURVE SMOOTH",
"147 128 OFFCURVE",
"138 154 OFFCURVE",
"153 231 CURVE",
"-2 231 LINE",
"-29 77 OFFCURVE",
"28 -10 OFFCURVE",
"183 -10 CURVE SMOOTH"
);
}
);
width = 449;
},
{
anchors = (
{
name = bottom;
position = "{265, 0}";
},
{
name = top;
position = "{416, 729}";
}
);
layerId = "095FE76F-1953-440B-9108-AA0678D151F9";
paths = (
{
closed = 1;
nodes = (
"437 -10 OFFCURVE",
"549 72 OFFCURVE",
"554 202 CURVE SMOOTH",
"557 307 OFFCURVE",
"496 360 OFFCURVE",
"356 392 CURVE SMOOTH",
"219 423 OFFCURVE",
"163 468 OFFCURVE",
"166 547 CURVE SMOOTH",
"169 642 OFFCURVE",
"255 702 OFFCURVE",
"366 702 CURVE SMOOTH",
"485 702 OFFCURVE",
"563 634 OFFCURVE",
"560 529 CURVE",
"599 529 LINE",
"603 660 OFFCURVE",
"510 739 OFFCURVE",
"371 739 CURVE SMOOTH",
"232 739 OFFCURVE",
"128 663 OFFCURVE",
"124 544 CURVE SMOOTH",
"120 445 OFFCURVE",
"182 396 OFFCURVE",
"350 355 CURVE SMOOTH",
"462 328 OFFCURVE",
"516 287 OFFCURVE",
"513 198 CURVE SMOOTH",
"509 94 OFFCURVE",
"420 26 OFFCURVE",
"289 26 CURVE SMOOTH",
"156 26 OFFCURVE",
"75 97 OFFCURVE",
"79 224 CURVE",
"40 224 LINE",
"31 83 OFFCURVE",
"120 -10 OFFCURVE",
"294 -10 CURVE SMOOTH"
);
}
);
width = 637;
},
{
anchors = (
{
name = bottom;
position = "{277, 0}";
},
{
name = top;
position = "{428, 729}";
}
);
layerId = "63AAE8D6-1DFF-4DD4-BD9A-49272FE52904";
paths = (
{
closed = 1;
nodes = (
"489 -10 OFFCURVE",
"610 87 OFFCURVE",
"615 247 CURVE SMOOTH",
"620 364 OFFCURVE",
"565 420 OFFCURVE",
"387 462 CURVE SMOOTH",
"323 477 OFFCURVE",
"292 492 OFFCURVE",
"294 526 CURVE SMOOTH",
"295 563 OFFCURVE",
"323 584 OFFCURVE",
"370 584 CURVE SMOOTH",
"424 584 OFFCURVE",
"452 556 OFFCURVE",
"448 510 CURVE",
"652 510 LINE",
"657 642 OFFCURVE",
"554 738 OFFCURVE",
"387 738 CURVE SMOOTH",
"213 738 OFFCURVE",
"82 653 OFFCURVE",
"77 498 CURVE SMOOTH",
"73 386 OFFCURVE",
"139 326 OFFCURVE",
"303 282 CURVE SMOOTH",
"381 261 OFFCURVE",
"400 250 OFFCURVE",
"398 213 CURVE SMOOTH",
"397 169 OFFCURVE",
"365 146 OFFCURVE",
"303 146 CURVE SMOOTH",
"240 146 OFFCURVE",
"201 181 OFFCURVE",
"203 235 CURVE",
"6 235 LINE",
"-3 82 OFFCURVE",
"105 -10 OFFCURVE",
"293 -10 CURVE SMOOTH"
);
}
);
width = 665;
},
{
anchors = (
{
name = bottom;
position = "{289, 0}";
},
{
name = top;
position = "{440, 729}";
}
);
layerId = "C17B1F32-8075-45B4-AA59-7DAFF0D7E404";
paths = (
{
closed = 1;
nodes = (
"510 -10 OFFCURVE",
"618 67 OFFCURVE",
"623 199 CURVE SMOOTH",
"627 331 OFFCURVE",
"523 365 OFFCURVE",
"373 393 CURVE SMOOTH",
"225 420 OFFCURVE",
"142 449 OFFCURVE",
"146 543 CURVE SMOOTH",
"149 645 OFFCURVE",
"239 704 OFFCURVE",
"386 704 CURVE SMOOTH",
"536 704 OFFCURVE",
"627 640 OFFCURVE",
"623 535 CURVE",
"662 535 LINE",
"666 658 OFFCURVE",
"567 738 OFFCURVE",
"390 738 CURVE SMOOTH",
"213 738 OFFCURVE",
"110 662 OFFCURVE",
"106 541 CURVE SMOOTH",
"102 432 OFFCURVE",
"184 385 OFFCURVE",
"368 356 CURVE SMOOTH",
"534 328 OFFCURVE",
"585 283 OFFCURVE",
"582 195 CURVE SMOOTH",
"578 85 OFFCURVE",
"491 24 OFFCURVE",
"332 24 CURVE SMOOTH",
"165 24 OFFCURVE",
"53 94 OFFCURVE",
"59 220 CURVE",
"18 220 LINE",
"14 80 OFFCURVE",
"124 -10 OFFCURVE",
"332 -10 CURVE SMOOTH"
);
}
);
width = 686;
},
{
anchors = (
{
name = bottom;
position = "{320, 0}";
},
{
name = top;
position = "{471, 729}";
}
);
layerId = "377EF8AC-8B0D-46C2-96BB-3B5B69A8F571";
paths = (
{
closed = 1;
nodes = (
"582 -10 OFFCURVE",
"709 76 OFFCURVE",
"714 233 CURVE SMOOTH",
"719 389 OFFCURVE",
"607 433 OFFCURVE",
"437 461 CURVE SMOOTH",
"338 477 OFFCURVE",
"306 487 OFFCURVE",
"307 527 CURVE SMOOTH",
"309 564 OFFCURVE",
"342 585 OFFCURVE",
"403 585 CURVE SMOOTH",
"466 585 OFFCURVE",
"513 560 OFFCURVE",
"515 514 CURVE",
"743 514 LINE",
"744 646 OFFCURVE",
"613 739 OFFCURVE",
"407 739 CURVE SMOOTH",
"222 739 OFFCURVE",
"73 662 OFFCURVE",
"67 499 CURVE SMOOTH",
"63 376 OFFCURVE",
"147 309 OFFCURVE",
"336 276 CURVE SMOOTH",
"447 257 OFFCURVE",
"476 247 OFFCURVE",
"475 208 CURVE SMOOTH",
"473 169 OFFCURVE",
"445 145 OFFCURVE",
"367 145 CURVE SMOOTH",
"272 145 OFFCURVE",
"229 183 OFFCURVE",
"232 234 CURVE",
"-3 234 LINE",
"-10 86 OFFCURVE",
"122 -10 OFFCURVE",
"354 -10 CURVE SMOOTH"
);
}
);
width = 752;
}
);
leftKerningGroup = S;
rightKerningGroup = S;
unicode = 0053;
},
